<?xml version="1.0" encoding="utf-8"?>
<!-- Generator: Adobe Illustrator 18.0.0, SVG Export Plug-In . SVG Version: 6.00 Build 0)  -->
<!DOCTYPE svg PUBLIC "-//W3C//DTD SVG 1.1//EN" "http://www.w3.org/Graphics/SVG/1.1/DTD/svg11.dtd">
<svg version="1.1" id="Layer_1" xmlns="http://www.w3.org/2000/svg" xmlns:xlink="http://www.w3.org/1999/xlink" x="0px" y="0px"
	 viewBox="0 0 200 200" enable-background="new 0 0 200 200" xml:space="preserve">
<path fill="#404041" d="M162,56.7c9.3,0,16.7,7.3,16.7,16.7S171.3,90,162,90c-9.3,0-16.7-7.3-16.7-16.7S152.7,56.7,162,56.7
	 M162,43.3c-16.7,0-30,13.3-30,30s13.3,30,30,30s30-13.3,30-30S178,43.3,162,43.3L162,43.3z"/>
<path fill="#404041" d="M71.3,146.7v-20c80,0,80.7-26.7,80.7-33.3h20C172,140,111.3,146.7,71.3,146.7z"/>
<g>
	<line fill="none" x1="64.7" y1="60" x2="64.7" y2="146.7"/>
	<rect x="58" y="60" fill="#404041" width="20" height="86.7"/>
</g>
<path fill="#404041" d="M68.7,23.3c9.3,0,16.7,7.3,16.7,16.7S78,56.7,68.7,56.7S52,49.3,52,40S59.3,23.3,68.7,23.3 M68.7,10
	c-16.7,0-30,13.3-30,30s13.3,30,30,30s30-13.3,30-30S84.7,10,68.7,10L68.7,10z"/>
<path fill="#404041" d="M68.7,150c9.3,0,16.7,7.3,16.7,16.7c0,9.3-7.3,16.7-16.7,16.7S52,176,52,166.7C52,157.3,59.3,150,68.7,150
	 M68.7,136.7c-16.7,0-30,13.3-30,30s13.3,30,30,30s30-13.3,30-30S84.7,136.7,68.7,136.7L68.7,136.7z"/>
</svg>
