<?xml version="1.0" encoding="utf-8"?>
<!-- Generator: Adobe Illustrator 18.0.0, SVG Export Plug-In . SVG Version: 6.00 Build 0)  -->
<!DOCTYPE svg PUBLIC "-//W3C//DTD SVG 1.1//EN" "http://www.w3.org/Graphics/SVG/1.1/DTD/svg11.dtd">
<svg version="1.1" id="Layer_1" xmlns="http://www.w3.org/2000/svg" xmlns:xlink="http://www.w3.org/1999/xlink" x="0px" y="0px"
	 viewBox="0 0 30 30" enable-background="new 0 0 30 30" xml:space="preserve">
<path fill="#F2F2F2" d="M24.3,8.5c1.4,0,2.5,1.1,2.5,2.5s-1.1,2.5-2.5,2.5s-2.5-1.1-2.5-2.5S22.9,8.5,24.3,8.5 M24.3,6.5
	c-2.5,0-4.5,2-4.5,4.5s2,4.5,4.5,4.5s4.5-2,4.5-4.5S26.7,6.5,24.3,6.5L24.3,6.5z"/>
<path fill="#F2F2F2" d="M10.7,22v-3c12,0,12.1-4,12.1-5h3C25.8,21,16.7,22,10.7,22z"/>
<g>
	<line fill="#F2F2F2" x1="9.7" y1="9" x2="9.7" y2="22"/>
	<rect x="8.7" y="9" fill="#F2F2F2" width="3" height="13"/>
</g>
<path fill="#F2F2F2" d="M10.3,3.5c1.4,0,2.5,1.1,2.5,2.5s-1.1,2.5-2.5,2.5S7.8,7.4,7.8,6S8.9,3.5,10.3,3.5 M10.3,1.5
	c-2.5,0-4.5,2-4.5,4.5s2,4.5,4.5,4.5s4.5-2,4.5-4.5S12.7,1.5,10.3,1.5L10.3,1.5z"/>
<path fill="#F2F2F2" d="M10.3,22.5c1.4,0,2.5,1.1,2.5,2.5s-1.1,2.5-2.5,2.5S7.8,26.4,7.8,25S8.9,22.5,10.3,22.5 M10.3,20.5
	c-2.5,0-4.5,2-4.5,4.5s2,4.5,4.5,4.5s4.5-2,4.5-4.5S12.7,20.5,10.3,20.5L10.3,20.5z"/>
</svg>
