<?xml version="1.0" encoding="utf-8"?>
<!-- Generator: Adobe Illustrator 18.1.1, SVG Export Plug-In . SVG Version: 6.00 Build 0)  -->
<!DOCTYPE svg PUBLIC "-//W3C//DTD SVG 1.1//EN" "http://www.w3.org/Graphics/SVG/1.1/DTD/svg11.dtd">
<svg version="1.1" id="Layer_1" xmlns="http://www.w3.org/2000/svg" xmlns:xlink="http://www.w3.org/1999/xlink" x="0px" y="0px"
	 viewBox="1128 0 800 800" enable-background="new 1128 0 800 800" xml:space="preserve">
<g>
	<g>
		<path fill="#00B2EF" d="M1530.2,506.4c59,0,107.2-48.2,107.2-107.2v-31.1v-15.5v-31.1V306V275c0-59-48.2-107.2-107.2-107.2
			c-59,0-107.2,48.2-107.2,107.2V306v15.5v31.1v15.5v31.1C1423.1,458.3,1471.2,506.4,1530.2,506.4z M1483.6,368.2H1437v-15.5h46.6
			c7.8,0,15.5-6.2,15.5-15.5c0-7.8-6.2-15.5-15.5-15.5H1437V306h46.6c7.8,0,15.5-6.2,15.5-15.5c0-7.8-6.2-15.5-15.5-15.5H1437
			c0-51.3,41.9-91.7,91.7-91.7s91.7,41.9,91.7,91.7h-46.6c-7.8,0-15.5,6.2-15.5,15.5c0,7.8,6.2,15.5,15.5,15.5h46.6v15.5h-46.6
			c-7.8,0-15.5,6.2-15.5,15.5c0,7.8,6.2,15.5,15.5,15.5h46.6v15.5h-46.6c-7.8,0-15.5,6.2-15.5,15.5c0,7.8,6.2,15.5,15.5,15.5h46.6
			c0,51.3-41.9,91.7-91.7,91.7s-91.7-41.9-91.7-91.7h46.6c7.8,0,15.5-6.2,15.5-15.5C1499.2,375.9,1493,368.2,1483.6,368.2z"/>
		<path fill="#00B2EF" d="M1676.3,399.2h-15.5c0,71.5-59,130.5-130.5,130.5s-130.5-59-130.5-130.5h-15.5
			c0,77.7,60.6,141.4,138.3,146v68.3h-54.4v15.5h54.4h15.5h54.4v-15.5H1538v-69.9C1614.1,540.6,1676.3,476.9,1676.3,399.2z"/>
	</g>
	<path fill="#00B2EF" d="M1527.1,787.6c-214.4,0-388.3-174-388.3-388.3s174-388.3,388.3-388.3s388.3,174,388.3,388.3
		S1741.5,787.6,1527.1,787.6z M1527.1,40.4c-197.3,0-357.3,161.6-357.3,358.8s160,358.8,358.8,358.8c197.3,0,358.8-160,358.8-358.8
		S1724.4,40.4,1527.1,40.4z"/>
</g>
</svg>
