<?xml version="1.0" encoding="utf-8"?>
<!-- Generator: Adobe Illustrator 18.1.1, SVG Export Plug-In . SVG Version: 6.00 Build 0)  -->
<!DOCTYPE svg PUBLIC "-//W3C//DTD SVG 1.1//EN" "http://www.w3.org/Graphics/SVG/1.1/DTD/svg11.dtd">
<svg version="1.1" id="Layer_1" xmlns="http://www.w3.org/2000/svg" xmlns:xlink="http://www.w3.org/1999/xlink" x="0px" y="0px"
	 viewBox="245.1 0 800 800" enable-background="new 245.1 0 800 800" xml:space="preserve">
<g>
	<g>
		<path fill="#939393" d="M647.3,506.4c59,0,107.2-48.2,107.2-107.2v-31.1v-15.5v-31.1V306V275c0-59-48.2-107.2-107.2-107.2
			S540.1,215.9,540.1,275V306v15.5v31.1v15.5v31.1C540.1,458.3,588.3,506.4,647.3,506.4z M600.7,368.2h-46.6v-15.5h46.6
			c7.8,0,15.5-6.2,15.5-15.5c0-7.8-6.2-15.5-15.5-15.5h-46.6V306h46.6c7.8,0,15.5-6.2,15.5-15.5c0-7.8-6.2-15.5-15.5-15.5h-46.6
			c0-51.3,41.9-91.7,91.7-91.7c49.7,0,91.7,41.9,91.7,91.7h-46.6c-7.8,0-15.5,6.2-15.5,15.5c0,7.8,6.2,15.5,15.5,15.5h46.6v15.5
			h-46.6c-7.8,0-15.5,6.2-15.5,15.5c0,7.8,6.2,15.5,15.5,15.5h46.6v15.5h-46.6c-7.8,0-15.5,6.2-15.5,15.5c0,7.8,6.2,15.5,15.5,15.5
			h46.6c0,51.3-41.9,91.7-91.7,91.7c-49.7,0-91.7-41.9-91.7-91.7h46.6c7.8,0,15.5-6.2,15.5-15.5C616.3,375.9,610,368.2,600.7,368.2z
			"/>
		<path fill="#939393" d="M793.3,399.2h-15.5c0,71.5-59,130.5-130.5,130.5s-130.5-59-130.5-130.5h-15.5c0,77.7,60.6,141.4,138.3,146
			v68.3h-54.4v15.5h54.4h15.5h54.4v-15.5h-54.4v-69.9C731.2,540.6,793.3,476.9,793.3,399.2z"/>
	</g>
	<path fill="#939393" d="M644.2,787.6c-214.4,0-388.3-174-388.3-388.3s174-388.3,388.3-388.3s388.3,174,388.3,388.3
		S858.6,787.6,644.2,787.6z M644.2,40.4c-197.3,0-357.3,161.6-357.3,358.8s160,358.8,358.8,358.8c197.3,0,358.8-160,358.8-358.8
		S841.5,40.4,644.2,40.4z"/>
</g>
</svg>
