<?xml version="1.0" encoding="iso-8859-1"?>
<!-- Generator: Adobe Illustrator 18.0.0, SVG Export Plug-In . SVG Version: 6.00 Build 0)  -->
<!DOCTYPE svg PUBLIC "-//W3C//DTD SVG 1.1//EN" "http://www.w3.org/Graphics/SVG/1.1/DTD/svg11.dtd">
<svg xmlns="http://www.w3.org/2000/svg" xmlns:xlink="http://www.w3.org/1999/xlink" version="1.1" id="Capa_1" x="0px" y="0px" viewBox="0 0 295.928 295.928" style="enable-background:new 0 0 295.928 295.928;" xml:space="preserve" width="512px" height="512px">
<g>
	<path d="M193.686,68.762c-3.907,3.902-3.909,10.234-0.005,14.141c26.269,26.287,26.252,69.074-0.037,95.379   c-3.904,3.908-3.902,10.238,0.004,14.143c1.953,1.951,4.511,2.928,7.069,2.928c2.561,0,5.12-0.979,7.073-2.932   c34.079-34.1,34.096-89.57,0.037-123.654C203.925,64.86,197.592,64.856,193.686,68.762z" fill="#933EC5"/>
	<path d="M156.301,97.448c-3.907,3.902-3.909,10.234-0.005,14.141c10.472,10.48,10.471,27.533-0.002,38.014   c-3.904,3.906-3.902,10.238,0.005,14.143c1.952,1.951,4.511,2.926,7.068,2.926c2.561,0,5.121-0.976,7.073-2.932   c18.263-18.275,18.264-48.012,0.002-66.287C166.54,93.544,160.207,93.542,156.301,97.448z" fill="#933EC5"/>
	<path d="M252.097,24.471c-3.904-3.908-10.235-3.91-14.142-0.006c-3.907,3.904-3.909,10.236-0.005,14.143   c50.671,50.703,50.649,133.225-0.052,183.951c-3.904,3.906-3.902,10.238,0.004,14.143c1.953,1.951,4.511,2.928,7.069,2.928   c2.56,0,5.12-0.979,7.073-2.932C310.536,178.175,310.559,82.97,252.097,24.471z" fill="#933EC5"/>
	<path d="M72.751,195.087c25.71-1.771,46.091-23.264,46.091-49.447c0-27.338-22.217-49.578-49.524-49.578   c-27.309,0-49.526,22.24-49.526,49.578c0,26.182,20.381,47.674,46.092,49.447c-19.25,0.74-36.203,7.695-48.019,19.789   C5.726,227.3-0.443,244.501,0.025,264.622c0.126,5.43,4.564,9.768,9.997,9.768h118.582c5.433,0,9.871-4.338,9.997-9.77   c0.467-20.123-5.703-37.326-17.843-49.75C108.945,202.78,91.997,195.827,72.751,195.087z" fill="#933EC5"/>
</g>
<g>
</g>
<g>
</g>
<g>
</g>
<g>
</g>
<g>
</g>
<g>
</g>
<g>
</g>
<g>
</g>
<g>
</g>
<g>
</g>
<g>
</g>
<g>
</g>
<g>
</g>
<g>
</g>
<g>
</g>
</svg>
