<?xml version="1.0" encoding="utf-8"?>
<!-- Generator: Adobe Illustrator 19.0.0, SVG Export Plug-In . SVG Version: 6.00 Build 0)  -->
<svg version="1.1" id="Layer_1" xmlns="http://www.w3.org/2000/svg" xmlns:xlink="http://www.w3.org/1999/xlink" x="0px" y="0px"
	 viewBox="-1063 1065 32 32" style="enable-background:new -1063 1065 32 32;" xml:space="preserve">
<style type="text/css">
	.st0{fill:#AF6EE8;}
	.st1{fill:#FFFFFF;}
</style>
<path class="st0" d="M-1063,1081.2c0-8.6,7.1-15.6,15.9-15.6c8.8,0,15.9,7,15.9,15.6c0,8.6-7.1,15.6-15.9,15.6
	C-1055.9,1096.8-1063,1089.8-1063,1081.2"/>
<path class="st1" d="M-1037.9,1071.9L-1037.9,1071.9l-10.5,0c-0.1,0-0.3,0.1-0.3,0.2v9c-0.3-0.1-0.6-0.1-0.8-0.1h-4.6
	c-1.4,0-2.6,1.1-2.6,2.5v2.2c0,1.4,1.1,2.5,2.6,2.5h0.9l1.3,2.2c0,0.1,0.1,0.1,0.2,0.1c0,0,0.1,0,0.1,0c0.1-0.1,0.2-0.2,0.1-0.3
	l-1.4-2.4h-1.2c-1.1,0-2-0.9-2-2v-2.2c0-1.1,0.9-2,2-2h4.6c0.3,0,0.6,0.1,0.8,0.2v2.9c0,0.1,0.1,0.2,0.3,0.2h1v0.9
	c0,1.1-0.9,2-2.1,2h-1.9c-0.1,0-0.3,0.1-0.3,0.2c0,0.1,0.1,0.2,0.3,0.2h1.9c1.4,0,2.6-1.1,2.6-2.5v-0.9h9c0.1,0,0.3-0.1,0.3-0.2
	v-12.4C-1037.6,1072-1037.7,1071.9-1037.9,1071.9z M-1038.1,1084.3h-10v-11.9h10V1084.3z"/>
<path class="st1" d="M-1046.3,1081.8h6.4c0.1,0,0.3-0.1,0.3-0.2c0-0.1-0.1-0.2-0.3-0.2h-6.4c-0.1,0-0.3,0.1-0.3,0.2
	C-1046.6,1081.7-1046.5,1081.8-1046.3,1081.8 M-1046.3,1078.6h6.4c0.1,0,0.3-0.1,0.3-0.2c0-0.1-0.1-0.2-0.3-0.2h-6.4
	c-0.1,0-0.3,0.1-0.3,0.2C-1046.6,1078.5-1046.5,1078.6-1046.3,1078.6 M-1046.3,1075.4h6.4c0.1,0,0.3-0.1,0.3-0.2
	c0-0.1-0.1-0.2-0.3-0.2h-6.4c-0.1,0-0.3,0.1-0.3,0.2C-1046.6,1075.3-1046.5,1075.4-1046.3,1075.4 M-1055.1,1078
	c0.1,0,0.3-0.1,0.3-0.2c0-1.7,1.4-3.2,3.2-3.2h0.9l-0.7,0.7c-0.1,0.1-0.1,0.3,0,0.3c0.1,0.1,0.1,0.1,0.2,0.1c0.1,0,0.1,0,0.2-0.1
	l1.2-1.1c0,0,0-0.1,0.1-0.1c0,0,0-0.1,0-0.1c0,0,0,0,0,0c0,0,0,0,0,0c0,0,0-0.1,0-0.1c0,0,0-0.1-0.1-0.1l-1.2-1.1
	c-0.1-0.1-0.3-0.1-0.4,0c-0.1,0.1-0.1,0.3,0,0.3l0.7,0.7h-0.9c-2.1,0-3.7,1.6-3.7,3.7C-1055.4,1077.9-1055.3,1078-1055.1,1078
	 M-1049.2,1084.5c0-0.2-0.2-0.4-0.4-0.4s-0.4,0.2-0.4,0.4c0,0.2,0.2,0.4,0.4,0.4S-1049.2,1084.7-1049.2,1084.5 M-1051.2,1084.5
	c0-0.2-0.2-0.4-0.4-0.4c-0.2,0-0.4,0.2-0.4,0.4c0,0.2,0.2,0.4,0.4,0.4S-1051.2,1084.7-1051.2,1084.5 M-1054.1,1084.5
	c0,0.2,0.2,0.4,0.4,0.4c0.2,0,0.4-0.2,0.4-0.4c0-0.2-0.2-0.4-0.4-0.4C-1053.9,1084-1054.1,1084.2-1054.1,1084.5"/>
</svg>
