<?xml version="1.0" standalone="no"?>
<!DOCTYPE svg PUBLIC "-//W3C//DTD SVG 1.1//EN" "http://www.w3.org/Graphics/SVG/1.1/DTD/svg11.dtd" >
<svg>
<metadata>
Created by FontForge 20110222 at Wed Apr  9 11:30:10 2014
 By Orthosie Webhosting
Part of the digitally encoded machine readable outline data for producing the Typefaces provided is copyrighted (c) 2003 - 2006 Linotype GmbH, www.linotype.com. All rights reserved. This software is the property of Linotype GmbH, and may not be reproduced, modified, disclosed or transferred without the express written approval of Linotype GmbH. Copyright (c) 1988, 1990, 1993 Adobe Systems Incorporated. All Rights Reserved. Helvetica is a trademark of Heidelberger Druckmaschinen AG, exclusively licensed through Linotype GmbH, and may be registered in certain jurisdictions. This typeface is original artwork of Linotype Design Studio. The design may be protected in certain jurisdictions.
</metadata>
<defs>
<font id="HelvNeueMediumforIBMRegular" horiz-adv-x="551" >
  <font-face 
    font-family="HelvNeueMediumforIBMRegular"
    font-weight="500"
    font-stretch="normal"
    units-per-em="1000"
    panose-1="2 11 6 4 2 2 2 2 2 4"
    ascent="714"
    descent="-286"
    x-height="517"
    cap-height="714"
    bbox="-173 -223 1045 957"
    underline-thickness="50"
    underline-position="-50"
    unicode-range="U+000D-FB02"
  />
<missing-glyph horiz-adv-x="498" 
d="M271 117h-56v67h56v-67zM264 234h-46l-2 17q0 56 13 81q15 28 46 59q31 29 40.5 46t9.5 37q0 36 -22.5 60.5t-53.5 24.5q-71 0 -82 -95l-50 8q7 69 43 103t92 34q54 0 89 -36t35 -95q0 -34 -13 -60t-50 -60q-37 -33 -43 -52q-6 -20 -6 -72zM43 50h412v617h-412v-617z
M-7 718h512v-718h-512v718z" />
    <glyph glyph-name="IJ" unicode="IJ" horiz-adv-x="794" 
d="M63 0v714h125v-714h-125zM732 714v-484q0 -42 -4.5 -74t-19.5 -66t-39.5 -56t-68.5 -36.5t-103 -14.5q-108 0 -160.5 62.5t-52.5 166.5v38h125v-37q0 -64 22 -96t76 -32q58 0 79 33t21 105v491h125z" />
    <glyph glyph-name="ij" unicode="ij" horiz-adv-x="459" 
d="M52 606v108h114v-108h-114zM52 0v517h114v-517h-114zM285 606v108h114v-108h-114zM285 -39v556h114v-561q0 -80 -35 -120.5t-113 -40.5q-31 0 -51 4v90q20 -4 39 -4q29 0 37.5 17t8.5 59z" />
    <glyph glyph-name="napostrophe" unicode="&#x22;n" horiz-adv-x="575" 
d="M72 0v517h108v-76l2 -2q27 43 69 67.5t92 24.5q86 0 134.5 -45t48.5 -131v-355h-114v325q-2 61 -26 88.5t-75 27.5q-56 0 -90.5 -39t-34.5 -97v-305h-114zM-7 714v99h131v-89q0 -79 -116 -84v38q40 6 45 36h-60z" />
    <glyph glyph-name="fi" unicode="fi" horiz-adv-x="532" 
d="M365 606v108h114v-108h-114zM-4 432v85h85v43q0 90 38.5 122t104.5 32q56 0 80 -7v-89q-23 6 -53 6q-56 0 -56 -54v-53h97v-85h-97v-432h-114v432h-85zM365 0v517h114v-517h-114z" />
    <glyph glyph-name="fl" unicode="fl" horiz-adv-x="531" 
d="M364 0v714h114v-714h-114zM-5 432v85h85v43q0 90 38.5 122t104.5 32q56 0 80 -7v-89q-23 6 -53 6q-56 0 -56 -54v-53h97v-85h-97v-432h-114v432h-85z" />
    <glyph glyph-name=".notdef" horiz-adv-x="498" 
d="M271 117h-56v67h56v-67zM264 234h-46l-2 17q0 56 13 81q15 28 46 59q31 29 40.5 46t9.5 37q0 36 -22.5 60.5t-53.5 24.5q-71 0 -82 -95l-50 8q7 69 43 103t92 34q54 0 89 -36t35 -95q0 -34 -13 -60t-50 -60q-37 -33 -43 -52q-6 -20 -6 -72zM43 50h412v617h-412v-617z
M-7 718h512v-718h-512v718z" />
    <glyph glyph-name=".null" horiz-adv-x="500" 
 />
    <glyph glyph-name=".null" horiz-adv-x="500" 
 />
    <glyph glyph-name="nonmarkingreturn" horiz-adv-x="333" 
 />
    <glyph glyph-name="CR" unicode="&#xd;" horiz-adv-x="0" 
 />
    <glyph glyph-name="space" unicode=" " horiz-adv-x="228" 
 />
    <glyph glyph-name="exclam" unicode="!" horiz-adv-x="254" 
d="M60 0v125h134v-125h-134zM65 508v206h125v-206l-33 -309h-59z" />
    <glyph glyph-name="quotedbl" unicode="&#x22;" horiz-adv-x="435" 
d="M255 432v282h102v-282h-102zM79 432v282h102v-282h-102z" />
    <glyph glyph-name="numbersign" unicode="#" horiz-adv-x="542" 
d="M340 415h-111l-18 -130h111zM487 285v-75h-95l-30 -210h-80l29 210h-110l-30 -210h-80l29 210h-94v75h105l18 130h-94v75h104l29 210h81l-30 -210h111l29 210h81l-30 -210h86v-75h-96l-18 -130h85z" />
    <glyph glyph-name="dollar" unicode="$" horiz-adv-x="529" 
d="M246 441v200q-113 0 -113 -98q0 -76 113 -102zM4 217h114q-2 -140 128 -144v242q-49 13 -83 27t-70 38.5t-55 63.5t-19 91q0 91 66 143.5t161 52.5v78h43v-78q95 0 157 -50t62 -145h-114q-2 52 -27 78.5t-78 26.5v-211q53 -14 89.5 -28.5t73 -39.5t55.5 -63.5t19 -90.5
q0 -107 -66 -164t-171 -61v-78h-43v78q-111 2 -177.5 64t-64.5 170zM289 306v-233q123 9 123 119q0 35 -19.5 59.5t-43 34.5t-60.5 20z" />
    <glyph glyph-name="percent" unicode="%" horiz-adv-x="966" 
d="M156 515q0 -134 76 -134q40 0 59 37t19 97q0 134 -78 134q-76 0 -76 -134zM233 316q-86 0 -126.5 55.5t-40.5 143.5q0 87 42 143t125 56t125 -56t42 -143q0 -88 -40.5 -143.5t-126.5 -55.5zM658 185q0 -134 76 -134q40 0 59 37t19 97q0 134 -78 134q-76 0 -76 -134z
M735 -14q-86 0 -126.5 55.5t-40.5 143.5q0 87 42 143t125 56t125 -56t42 -143q0 -88 -40.5 -143.5t-126.5 -55.5zM244 -24l389 748h76l-387 -748h-78z" />
    <glyph glyph-name="ampersand" unicode="&#x26;" horiz-adv-x="640" 
d="M517 0l-65 80q-77 -94 -200 -94q-101 0 -163 57t-62 155q0 122 164 207q-25 32 -36.5 49.5t-23.5 47.5t-12 59q0 76 50.5 123t124.5 47t126 -44.5t52 -126.5q0 -112 -129 -181l111 -134q17 49 22 96h100q-12 -104 -56 -175l137 -166h-140zM391 156l-140 174
q-4 -3 -26.5 -15t-31.5 -19.5t-24 -22.5t-21.5 -34t-6.5 -43q0 -56 31.5 -88t83.5 -32q36 0 65 14.5t39 26t27 34.5q3 3 4 5zM297 646q-33 0 -54.5 -22t-21.5 -57q0 -13 3.5 -26t12 -26.5t14.5 -22t18.5 -24t16.5 -20.5q27 18 42 31t28.5 35.5t13.5 49.5q0 36 -20 59t-53 23
z" />
    <glyph glyph-name="quotesingle" unicode="'" horiz-adv-x="275" 
d="M87 432v282h102v-282h-102z" />
    <glyph glyph-name="parenleft" unicode="(" horiz-adv-x="270" 
d="M281 -191h-93q-69 111 -106.5 219.5t-37.5 241.5q0 240 144 461h93q-123 -221 -123 -461q0 -252 123 -461z" />
    <glyph glyph-name="parenright" unicode=")" horiz-adv-x="271" 
d="M-11 731h93q68 -109 106 -219.5t38 -242.5q0 -241 -144 -460h-93q123 220 123 460q0 251 -123 462z" />
    <glyph glyph-name="asterisk" unicode="*" horiz-adv-x="366" 
d="M127 534l-111 38l22 65l110 -43v120h68v-120l109 43l24 -65l-114 -38l70 -94l-53 -39l-71 98l-68 -98l-56 39z" />
    <glyph glyph-name="plus" unicode="+" horiz-adv-x="586" 
d="M242 304v202h102v-202h201v-102h-201v-202h-102v202h-201v102h201z" />
    <glyph glyph-name="comma" unicode="," horiz-adv-x="219" 
d="M40 0v135h139v-135q-1 -61 -37.5 -103.5t-97.5 -54.5v61q32 8 49 35.5t16 61.5h-69z" />
    <glyph glyph-name="hyphen" unicode="-" horiz-adv-x="388" 
d="M48 218v108h291v-108h-291z" />
    <glyph glyph-name="period" unicode="." horiz-adv-x="219" 
d="M40 0v135h139v-135h-139z" />
    <glyph glyph-name="slash" unicode="/" horiz-adv-x="360" 
d="M-18 -17l287 748h109l-287 -748h-109z" />
    <glyph glyph-name="zero" unicode="0" horiz-adv-x="563" 
d="M282 714q72 0 122 -33.5t75 -90.5t35 -115t10 -125t-10 -125t-35 -115t-75 -90.5t-122 -33.5t-122 33.5t-75 90.5t-35 115t-10 125t10 125t35 115t75 90.5t122 33.5zM282 81q128 0 128 269t-128 269t-128 -269t128 -269z" />
    <glyph glyph-name="one" unicode="1" horiz-adv-x="415" 
d="M42 494v90q79 0 136 28t68 88h93v-700h-125v494h-172z" />
    <glyph glyph-name="two" unicode="2" horiz-adv-x="534" 
d="M505 102v-102h-478q1 162 154 265q17 12 55.5 38t59 42t46 40.5t37.5 51.5t13 58q0 49 -26 86.5t-92 37.5q-115 0 -120 -175h-114q0 120 63.5 195t177.5 75q61 0 107 -20.5t70.5 -53.5t36 -68.5t11.5 -72.5q0 -62 -31.5 -114t-78.5 -87.5t-95 -65.5t-87.5 -63.5
t-49.5 -66.5h341z" />
    <glyph glyph-name="three" unicode="3" horiz-adv-x="565" 
d="M235 325v85q65 -3 110 23.5t45 86.5q0 45 -30.5 72t-78.5 27q-56 0 -87 -42.5t-29 -100.5h-114q4 104 66.5 171t165.5 67q89 0 155 -49.5t66 -137.5q0 -115 -99 -150v-2q60 -12 93.5 -59t33.5 -116q0 -96 -72.5 -155t-175.5 -59q-118 0 -181 65.5t-65 178.5h114
q-2 -66 32.5 -107.5t99.5 -41.5q59 0 96.5 33.5t37.5 91.5q0 39 -15 64.5t-43.5 37t-57.5 15t-67 2.5z" />
    <glyph glyph-name="four" unicode="4" horiz-adv-x="543" 
d="M320 564l-210 -308h212v308h-2zM520 256v-90h-90v-166h-108v166h-300v113l300 421h108v-444h90z" />
    <glyph glyph-name="five" unicode="5" horiz-adv-x="547" 
d="M40 317l75 383h362v-102h-277l-36 -178l2 -2q47 53 129 53q102 0 160.5 -65.5t58.5 -168.5q0 -44 -14 -87t-42 -80.5t-76 -60.5t-110 -23q-105 0 -173 55.5t-72 157.5h114q5 -57 39 -87.5t90 -30.5q68 0 99 42t31 112q0 62 -34 104t-99 42q-88 0 -113 -64h-114z" />
    <glyph glyph-name="six" unicode="6" horiz-adv-x="562" 
d="M516 523h-114q-4 44 -31 70t-71 26q-26 0 -47 -9t-35 -21.5t-25 -35.5t-17 -40t-10.5 -46.5t-6.5 -44.5t-4 -43l2 -2q46 83 151 83q102 0 161.5 -66.5t59.5 -168.5q0 -103 -64.5 -171t-168.5 -68q-74 0 -125.5 27.5t-79 80t-39 114.5t-11.5 144q0 67 14 128t43.5 115
t82.5 86.5t124 32.5q84 0 145.5 -53.5t65.5 -137.5zM292 81q59 0 91 42.5t32 103.5q0 60 -32 101.5t-91 41.5q-60 0 -93 -41t-33 -102t33.5 -103.5t92.5 -42.5z" />
    <glyph glyph-name="seven" unicode="7" horiz-adv-x="476" 
d="M-2 598v102h479v-95q-236 -266 -261 -605h-125q12 160 84 314.5t186 283.5h-363z" />
    <glyph glyph-name="eight" unicode="8" horiz-adv-x="569" 
d="M285 624q-48 0 -79 -28.5t-31 -78.5q0 -49 30.5 -76t79.5 -27t79.5 27t30.5 76q0 50 -31 78.5t-79 28.5zM285 -14q-109 0 -178 59.5t-69 160.5q0 66 34 111t94 60v2q-99 37 -99 144q0 90 57 140.5t161 50.5t161 -50.5t57 -140.5q0 -107 -99 -144v-2q60 -15 94 -60
t34 -111q0 -101 -69 -160.5t-178 -59.5zM285 76q59 0 96 34.5t37 95.5q0 57 -37.5 90t-95.5 33t-95.5 -33t-37.5 -90q0 -61 37 -95.5t96 -34.5z" />
    <glyph glyph-name="nine" unicode="9" horiz-adv-x="562" 
d="M45 177h114q4 -44 31 -70t71 -26q30 0 53 10.5t38 32t25 42t16 53.5t8 51.5t5 50.5l-2 2q-47 -84 -151 -84q-99 0 -160 64.5t-61 171.5q0 105 64.5 172t176.5 67q71 0 121 -27.5t76.5 -79.5t38 -114.5t11.5 -144.5q0 -67 -14 -128t-43.5 -115t-82.5 -86.5t-124 -32.5
q-84 0 -145.5 53.5t-65.5 137.5zM268 619q-59 0 -90.5 -41t-31.5 -102q0 -62 31.5 -104.5t90.5 -42.5q61 0 94 42.5t33 104.5q0 60 -33 101.5t-94 41.5z" />
    <glyph glyph-name="colon" unicode=":" horiz-adv-x="271" 
d="M66 0v135h139v-135h-139zM66 371v135h139v-135h-139z" />
    <glyph glyph-name="semicolon" unicode=";" horiz-adv-x="270" 
d="M65 371v135h139v-135h-139zM65 0v135h139v-135q-1 -61 -37.5 -103.5t-97.5 -54.5v61q32 8 49 35.5t16 61.5h-69z" />
    <glyph glyph-name="less" unicode="&#x3c;" horiz-adv-x="586" 
d="M547 94v-102l-508 225v72l508 225v-102l-374 -159z" />
    <glyph glyph-name="equal" unicode="=" horiz-adv-x="585" 
d="M545 203v-102h-504v102h504zM545 405v-102h-504v102h504z" />
    <glyph glyph-name="greater" unicode="&#x3e;" horiz-adv-x="586" 
d="M39 94l374 159l-374 159v102l508 -225v-72l-508 -225v102z" />
    <glyph glyph-name="question" unicode="?" horiz-adv-x="523" 
d="M192 0v125h134v-125h-134zM147 487h-114q0 111 65 177.5t175 66.5q95 0 156.5 -54t61.5 -148q0 -27 -6.5 -51t-11 -36.5t-22.5 -32.5t-21 -22.5t-27 -23.5q-33 -28 -47.5 -43t-27.5 -48t-13 -78h-108q0 83 17.5 125t60.5 78q5 4 17.5 15t17.5 15.5t14.5 14t13.5 17t9 18
t7 22.5t2 26q0 54 -32.5 82.5t-65.5 28.5q-61 0 -91 -39.5t-30 -109.5z" />
    <glyph glyph-name="at" unicode="@" horiz-adv-x="767" 
d="M598 542l-72 -263q-9 -29 -9 -46q0 -23 19 -23q49 0 89.5 63.5t40.5 152.5q0 109 -76.5 174.5t-190.5 65.5q-126 0 -206.5 -86.5t-80.5 -213.5q0 -144 83.5 -231t212.5 -87q66 0 125 26t100 73h70q-48 -78 -127 -121t-172 -43q-157 0 -264.5 109t-107.5 278
q0 150 108.5 255.5t258.5 105.5q137 0 236 -83.5t99 -209.5q0 -71 -25 -130.5t-63 -94.5t-77 -54t-71 -19q-24 0 -40.5 15t-18.5 43h-2q-50 -57 -112 -57t-104 46t-42 111q0 100 62.5 179.5t156.5 79.5q77 0 112 -72l18 57h70zM344 216q56 0 96.5 59t40.5 119q0 36 -23.5 62
t-55.5 26q-58 0 -98 -56.5t-40 -118.5q0 -40 22 -65.5t58 -25.5z" />
    <glyph glyph-name="A" unicode="A" horiz-adv-x="666" 
d="M-8 0l274 714h133l275 -714h-134l-67 189h-285l-67 -189h-129zM330 591l-108 -307h218l-107 307h-3z" />
    <glyph glyph-name="B" unicode="B" horiz-adv-x="681" 
d="M186 612v-197h204q46 0 75.5 26t29.5 73q0 52 -26 75t-79 23h-204zM61 0v714h347q99 0 155.5 -45t56.5 -132q0 -108 -102 -152v-2q65 -14 99.5 -62t34.5 -122q0 -89 -65.5 -144t-197.5 -55h-328zM186 325v-223h221q57 0 88.5 29.5t31.5 83.5q0 53 -31.5 81.5t-88.5 28.5
h-221z" />
    <glyph glyph-name="C" unicode="C" horiz-adv-x="698" 
d="M675 487h-125q-36 142 -178 142q-107 0 -162 -79.5t-55 -192.5t55 -192.5t162 -79.5q80 0 126.5 52t55.5 135h122q-8 -129 -91.5 -209t-212.5 -80q-155 0 -248.5 107.5t-93.5 266.5q0 158 93.5 266t248.5 108q124 0 207.5 -65.5t95.5 -178.5z" />
    <glyph glyph-name="D" unicode="D" horiz-adv-x="704" 
d="M62 0v714h296q157 0 236 -99.5t79 -257.5t-79 -257.5t-236 -99.5h-296zM187 612v-510h123q71 0 119.5 19t73.5 55.5t35 79.5t10 101t-10 101t-35 79.5t-73.5 55.5t-119.5 19h-123z" />
    <glyph glyph-name="E" unicode="E" horiz-adv-x="619" 
d="M62 0v714h514v-108h-389v-187h360v-102h-360v-209h396v-108h-521z" />
    <glyph glyph-name="F" unicode="F" horiz-adv-x="573" 
d="M62 0v714h493v-108h-368v-187h323v-102h-323v-317h-125z" />
    <glyph glyph-name="G" unicode="G" horiz-adv-x="740" 
d="M685 376v-376h-80l-19 84q-49 -56 -98.5 -78.5t-116.5 -22.5q-155 0 -248.5 107.5t-93.5 266.5q0 158 93.5 266t248.5 108q121 0 206.5 -64t99.5 -180h-122q-9 67 -61 104.5t-123 37.5q-107 0 -162 -79.5t-55 -192.5t55 -192.5t162 -79.5q95 -2 146.5 50.5t53.5 145.5
h-190v95h304z" />
    <glyph glyph-name="H" unicode="H" horiz-adv-x="698" 
d="M62 0v714h125v-284h325v284h125v-714h-125v322h-325v-322h-125z" />
    <glyph glyph-name="I" unicode="I" horiz-adv-x="252" 
d="M63 0v714h125v-714h-125z" />
    <glyph glyph-name="J" unicode="J" horiz-adv-x="524" 
d="M462 714v-484q0 -42 -4.5 -74t-19.5 -66t-39.5 -56t-68.5 -36.5t-103 -14.5q-108 0 -160.5 62.5t-52.5 166.5v38h125v-37q0 -64 22 -96t76 -32q58 0 79 33t21 105v491h125z" />
    <glyph glyph-name="K" unicode="K" horiz-adv-x="672" 
d="M62 0v714h125v-325l318 325h154l-285 -285l305 -429h-156l-234 341l-102 -101v-240h-125z" />
    <glyph glyph-name="L" unicode="L" horiz-adv-x="573" 
d="M62 0v714h125v-606h363v-108h-488z" />
    <glyph glyph-name="M" unicode="M" horiz-adv-x="863" 
d="M61 0v714h176l197 -559h2l192 559h174v-714h-119v551h-2l-198 -551h-103l-198 551h-2v-551h-119z" />
    <glyph glyph-name="N" unicode="N" horiz-adv-x="701" 
d="M61 0v714h132l326 -526h2v526h119v-714h-132l-325 525h-3v-525h-119z" />
    <glyph glyph-name="O" unicode="O" horiz-adv-x="740" 
d="M370 629q-107 0 -162 -79.5t-55 -192.5t55 -192.5t162 -79.5t162 79.5t55 192.5t-55 192.5t-162 79.5zM370 731q155 0 248.5 -108t93.5 -266q0 -159 -93.5 -266.5t-248.5 -107.5t-248.5 107.5t-93.5 266.5q0 158 93.5 266t248.5 108z" />
    <glyph glyph-name="P" unicode="P" horiz-adv-x="641" 
d="M62 0v714h315q72 0 123 -21t75.5 -57t34.5 -70.5t10 -72.5t-10 -72.5t-34.5 -69.5t-75.5 -56t-123 -21h-190v-274h-125zM187 612v-236h183q50 0 87.5 28t37.5 90q0 118 -123 118h-185z" />
    <glyph glyph-name="Q" unicode="Q" horiz-adv-x="740" 
d="M611 83l92 -80l-61 -68l-104 91q-74 -43 -168 -43q-155 0 -248.5 107.5t-93.5 266.5q0 158 93.5 266t248.5 108t248.5 -108t93.5 -266q0 -78 -25 -152.5t-76 -121.5zM450 102l-72 63l60 69l87 -76q62 76 62 199q0 113 -55 192.5t-162 79.5t-162 -79.5t-55 -192.5
t55 -192.5t162 -79.5q45 0 80 17z" />
    <glyph glyph-name="R" unicode="R" horiz-adv-x="687" 
d="M62 0v714h341q116 0 176 -50.5t60 -142.5q0 -48 -14 -84t-37 -55.5t-37.5 -27.5t-29.5 -13v-2q41 -5 73.5 -40.5t32.5 -110.5q0 -146 39 -188h-134q-19 31 -19 105q0 103 -29.5 146t-112.5 43h-184v-294h-125zM187 612v-223h205q122 0 122 114q0 63 -33.5 86t-90.5 23
h-203z" />
    <glyph glyph-name="S" unicode="S" horiz-adv-x="622" 
d="M19 238h125q0 -78 50 -115.5t131 -37.5q77 0 114 31.5t37 76.5q0 66 -59 88q-23 9 -51.5 17t-78 20.5t-83.5 21.5q-158 41 -158 181q0 101 77.5 155.5t183.5 54.5q117 0 195.5 -60.5t78.5 -167.5h-125q-10 126 -154 126q-52 0 -91.5 -22t-39.5 -71q0 -67 85 -92
q1 0 47 -12t94.5 -25t64.5 -18q67 -21 103 -71.5t36 -110.5q0 -58 -24 -102.5t-65.5 -70t-90.5 -38.5t-104 -13q-130 0 -213 64t-85 191z" />
    <glyph glyph-name="T" unicode="T" horiz-adv-x="611" 
d="M16 606v108h578v-108h-227v-606h-125v606h-226z" />
    <glyph glyph-name="U" unicode="U" horiz-adv-x="701" 
d="M57 257v457h125v-416q0 -36 2 -59t11 -54.5t26 -49.5t49.5 -31t79.5 -13t79.5 13t49.5 31t26 49.5t11 54.5t2 59v416h125v-457q0 -134 -78.5 -204t-214.5 -70t-214.5 70t-78.5 204z" />
    <glyph glyph-name="V" unicode="V" horiz-adv-x="611" 
d="M233 0l-238 714h130l179 -565h2l183 565h127l-244 -714h-139z" />
    <glyph glyph-name="W" unicode="W" horiz-adv-x="921" 
d="M182 0l-188 714h127l129 -546h2l144 546h128l140 -546h2l133 546h127l-197 -714h-127l-143 546h-2l-146 -546h-129z" />
    <glyph glyph-name="X" unicode="X" horiz-adv-x="636" 
d="M244 370l-236 344h149l162 -252l169 252h140l-236 -344l253 -370h-152l-178 273l-181 -273h-143z" />
    <glyph glyph-name="Y" unicode="Y" horiz-adv-x="625" 
d="M250 0v280l-268 434h145l189 -320l186 320h140l-267 -434v-280h-125z" />
    <glyph glyph-name="Z" unicode="Z" horiz-adv-x="629" 
d="M54 606v108h543v-95l-416 -511h426v-108h-585v102l416 504h-384z" />
    <glyph glyph-name="bracketleft" unicode="[" horiz-adv-x="282" 
d="M63 -191v922h223v-90h-115v-742h115v-90h-223z" />
    <glyph glyph-name="backslash" unicode="\" horiz-adv-x="360" 
d="M91 731l287 -748h-109l-287 748h109z" />
    <glyph glyph-name="bracketright" unicode="]" horiz-adv-x="283" 
d="M219 731v-922h-223v90h115v742h-115v90h223z" />
    <glyph glyph-name="asciicircum" unicode="^" horiz-adv-x="529" 
d="M150 335h-102l180 365h72l180 -365h-102l-114 247z" />
    <glyph glyph-name="underscore" unicode="_" horiz-adv-x="486" 
d="M493 -125h-500v50h500v-50z" />
    <glyph glyph-name="grave" unicode="`" horiz-adv-x="216" 
d="M-49 732h134l91 -143h-83z" />
    <glyph glyph-name="a" unicode="a" horiz-adv-x="552" 
d="M486 381v-266q0 -21 6 -30t21 -9h12q4 0 16 2v-79q-37 -13 -72 -13q-76 0 -88 63q-32 -31 -81 -47t-98 -16q-75 0 -126 39.5t-51 111.5q0 46 16.5 77.5t48.5 48t61 23.5t73 12q18 4 47 7t44.5 6t32 9.5t24 18.5t7.5 32q0 70 -107 70q-50 0 -80 -20.5t-34 -61.5h-114
q6 92 71.5 132t163.5 40q85 0 146 -37t61 -113zM372 174v85q-16 -10 -37 -15.5t-55.5 -9.5t-47.5 -6q-43 -7 -68 -26t-25 -60q0 -35 33 -50.5t72 -15.5q46 0 87 24.5t41 73.5z" />
    <glyph glyph-name="b" unicode="b" horiz-adv-x="594" 
d="M49 0v714h114v-264h2q24 37 66.5 59t87.5 22q117 0 179.5 -77.5t62.5 -197.5q0 -113 -57.5 -191.5t-165.5 -78.5q-136 0 -179 85h-2v-71h-108zM447 258q0 75 -38 129t-105 54q-71 0 -108 -49t-37 -134q0 -80 39 -131t106 -51q72 0 107.5 53t35.5 129z" />
    <glyph glyph-name="c" unicode="c" horiz-adv-x="540" 
d="M518 344h-114q-7 47 -38 72t-80 25q-25 0 -47.5 -8t-45 -27t-36 -58.5t-13.5 -94.5q0 -73 34 -125t103 -52q50 0 82.5 31t40.5 87h114q-16 -101 -76.5 -154.5t-160.5 -53.5q-118 0 -184.5 74.5t-66.5 192.5q0 123 66 200.5t189 77.5q95 0 160 -48t73 -139z" />
    <glyph glyph-name="d" unicode="d" horiz-adv-x="594" 
d="M545 714v-714h-108v70h-2q-43 -84 -160 -84q-118 0 -180 77t-62 199q0 132 65.5 200.5t158.5 68.5q52 0 99.5 -20.5t72.5 -60.5h2v264h114zM147 253q0 -73 36.5 -125t106.5 -52q71 0 108 54t37 129q0 86 -38.5 134t-104.5 48q-74 0 -109.5 -55t-35.5 -133z" />
    <glyph glyph-name="e" unicode="e" 
d="M140 304h266q-4 57 -39 97t-91 40q-58 0 -96 -39t-40 -98zM520 229h-380q0 -65 35.5 -109t103.5 -44q96 0 126 86h108q-18 -83 -82.5 -129.5t-151.5 -46.5q-120 0 -186.5 74.5t-66.5 197.5q0 114 69 193.5t181 79.5q119 0 189 -91t55 -211z" />
    <glyph glyph-name="f" unicode="f" horiz-adv-x="296" 
d="M-4 432v85h85v43q0 90 38.5 122t104.5 32q56 0 80 -7v-89q-23 6 -53 6q-56 0 -56 -54v-53h97v-85h-97v-432h-114v432h-85z" />
    <glyph glyph-name="g" unicode="g" horiz-adv-x="585" 
d="M536 517v-490q0 -116 -65 -174t-189 -58q-57 0 -104.5 14t-84.5 52t-42 95h114q10 -45 41.5 -60.5t82.5 -15.5q133 0 133 132v79h-2q-24 -43 -65.5 -67t-89.5 -24q-79 0 -132.5 38t-76.5 97.5t-23 136.5q0 109 63.5 184t170.5 75q111 0 153 -85h2v71h114zM283 90
q70 0 104.5 52.5t34.5 127.5q0 73 -34.5 122t-104.5 49t-103 -53t-33 -127q0 -70 34.5 -120.5t101.5 -50.5z" />
    <glyph glyph-name="h" unicode="h" 
d="M49 0v714h114v-265h2q22 36 63.5 59t91.5 23q86 0 134.5 -45t48.5 -131v-355h-114v325q-2 61 -26 88.5t-75 27.5q-56 0 -90.5 -39t-34.5 -97v-305h-114z" />
    <glyph glyph-name="i" unicode="i" horiz-adv-x="218" 
d="M52 606v108h114v-108h-114zM52 0v517h114v-517h-114z" />
    <glyph glyph-name="j" unicode="j" horiz-adv-x="229" 
d="M56 606v108h114v-108h-114zM56 -39v556h114v-561q0 -80 -35 -120.5t-113 -40.5q-31 0 -51 4v90q20 -4 39 -4q29 0 37.5 17t8.5 59z" />
    <glyph glyph-name="k" unicode="k" horiz-adv-x="528" 
d="M58 0v714h114v-406l206 209h140l-198 -190l217 -327h-139l-158 251l-68 -66v-185h-114z" />
    <glyph glyph-name="l" unicode="l" horiz-adv-x="218" 
d="M52 0v714h114v-714h-114z" />
    <glyph glyph-name="m" unicode="m" horiz-adv-x="853" 
d="M52 0v517h108v-72h3q29 43 65 64.5t94 21.5q50 0 89 -22t56 -64q63 86 162 86q173 0 173 -174v-357h-114v302q0 29 -1 46.5t-6.5 37.5t-15 30.5t-27.5 17.5t-44 7q-110 0 -110 -138v-303h-114v332q0 56 -20.5 82.5t-70.5 26.5q-47 0 -80 -36.5t-33 -97.5v-307h-114z" />
    <glyph glyph-name="n" unicode="n" 
d="M49 0v517h108v-76l2 -2q27 43 69 67.5t92 24.5q86 0 134.5 -45t48.5 -131v-355h-114v325q-2 61 -26 88.5t-75 27.5q-56 0 -90.5 -39t-34.5 -97v-305h-114z" />
    <glyph glyph-name="o" unicode="o" horiz-adv-x="578" 
d="M289 -14q-121 0 -191 75.5t-70 197.5q0 120 70 196t191 76t191 -76t70 -196q0 -122 -70 -197.5t-191 -75.5zM289 76q72 0 109.5 54t37.5 129q0 74 -37.5 128t-109.5 54t-109.5 -54t-37.5 -128q0 -75 37.5 -129t109.5 -54z" />
    <glyph glyph-name="p" unicode="p" horiz-adv-x="587" 
d="M49 -191v708h108v-70h2q45 84 160 84q117 0 179.5 -77.5t62.5 -197.5q0 -113 -57.5 -191.5t-165.5 -78.5q-54 0 -101 20.5t-72 60.5h-2v-258h-114zM447 258q0 75 -38 129t-105 54q-71 0 -108 -49t-37 -134q0 -80 39 -131t106 -51q72 0 107.5 53t35.5 129z" />
    <glyph glyph-name="q" unicode="q" horiz-adv-x="593" 
d="M545 517v-708h-114v258h-2q-54 -81 -173 -81q-108 0 -165.5 78.5t-57.5 191.5q0 120 62.5 197.5t179.5 77.5q115 0 160 -84h2v70h108zM147 258q0 -76 35.5 -129t107.5 -53t108.5 49t36.5 133q0 86 -37 134.5t-108 48.5q-67 0 -105 -54t-38 -129z" />
    <glyph glyph-name="r" unicode="r" horiz-adv-x="347" 
d="M49 0v517h107v-100h2q10 43 55.5 78.5t95.5 35.5q10 0 43 -3v-110q-27 5 -49 5q-60 0 -100 -47t-40 -130v-246h-114z" />
    <glyph glyph-name="s" unicode="s" horiz-adv-x="512" 
d="M29 166h114q9 -90 117 -90q20 0 37.5 2.5t37 9t30.5 21t10 35.5q-1 13 -5.5 23t-15 17.5t-20.5 12.5t-28 10t-30 8t-35 7.5t-35 7.5q-36 8 -62 17.5t-51.5 26t-39 44t-13.5 65.5q0 40 20 70.5t53 46.5t69 23.5t74 7.5q87 0 147 -38.5t69 -120.5h-119q-14 69 -105 69
q-21 0 -40 -3.5t-36.5 -16t-17.5 -33.5q0 -12 4 -21.5t15 -16.5t20 -12t28.5 -10.5t30 -8t35.5 -7.5l35 -7q37 -8 62.5 -17.5t51.5 -26.5t39.5 -43.5t13.5 -63.5q0 -58 -36.5 -97.5t-86.5 -55t-108 -15.5q-102 0 -164.5 46t-64.5 134z" />
    <glyph glyph-name="t" unicode="t" horiz-adv-x="330" 
d="M0 432v85h86v155h114v-155h103v-85h-103v-276q0 -40 9.5 -55.5t45.5 -15.5q32 0 48 4v-88q-50 -6 -74 -6q-84 0 -112.5 30.5t-30.5 101.5v305h-86z" />
    <glyph glyph-name="u" unicode="u" 
d="M503 517v-517h-112v72h-2q-21 -38 -62.5 -62t-84.5 -24q-101 0 -147 50t-46 153v328h114v-317q0 -66 25 -95t74 -29q127 0 127 141v300h114z" />
    <glyph glyph-name="v" unicode="v" horiz-adv-x="507" 
d="M191 0l-188 517h124l131 -397h2l126 397h118l-185 -517h-128z" />
    <glyph glyph-name="w" unicode="w" horiz-adv-x="758" 
d="M163 0l-160 517h121l101 -386h2l97 386h115l93 -386h2l105 386h116l-162 -517h-117l-96 384h-2l-95 -384h-120z" />
    <glyph glyph-name="x" unicode="x" horiz-adv-x="515" 
d="M-7 0l195 272l-179 245h138l108 -159l113 159h132l-176 -239l198 -278h-137l-131 191l-127 -191h-134z" />
    <glyph glyph-name="y" unicode="y" horiz-adv-x="518" 
d="M199 2l-196 515h125l135 -386h2l131 386h119l-201 -545q-35 -88 -54 -115q-44 -62 -129 -62q-40 0 -79 6v96q44 -7 54 -7q36 0 52.5 17.5t27.5 54.5z" />
    <glyph glyph-name="z" unicode="z" horiz-adv-x="481" 
d="M34 427v90h420v-80l-296 -347h311v-90h-455v80l286 347h-266z" />
    <glyph glyph-name="braceleft" unicode="{" horiz-adv-x="336" 
d="M16 225v90q17 0 36.5 5.5t38.5 23t19 44.5v206q0 63 43.5 100t84.5 37h91v-90h-55q-56 0 -56 -70v-195q0 -52 -34.5 -77t-69.5 -28v-2q104 -10 104 -111v-189q0 -70 56 -70h55v-90h-91q-41 0 -84.5 37t-43.5 100v198q0 43 -32 62t-62 19z" />
    <glyph glyph-name="bar" unicode="|" horiz-adv-x="222" 
d="M60 -214v1000h102v-1000h-102z" />
    <glyph glyph-name="braceright" unicode="}" horiz-adv-x="337" 
d="M320 315v-90q-31 0 -62.5 -17.5t-31.5 -55.5v-206q0 -63 -43.5 -100t-84.5 -37h-91v90h55q56 0 56 70v195q0 88 104 105v2q-104 10 -104 111v189q0 70 -56 70h-55v90h91q41 0 84.5 -37t43.5 -100v-198q0 -43 31.5 -62t62.5 -19z" />
    <glyph glyph-name="asciitilde" unicode="~" horiz-adv-x="584" 
d="M487 338l36 -84q-27 -41 -55 -63.5t-70 -22.5q-45 0 -102 33q-59 35 -115 35q-49 0 -84 -68l-36 84q42 86 125 86q38 0 111 -32q7 -3 21.5 -9.5t23 -10t20 -8t20.5 -6.5t17 -2q19 0 37 12.5t25.5 22t25.5 33.5z" />
    <glyph glyph-name="uni00A0" unicode="&#xa0;" horiz-adv-x="278" 
 />
    <glyph glyph-name="exclamdown" unicode="&#xa1;" horiz-adv-x="254" 
d="M194 531v-125h-134v125h134zM190 21v-204h-125v204l33 311h59z" />
    <glyph glyph-name="cent" unicode="&#xa2;" horiz-adv-x="532" 
d="M256 -104v90q-105 0 -168 77.5t-63 189.5q0 125 64.5 201.5t166.5 76.5v90h43v-90q85 0 146 -51t67 -136h-114q-5 43 -32.5 70t-66.5 27v-365q91 16 103 118h114q-18 -98 -72.5 -153t-144.5 -55v-90h-43zM256 76v365q-61 -6 -89 -61t-28 -127q0 -67 29 -117.5t88 -59.5z
" />
    <glyph glyph-name="sterling" unicode="&#xa3;" horiz-adv-x="536" 
d="M22 319v65h63q-47 56 -47 141q0 90 71 148t163 58q117 0 183.5 -63t67.5 -184h-114q-9 152 -135 152q-48 0 -79.5 -31t-31.5 -86q0 -50 46 -135h147v-65h-123q16 -29 16 -67q0 -89 -101 -164l2 -2q5 2 22 9t24.5 9.5t20.5 5.5t25 3q32 0 81 -17q46 -18 74 -18q53 0 97 38
l51 -77q-37 -31 -73.5 -43.5t-86.5 -12.5q-19 0 -56 7t-43 8q-60 20 -105 20q-61 0 -101 -34l-53 81q41 28 74.5 74t33.5 88q0 48 -21 92h-92z" />
    <glyph glyph-name="currency" unicode="&#xa4;" horiz-adv-x="549" 
d="M275 201q60 0 100 44t40 106q0 60 -40 104t-99 44q-62 0 -103.5 -43.5t-41.5 -106.5q0 -62 41.5 -105t102.5 -43zM72 90l-56 56l57 61q-50 56 -50 142q0 97 50 144l-57 61l57 57l57 -56q54 46 146 46q85 0 137 -45l58 57l61 -61l-56 -58q47 -49 47 -143q0 -89 -48 -146
l55 -59l-55 -55l-57 58q-52 -50 -143 -50q-93 0 -147 49z" />
    <glyph glyph-name="yen" unicode="&#xa5;" horiz-adv-x="539" 
d="M216 0v165h-137v65h137v68h-137v65h98l-187 351h127l156 -320l159 320h124l-188 -351h99v-65h-137v-68h137v-65h-137v-165h-114z" />
    <glyph glyph-name="brokenbar" unicode="&#xa6;" horiz-adv-x="223" 
d="M60 411v250h102v-250h-102zM60 -89v250h102v-250h-102z" />
    <glyph glyph-name="section" unicode="&#xa7;" horiz-adv-x="544" 
d="M478 542h-108q-2 43 -27 71t-67 28q-32 0 -57 -21.5t-25 -53.5q0 -34 34.5 -63t83.5 -52.5t98 -49.5t83.5 -68t34.5 -95q0 -46 -31 -88t-75 -56q55 -47 55 -128q0 -80 -58 -125.5t-140 -45.5q-94 0 -154 54t-62 151h108q8 -115 105 -115q87 0 87 81q0 15 -4 28.5
t-16 26.5t-20 21.5t-29.5 21.5t-30 18t-37 19.5t-35.5 18.5q-80 39 -128 83.5t-48 108.5q0 104 108 149q-43 46 -43 101q0 76 60 122.5t137 46.5q87 0 144 -51.5t57 -137.5zM350 310l-166 95q-28 -8 -44.5 -29.5t-16.5 -50.5q0 -47 55 -78l182 -102q60 26 60 82q0 23 -15 42
t-55 41z" />
    <glyph glyph-name="dieresis" unicode="&#xa8;" horiz-adv-x="198" 
d="M70 602h-114v108h114v-108zM128 710h114v-108h-114v108z" />
    <glyph glyph-name="copyright" unicode="&#xa9;" horiz-adv-x="761" 
d="M501 285h69q-12 -71 -61 -112.5t-116 -41.5q-95 0 -153.5 64t-58.5 162q0 93 57 154t153 61q71 0 120 -39.5t58 -111.5h-68q-8 39 -38 62.5t-72 23.5q-61 0 -95.5 -42.5t-34.5 -107.5q0 -67 36.5 -114t95.5 -47q44 0 73.5 24.5t34.5 64.5zM667 357q0 135 -82.5 222
t-203.5 87q-123 0 -205.5 -87t-82.5 -222q0 -131 79 -220t209 -89q122 0 204 87t82 222zM747 357q0 -164 -107.5 -269t-258.5 -105q-160 0 -264 106.5t-104 267.5q0 164 108 269t260 105q151 0 258.5 -105t107.5 -269z" />
    <glyph glyph-name="ordfeminine" unicode="&#xaa;" horiz-adv-x="342" 
d="M313 621v-151q0 -12 3 -17.5t14 -4.5h7q6 0 9 1v-68q-22 -8 -47 -8q-53 0 -62 49q-14 -21 -49.5 -35t-67.5 -14q-51 0 -86.5 24.5t-35.5 68.5q0 27 11 45.5t34 29t40.5 15.5t49.5 10q70 11 83 20q10 7 10 18q0 29 -16 37t-44 8q-66 0 -70 -42h-85q6 57 50.5 82t109.5 25
q58 0 100 -23.5t42 -69.5zM226 491v44q-11 -6 -37.5 -10.5t-48 -7.5t-38.5 -14.5t-17 -31.5q0 -33 56 -33q85 0 85 53z" />
    <glyph glyph-name="guillemotleft" unicode="&#xab;" horiz-adv-x="440" 
d="M394 93l-155 123v112l155 123v-103l-95 -76l95 -76v-103zM196 93l-155 123v112l155 123v-103l-95 -76l95 -76v-103z" />
    <glyph glyph-name="logicalnot" unicode="&#xac;" horiz-adv-x="586" 
d="M443 108v195h-402v102h504v-297h-102z" />
    <glyph glyph-name="uni00AD" unicode="&#xad;" horiz-adv-x="388" 
d="M48 218v108h291v-108h-291z" />
    <glyph glyph-name="registered" unicode="&#xae;" horiz-adv-x="761" 
d="M667 357q0 135 -82.5 222t-203.5 87q-123 0 -205.5 -87t-82.5 -222q0 -131 79 -220t209 -89q122 0 204 87t82 222zM747 357q0 -164 -107.5 -269t-258.5 -105q-160 0 -264 106.5t-104 267.5q0 164 108 269t260 105q151 0 258.5 -105t107.5 -269zM307 378h76q47 0 71.5 12
t24.5 53q0 56 -90 56h-82v-121zM307 320v-177h-68v414h157q76 0 113.5 -28.5t37.5 -90.5q0 -101 -108 -113l116 -182h-77l-107 177h-64z" />
    <glyph glyph-name="macron" unicode="&#xaf;" horiz-adv-x="150" 
d="M219 624h-288v65h288v-65z" />
    <glyph glyph-name="degree" unicode="&#xb0;" horiz-adv-x="392" 
d="M102 564q0 -39 27.5 -66.5t66.5 -27.5t66.5 27.5t27.5 66.5t-27.5 66.5t-66.5 27.5t-66.5 -27.5t-27.5 -66.5zM46 564q0 62 44 106t106 44t106 -44t44 -106t-44 -106t-106 -44t-106 44t-44 106z" />
    <glyph glyph-name="plusminus" unicode="&#xb1;" horiz-adv-x="586" 
d="M41 0v102h504v-102h-504zM242 381v125h102v-125h201v-102h-201v-125h-102v125h-201v102h201z" />
    <glyph glyph-name="twosuperior" unicode="&#xb2;" horiz-adv-x="355" 
d="M330 343v-70h-315q1 108 100 171q8 6 44 28.5t49 33t28.5 32t16.5 44.5q0 31 -21 46.5t-52 15.5q-67 0 -73 -93h-87q0 76 44 119.5t120 43.5q68 0 112 -32.5t44 -97.5q0 -76 -102 -141q-11 -7 -38 -24t-39 -25t-25.5 -22.5t-18.5 -28.5h213z" />
    <glyph glyph-name="threesuperior" unicode="&#xb3;" horiz-adv-x="349" 
d="M140 475v58q42 -2 71.5 13t29.5 48q0 24 -21 37t-48 13q-33 0 -54 -21.5t-19 -54.5h-80q3 69 44 107.5t110 38.5q63 0 105.5 -28.5t42.5 -87.5q0 -68 -64 -90v-2q38 -7 60 -35t22 -70q0 -64 -47 -100.5t-118 -36.5q-159 0 -164 155h80q-2 -36 20.5 -60.5t63.5 -24.5
q36 0 60.5 19.5t24.5 51.5q0 76 -119 70z" />
    <glyph glyph-name="acute" unicode="&#xb4;" horiz-adv-x="216" 
d="M40 589l90 143h135l-142 -143h-83z" />
    <glyph glyph-name="mu" unicode="&#xb5;" 
d="M503 517v-517h-112v72h-2q-21 -38 -60.5 -62t-75.5 -24q-59 0 -90 36v-213h-114v708h114v-317q0 -66 25 -95t74 -29q127 0 127 141v300h114z" />
    <glyph glyph-name="paragraph" unicode="&#xb6;" horiz-adv-x="586" 
d="M232 -160v504q-96 0 -155.5 51t-59.5 131q0 97 61.5 142.5t171.5 45.5h259v-874h-80v809h-117v-809h-80z" />
    <glyph glyph-name="periodcentered" unicode="&#xb7;" horiz-adv-x="263" 
d="M57 302q0 29 22.5 51.5t52.5 22.5t52.5 -22.5t22.5 -51.5q0 -30 -22.5 -53t-52.5 -23t-52.5 23t-22.5 53z" />
    <glyph glyph-name="cedilla" unicode="&#xb8;" horiz-adv-x="216" 
d="M-1 -200l18 40q35 -16 65 -16q61 0 61 41q0 18 -13.5 28t-32.5 10q-23 0 -39 -10l-22 19l66 88h48l-46 -59l1 -1q11 4 33 4q33 0 59 -19.5t26 -55.5q0 -46 -36 -69t-85 -23q-61 0 -103 23z" />
    <glyph glyph-name="onesuperior" unicode="&#xb9;" horiz-adv-x="369" 
d="M55 577v58q120 0 138 70h70v-432h-87v304h-121z" />
    <glyph glyph-name="ordmasculine" unicode="&#xba;" horiz-adv-x="359" 
d="M358 543q0 -79 -46 -124.5t-132 -45.5t-132 45.5t-46 124.5t46 125t132 46t132 -46t46 -125zM271 543q0 42 -24 74t-67 32q-44 0 -67.5 -32t-23.5 -74t24 -73.5t67 -31.5q44 0 66 31t25 74z" />
    <glyph glyph-name="guillemotright" unicode="&#xbb;" horiz-adv-x="440" 
d="M243 451l155 -123v-112l-155 -123v103l95 76l-95 76v103zM45 451l155 -123v-112l-155 -123v103l95 76l-95 76v103z" />
    <glyph glyph-name="onequarter" unicode="&#xbc;" horiz-adv-x="807" 
d="M129 -24l419 748h78l-418 -748h-79zM25 577v58q120 0 138 70h70v-432h-87v304h-121zM620 172v158h-2l-117 -158h119zM707 97v-97h-87v97h-195v81l185 250h97v-256h47v-75h-47z" />
    <glyph glyph-name="onehalf" unicode="&#xbd;" horiz-adv-x="826" 
d="M777 70v-70h-315q0 47 17.5 84t44 58t57.5 41t57.5 35t44 38.5t17.5 52.5q0 31 -20.5 49t-52.5 18q-67 0 -73 -98h-87q0 79 43 123.5t121 44.5q68 0 112 -34.5t44 -100.5q0 -46 -26.5 -77t-75.5 -64q-6 -4 -22 -13.5t-23 -13.5t-20 -12.5t-20 -14.5t-15.5 -14t-13 -16
t-7.5 -16h213zM25 577v58q120 0 138 70h70v-432h-87v304h-121zM126 -24l419 748h78l-418 -748h-79z" />
    <glyph glyph-name="threequarters" unicode="&#xbe;" horiz-adv-x="846" 
d="M151 474v58q41 -2 71 13.5t30 48.5q0 24 -21 37t-48 13q-33 0 -54 -21.5t-19 -54.5h-80q3 69 44 107.5t110 38.5q63 0 105.5 -28.5t42.5 -87.5q0 -68 -64 -90v-2q38 -7 60 -35t22 -70q0 -64 -47 -100.5t-118 -36.5q-159 0 -164 155h80q-2 -36 20.5 -60.5t63.5 -24.5
q36 0 60.5 19.5t24.5 51.5q0 75 -119 69zM201 -24l419 748h78l-418 -748h-79zM674 172v158h-2l-117 -158h119zM761 97v-97h-87v97h-195v81l183 250h99v-256h47v-75h-47z" />
    <glyph glyph-name="questiondown" unicode="&#xbf;" horiz-adv-x="524" 
d="M194 531h134v-125h-134v125zM377 39h114q0 -107 -65 -173t-175 -66q-94 0 -156 53t-62 144q0 44 14.5 77.5t29 48.5t44.5 40q33 28 47.5 43t27.5 48t13 78h108q0 -83 -17.5 -125t-60.5 -78q-4 -4 -15.5 -13.5t-15.5 -13t-13 -12.5t-13 -14t-9.5 -14.5t-8 -17.5
t-4.5 -19.5t-2 -23.5q0 -51 32 -78.5t66 -27.5q60 0 90.5 39t30.5 105z" />
    <glyph glyph-name="Agrave" unicode="&#xc0;" horiz-adv-x="666" 
d="M-8 0l274 714h133l275 -714h-134l-67 189h-285l-67 -189h-129zM330 591l-108 -307h218l-107 307h-3zM170 926h134l91 -143h-83z" />
    <glyph glyph-name="Aacute" unicode="&#xc1;" horiz-adv-x="666" 
d="M-8 0l274 714h133l275 -714h-134l-67 189h-285l-67 -189h-129zM330 591l-108 -307h218l-107 307h-3zM273 783l90 143h135l-142 -143h-83z" />
    <glyph glyph-name="Acircumflex" unicode="&#xc2;" horiz-adv-x="666" 
d="M-8 0l274 714h133l275 -714h-134l-67 189h-285l-67 -189h-129zM330 591l-108 -307h218l-107 307h-3zM331 873l-70 -90h-92l107 143h111l108 -143h-93z" />
    <glyph glyph-name="Atilde" unicode="&#xc3;" horiz-adv-x="666" 
d="M-8 0l274 714h133l275 -714h-134l-67 189h-285l-67 -189h-129zM330 591l-108 -307h218l-107 307h-3zM454 914h56q-9 -55 -33 -81q-28 -34 -78 -34q-31 0 -74 19q-43 18 -68 18q-35 0 -43 -41h-57q7 44 34.5 78.5t69.5 34.5q33 0 81 -20q42 -18 62 -18q39 0 50 44z" />
    <glyph glyph-name="Adieresis" unicode="&#xc4;" horiz-adv-x="666" 
d="M-8 0l274 714h133l275 -714h-134l-67 189h-285l-67 -189h-129zM330 591l-108 -307h218l-107 307h-3zM303 796h-114v108h114v-108zM361 904h114v-108h-114v108z" />
    <glyph glyph-name="Aring" unicode="&#xc5;" horiz-adv-x="666" 
d="M-8 0l274 714h133l275 -714h-134l-67 189h-285l-67 -189h-129zM330 591l-108 -307h218l-107 307h-3zM271 854q0 -26 17.5 -43.5t42.5 -17.5q26 0 43 17.5t17 43.5q0 27 -17 44t-43 17q-25 0 -42.5 -17t-17.5 -44zM331 751q-44 0 -74 29t-30 74t30.5 74t73.5 29t73.5 -29
t30.5 -74t-30.5 -74t-73.5 -29z" />
    <glyph glyph-name="AE" unicode="&#xc6;" horiz-adv-x="958" 
d="M-8 0l355 714h576v-108h-348v-187h326v-102h-326v-209h354v-108h-473v183h-239l-86 -183h-139zM420 606l-157 -328h193v328h-36z" />
    <glyph glyph-name="Ccedilla" unicode="&#xc7;" horiz-adv-x="698" 
d="M553 272h122q-8 -128 -89.5 -207t-207.5 -81l-32 -42v-2q8 3 33 3q33 0 59 -19.5t26 -54.5q0 -47 -35.5 -68.5t-85.5 -21.5q-65 0 -103 21l18 40q48 -16 65 -16q61 0 61 41q0 18 -13.5 28t-32.5 10q-23 0 -39 -10l-22 19l55 73q-139 14 -221 119.5t-82 252.5
q0 158 93.5 266t248.5 108q124 0 207.5 -65.5t95.5 -178.5h-125q-36 142 -178 142q-107 0 -162 -79.5t-55 -192.5t55 -192.5t162 -79.5q80 0 126.5 52t55.5 135z" />
    <glyph glyph-name="Egrave" unicode="&#xc8;" horiz-adv-x="619" 
d="M62 0v714h514v-108h-389v-187h360v-102h-360v-209h396v-108h-521zM175 926h134l91 -143h-83z" />
    <glyph glyph-name="Eacute" unicode="&#xc9;" horiz-adv-x="619" 
d="M62 0v714h514v-108h-389v-187h360v-102h-360v-209h396v-108h-521zM263 783l90 143h135l-142 -143h-83z" />
    <glyph glyph-name="Ecircumflex" unicode="&#xca;" horiz-adv-x="618" 
d="M61 0v714h514v-108h-389v-187h360v-102h-360v-209h396v-108h-521zM318 873l-70 -90h-92l107 143h111l108 -143h-93z" />
    <glyph glyph-name="Edieresis" unicode="&#xcb;" horiz-adv-x="618" 
d="M61 0v714h514v-108h-389v-187h360v-102h-360v-209h396v-108h-521zM292 796h-114v108h114v-108zM350 904h114v-108h-114v108z" />
    <glyph glyph-name="Igrave" unicode="&#xcc;" horiz-adv-x="250" 
d="M61 0v714h125v-714h-125zM-39 926h134l91 -143h-83z" />
    <glyph glyph-name="Iacute" unicode="&#xcd;" horiz-adv-x="251" 
d="M63 0v714h125v-714h-125zM64 783l90 143h135l-142 -143h-83z" />
    <glyph glyph-name="Icircumflex" unicode="&#xce;" horiz-adv-x="248" 
d="M61 0v714h125v-714h-125zM123 873l-70 -90h-92l107 143h111l108 -143h-93z" />
    <glyph glyph-name="Idieresis" unicode="&#xcf;" horiz-adv-x="233" 
d="M53 0v714h125v-714h-125zM87 796h-114v108h114v-108zM145 904h114v-108h-114v108z" />
    <glyph glyph-name="Eth" unicode="&#xd0;" horiz-adv-x="704" 
d="M186 612v-193h195v-102h-195v-215h123q71 0 119.5 19t73.5 55.5t35 79.5t10 101t-10 101t-35 79.5t-73.5 55.5t-119.5 19h-123zM61 0v317h-67v102h67v295h296q157 0 236 -99.5t79 -257.5t-79 -257.5t-236 -99.5h-296z" />
    <glyph glyph-name="Ntilde" unicode="&#xd1;" horiz-adv-x="701" 
d="M61 0v714h132l326 -526h2v526h119v-714h-132l-325 525h-3v-525h-119zM472 914h56q-9 -55 -33 -81q-28 -34 -78 -34q-31 0 -74 19q-43 18 -68 18q-35 0 -43 -41h-57q7 44 34.5 78.5t69.5 34.5q33 0 81 -20q42 -18 62 -18q39 0 50 44z" />
    <glyph glyph-name="Ograve" unicode="&#xd2;" horiz-adv-x="740" 
d="M370 629q-107 0 -162 -79.5t-55 -192.5t55 -192.5t162 -79.5t162 79.5t55 192.5t-55 192.5t-162 79.5zM370 731q155 0 248.5 -108t93.5 -266q0 -159 -93.5 -266.5t-248.5 -107.5t-248.5 107.5t-93.5 266.5q0 158 93.5 266t248.5 108zM179 926h134l91 -143h-83z" />
    <glyph glyph-name="Oacute" unicode="&#xd3;" horiz-adv-x="740" 
d="M370 629q-107 0 -162 -79.5t-55 -192.5t55 -192.5t162 -79.5t162 79.5t55 192.5t-55 192.5t-162 79.5zM370 731q155 0 248.5 -108t93.5 -266q0 -159 -93.5 -266.5t-248.5 -107.5t-248.5 107.5t-93.5 266.5q0 158 93.5 266t248.5 108zM323 783l90 143h135l-142 -143h-83z
" />
    <glyph glyph-name="Ocircumflex" unicode="&#xd4;" horiz-adv-x="740" 
d="M370 629q-107 0 -162 -79.5t-55 -192.5t55 -192.5t162 -79.5t162 79.5t55 192.5t-55 192.5t-162 79.5zM370 731q155 0 248.5 -108t93.5 -266q0 -159 -93.5 -266.5t-248.5 -107.5t-248.5 107.5t-93.5 266.5q0 158 93.5 266t248.5 108zM372 873l-70 -90h-92l107 143h111
l108 -143h-93z" />
    <glyph glyph-name="Otilde" unicode="&#xd5;" horiz-adv-x="740" 
d="M370 629q-107 0 -162 -79.5t-55 -192.5t55 -192.5t162 -79.5t162 79.5t55 192.5t-55 192.5t-162 79.5zM370 731q155 0 248.5 -108t93.5 -266q0 -159 -93.5 -266.5t-248.5 -107.5t-248.5 107.5t-93.5 266.5q0 158 93.5 266t248.5 108zM495 914h56q-9 -55 -33 -81
q-28 -34 -78 -34q-31 0 -74 19q-43 18 -68 18q-35 0 -43 -41h-57q7 44 34.5 78.5t69.5 34.5q33 0 81 -20q42 -18 62 -18q39 0 50 44z" />
    <glyph glyph-name="Odieresis" unicode="&#xd6;" horiz-adv-x="740" 
d="M370 629q-107 0 -162 -79.5t-55 -192.5t55 -192.5t162 -79.5t162 79.5t55 192.5t-55 192.5t-162 79.5zM370 731q155 0 248.5 -108t93.5 -266q0 -159 -93.5 -266.5t-248.5 -107.5t-248.5 107.5t-93.5 266.5q0 158 93.5 266t248.5 108zM342 796h-114v108h114v-108zM400 904
h114v-108h-114v108z" />
    <glyph glyph-name="multiply" unicode="&#xd7;" horiz-adv-x="610" 
d="M234 253l-174 174l86 56l158 -159l160 159l86 -56l-175 -174l175 -174l-86 -56l-160 160l-158 -160l-86 56z" />
    <glyph glyph-name="Oslash" unicode="&#xd8;" horiz-adv-x="738" 
d="M665 734l43 -36l-79 -89q81 -106 81 -252q0 -159 -93.5 -266.5t-248.5 -107.5q-132 0 -222 82l-76 -85l-42 36l79 90q-81 104 -81 251q0 158 93.5 266t248.5 108q133 0 222 -81zM548 518l-328 -370q58 -63 148 -63q107 0 162 79.5t55 192.5q0 97 -37 161zM187 196
l329 370q-53 63 -148 63q-107 0 -162 -79.5t-55 -192.5q0 -93 36 -161z" />
    <glyph glyph-name="Ugrave" unicode="&#xd9;" horiz-adv-x="701" 
d="M57 257v457h125v-416q0 -36 2 -59t11 -54.5t26 -49.5t49.5 -31t79.5 -13t79.5 13t49.5 31t26 49.5t11 54.5t2 59v416h125v-457q0 -134 -78.5 -204t-214.5 -70t-214.5 70t-78.5 204zM179 926h134l91 -143h-83z" />
    <glyph glyph-name="Uacute" unicode="&#xda;" horiz-adv-x="701" 
d="M57 257v457h125v-416q0 -36 2 -59t11 -54.5t26 -49.5t49.5 -31t79.5 -13t79.5 13t49.5 31t26 49.5t11 54.5t2 59v416h125v-457q0 -134 -78.5 -204t-214.5 -70t-214.5 70t-78.5 204zM297 783l90 143h135l-142 -143h-83z" />
    <glyph glyph-name="Ucircumflex" unicode="&#xdb;" horiz-adv-x="701" 
d="M57 257v457h125v-416q0 -36 2 -59t11 -54.5t26 -49.5t49.5 -31t79.5 -13t79.5 13t49.5 31t26 49.5t11 54.5t2 59v416h125v-457q0 -134 -78.5 -204t-214.5 -70t-214.5 70t-78.5 204zM351 873l-70 -90h-92l107 143h111l108 -143h-93z" />
    <glyph glyph-name="Udieresis" unicode="&#xdc;" horiz-adv-x="701" 
d="M57 257v457h125v-416q0 -36 2 -59t11 -54.5t26 -49.5t49.5 -31t79.5 -13t79.5 13t49.5 31t26 49.5t11 54.5t2 59v416h125v-457q0 -134 -78.5 -204t-214.5 -70t-214.5 70t-78.5 204zM320 796h-114v108h114v-108zM378 904h114v-108h-114v108z" />
    <glyph glyph-name="Yacute" unicode="&#xdd;" horiz-adv-x="625" 
d="M250 0v280l-268 434h145l189 -320l186 320h140l-267 -434v-280h-125zM271 783l90 143h135l-142 -143h-83z" />
    <glyph glyph-name="Thorn" unicode="&#xde;" horiz-adv-x="640" 
d="M187 504v-236h183q50 0 87.5 28t37.5 90q0 118 -123 118h-185zM62 0v714h125v-108h190q72 0 123 -21t75.5 -57t34.5 -70.5t10 -72.5t-10 -72.5t-34.5 -69.5t-75.5 -56t-123 -21h-190v-166h-125z" />
    <glyph glyph-name="germandbls" unicode="&#xdf;" horiz-adv-x="560" 
d="M50 0v523q0 96 61 152t158 56q86 0 149.5 -49t63.5 -131q0 -53 -26 -94.5t-76 -56.5v-2q61 -8 97.5 -57.5t36.5 -113.5q0 -106 -62.5 -173.5t-166.5 -67.5q-27 0 -56 3v90q11 -3 39 -3q42 0 70 14t40.5 39.5t17 49t4.5 53.5q0 66 -55 98q-39 25 -115 25v75q70 0 99 26
q39 31 39 84q0 101 -101 101q-43 0 -73 -29t-30 -101v-511h-114z" />
    <glyph glyph-name="agrave" unicode="&#xe0;" horiz-adv-x="552" 
d="M486 381v-266q0 -21 6 -30t21 -9h12q4 0 16 2v-79q-37 -13 -72 -13q-76 0 -88 63q-32 -31 -81 -47t-98 -16q-75 0 -126 39.5t-51 111.5q0 46 16.5 77.5t48.5 48t61 23.5t73 12q18 4 47 7t44.5 6t32 9.5t24 18.5t7.5 32q0 70 -107 70q-50 0 -80 -20.5t-34 -61.5h-114
q6 92 71.5 132t163.5 40q85 0 146 -37t61 -113zM372 174v85q-16 -10 -37 -15.5t-55.5 -9.5t-47.5 -6q-43 -7 -68 -26t-25 -60q0 -35 33 -50.5t72 -15.5q46 0 87 24.5t41 73.5zM122 732h134l91 -143h-83z" />
    <glyph glyph-name="aacute" unicode="&#xe1;" horiz-adv-x="552" 
d="M486 381v-266q0 -21 6 -30t21 -9h12q4 0 16 2v-79q-37 -13 -72 -13q-76 0 -88 63q-32 -31 -81 -47t-98 -16q-75 0 -126 39.5t-51 111.5q0 46 16.5 77.5t48.5 48t61 23.5t73 12q18 4 47 7t44.5 6t32 9.5t24 18.5t7.5 32q0 70 -107 70q-50 0 -80 -20.5t-34 -61.5h-114
q6 92 71.5 132t163.5 40q85 0 146 -37t61 -113zM372 174v85q-16 -10 -37 -15.5t-55.5 -9.5t-47.5 -6q-43 -7 -68 -26t-25 -60q0 -35 33 -50.5t72 -15.5q46 0 87 24.5t41 73.5zM217 589l90 143h135l-142 -143h-83z" />
    <glyph glyph-name="acircumflex" unicode="&#xe2;" horiz-adv-x="552" 
d="M486 381v-266q0 -21 6 -30t21 -9h12q4 0 16 2v-79q-37 -13 -72 -13q-76 0 -88 63q-32 -31 -81 -47t-98 -16q-75 0 -126 39.5t-51 111.5q0 46 16.5 77.5t48.5 48t61 23.5t73 12q18 4 47 7t44.5 6t32 9.5t24 18.5t7.5 32q0 70 -107 70q-50 0 -80 -20.5t-34 -61.5h-114
q6 92 71.5 132t163.5 40q85 0 146 -37t61 -113zM372 174v85q-16 -10 -37 -15.5t-55.5 -9.5t-47.5 -6q-43 -7 -68 -26t-25 -60q0 -35 33 -50.5t72 -15.5q46 0 87 24.5t41 73.5zM277 679l-70 -90h-92l107 143h111l108 -143h-93z" />
    <glyph glyph-name="atilde" unicode="&#xe3;" horiz-adv-x="552" 
d="M486 381v-266q0 -21 6 -30t21 -9h12q4 0 16 2v-79q-37 -13 -72 -13q-76 0 -88 63q-32 -31 -81 -47t-98 -16q-75 0 -126 39.5t-51 111.5q0 46 16.5 77.5t48.5 48t61 23.5t73 12q18 4 47 7t44.5 6t32 9.5t24 18.5t7.5 32q0 70 -107 70q-50 0 -80 -20.5t-34 -61.5h-114
q6 92 71.5 132t163.5 40q85 0 146 -37t61 -113zM372 174v85q-16 -10 -37 -15.5t-55.5 -9.5t-47.5 -6q-43 -7 -68 -26t-25 -60q0 -35 33 -50.5t72 -15.5q46 0 87 24.5t41 73.5zM398 720h56q-9 -55 -33 -81q-28 -34 -78 -34q-31 0 -74 19q-43 18 -68 18q-35 0 -43 -41h-57
q7 44 34.5 78.5t69.5 34.5q33 0 81 -20q42 -18 62 -18q39 0 50 44z" />
    <glyph glyph-name="adieresis" unicode="&#xe4;" horiz-adv-x="552" 
d="M486 381v-266q0 -21 6 -30t21 -9h12q4 0 16 2v-79q-37 -13 -72 -13q-76 0 -88 63q-32 -31 -81 -47t-98 -16q-75 0 -126 39.5t-51 111.5q0 46 16.5 77.5t48.5 48t61 23.5t73 12q18 4 47 7t44.5 6t32 9.5t24 18.5t7.5 32q0 70 -107 70q-50 0 -80 -20.5t-34 -61.5h-114
q6 92 71.5 132t163.5 40q85 0 146 -37t61 -113zM372 174v85q-16 -10 -37 -15.5t-55.5 -9.5t-47.5 -6q-43 -7 -68 -26t-25 -60q0 -35 33 -50.5t72 -15.5q46 0 87 24.5t41 73.5zM246 602h-114v108h114v-108zM304 710h114v-108h-114v108z" />
    <glyph glyph-name="aring" unicode="&#xe5;" horiz-adv-x="552" 
d="M486 381v-266q0 -21 6 -30t21 -9h12q4 0 16 2v-79q-37 -13 -72 -13q-76 0 -88 63q-32 -31 -81 -47t-98 -16q-75 0 -126 39.5t-51 111.5q0 46 16.5 77.5t48.5 48t61 23.5t73 12q18 4 47 7t44.5 6t32 9.5t24 18.5t7.5 32q0 70 -107 70q-50 0 -80 -20.5t-34 -61.5h-114
q6 92 71.5 132t163.5 40q85 0 146 -37t61 -113zM372 174v85q-16 -10 -37 -15.5t-55.5 -9.5t-47.5 -6q-43 -7 -68 -26t-25 -60q0 -35 33 -50.5t72 -15.5q46 0 87 24.5t41 73.5zM215 674q0 -26 17.5 -43.5t42.5 -17.5q26 0 43 17.5t17 43.5q0 27 -17 44t-43 17
q-25 0 -42.5 -17t-17.5 -44zM275 571q-44 0 -74 29t-30 74t30.5 74t73.5 29t73.5 -29t30.5 -74t-30.5 -74t-73.5 -29z" />
    <glyph glyph-name="ae" unicode="&#xe6;" horiz-adv-x="886" 
d="M740 163h114q-22 -83 -84.5 -130t-149.5 -47q-136 0 -190 95q-63 -95 -215 -95q-82 0 -134.5 39t-52.5 112q0 46 16.5 77.5t48.5 48t61 23.5t73 12q16 3 39 6t36.5 5t29.5 6.5t24 10.5t14 17.5t6 27.5q0 70 -101 70q-50 0 -80 -20.5t-34 -61.5h-114q6 92 71 132t161 40
q126 0 175 -70q54 70 164 70q128 0 188.5 -83.5t51.5 -218.5h-375q0 -65 34 -109t101 -44q92 0 122 87zM375 180v77q-10 -10 -30.5 -15t-58 -8.5t-50.5 -5.5q-44 -7 -69 -26t-25 -60q0 -36 30.5 -51t73.5 -15q51 0 90 28t39 76zM483 304h261q1 63 -34 100t-97 37
q-58 0 -92 -39t-38 -98z" />
    <glyph glyph-name="ccedilla" unicode="&#xe7;" horiz-adv-x="539" 
d="M167 -200l18 40q35 -16 65 -16q61 0 61 41q0 18 -13.5 28t-32.5 10q-23 0 -39 -10l-22 19l56 75q-50 3 -88 19q-69 31 -106 95.5t-37 151.5q0 123 66 200.5t189 77.5q95 0 160 -48t73 -139h-114q-7 47 -38 72t-80 25q-25 0 -47.5 -8t-45 -27t-36 -58.5t-13.5 -94.5
q0 -73 34 -125t103 -52q50 0 82.5 31t40.5 87h114q-17 -102 -77 -155q-50 -44 -132 -52l-36 -46l1 -1q11 4 33 4q33 0 59 -19.5t26 -55.5q0 -46 -36 -69t-85 -23q-61 0 -103 23z" />
    <glyph glyph-name="egrave" unicode="&#xe8;" 
d="M140 304h266q-4 57 -39 97t-91 40q-58 0 -96 -39t-40 -98zM520 229h-380q0 -65 35.5 -109t103.5 -44q96 0 126 86h108q-18 -83 -82.5 -129.5t-151.5 -46.5q-120 0 -186.5 74.5t-66.5 197.5q0 114 69 193.5t181 79.5q119 0 189 -91t55 -211zM108 732h134l91 -143h-83z" />
    <glyph glyph-name="eacute" unicode="&#xe9;" 
d="M140 304h266q-4 57 -39 97t-91 40q-58 0 -96 -39t-40 -98zM520 229h-380q0 -65 35.5 -109t103.5 -44q96 0 126 86h108q-18 -83 -82.5 -129.5t-151.5 -46.5q-120 0 -186.5 74.5t-66.5 197.5q0 114 69 193.5t181 79.5q119 0 189 -91t55 -211zM230 589l90 143h135l-142 -143
h-83z" />
    <glyph glyph-name="ecircumflex" unicode="&#xea;" horiz-adv-x="550" 
d="M139 304h266q-4 57 -39 97t-91 40q-58 0 -96 -39t-40 -98zM519 229h-380q0 -65 35.5 -109t103.5 -44q96 0 126 86h108q-18 -83 -82.5 -129.5t-151.5 -46.5q-120 0 -186.5 74.5t-66.5 197.5q0 114 69 193.5t181 79.5q119 0 189 -91t55 -211zM276 679l-70 -90h-92l107 143
h111l108 -143h-93z" />
    <glyph glyph-name="edieresis" unicode="&#xeb;" horiz-adv-x="550" 
d="M139 304h266q-4 57 -39 97t-91 40q-58 0 -96 -39t-40 -98zM519 229h-380q0 -65 35.5 -109t103.5 -44q96 0 126 86h108q-18 -83 -82.5 -129.5t-151.5 -46.5q-120 0 -186.5 74.5t-66.5 197.5q0 114 69 193.5t181 79.5q119 0 189 -91t55 -211zM246 602h-114v108h114v-108z
M304 710h114v-108h-114v108z" />
    <glyph glyph-name="igrave" unicode="&#xec;" horiz-adv-x="216" 
d="M164 0h-114v517h114v-517zM-61 732h134l91 -143h-83z" />
    <glyph glyph-name="iacute" unicode="&#xed;" horiz-adv-x="215" 
d="M165 0h-114v517h114v-517zM51 589l90 143h135l-142 -143h-83z" />
    <glyph glyph-name="icircumflex" unicode="&#xee;" horiz-adv-x="213" 
d="M165 0h-114v517h114v-517zM108 679l-70 -90h-92l107 143h111l108 -143h-93z" />
    <glyph glyph-name="idieresis" unicode="&#xef;" horiz-adv-x="198" 
d="M156 0h-114v517h114v-517zM71 602h-114v108h114v-108zM129 710h114v-108h-114v108z" />
    <glyph glyph-name="eth" unicode="&#xf0;" horiz-adv-x="567" 
d="M180 541l-50 49l96 46q-72 30 -85 34l76 61q52 -17 104 -50l105 50l49 -49l-94 -45q155 -129 155 -328q0 -144 -65.5 -233.5t-203.5 -89.5q-112 0 -175.5 73.5t-63.5 192.5q0 103 61.5 178.5t161.5 75.5q81 0 143 -44h2q-29 64 -108 131zM285 416q-75 0 -109 -47.5
t-34 -123.5q0 -73 33.5 -121t98.5 -48q66 0 107 51t41 118q0 71 -35 121t-102 50z" />
    <glyph glyph-name="ntilde" unicode="&#xf1;" 
d="M48 0v517h108v-76l2 -2q27 43 69 67.5t92 24.5q86 0 134.5 -45t48.5 -131v-355h-114v325q-2 61 -26 88.5t-75 27.5q-56 0 -90.5 -39t-34.5 -97v-305h-114zM395 720h56q-9 -55 -33 -81q-28 -34 -78 -34q-31 0 -74 19q-43 18 -68 18q-35 0 -43 -41h-57q7 44 34.5 78.5
t69.5 34.5q33 0 81 -20q42 -18 62 -18q39 0 50 44z" />
    <glyph glyph-name="ograve" unicode="&#xf2;" horiz-adv-x="578" 
d="M289 -14q-121 0 -191 75.5t-70 197.5q0 120 70 196t191 76t191 -76t70 -196q0 -122 -70 -197.5t-191 -75.5zM289 76q72 0 109.5 54t37.5 129q0 74 -37.5 128t-109.5 54t-109.5 -54t-37.5 -128q0 -75 37.5 -129t109.5 -54zM116 732h134l91 -143h-83z" />
    <glyph glyph-name="oacute" unicode="&#xf3;" horiz-adv-x="578" 
d="M289 -14q-121 0 -191 75.5t-70 197.5q0 120 70 196t191 76t191 -76t70 -196q0 -122 -70 -197.5t-191 -75.5zM289 76q72 0 109.5 54t37.5 129q0 74 -37.5 128t-109.5 54t-109.5 -54t-37.5 -128q0 -75 37.5 -129t109.5 -54zM232 589l90 143h135l-142 -143h-83z" />
    <glyph glyph-name="ocircumflex" unicode="&#xf4;" horiz-adv-x="577" 
d="M288 -14q-121 0 -191 75.5t-70 197.5q0 120 70 196t191 76t191 -76t70 -196q0 -122 -70 -197.5t-191 -75.5zM288 76q72 0 109.5 54t37.5 129q0 74 -37.5 128t-109.5 54t-109.5 -54t-37.5 -128q0 -75 37.5 -129t109.5 -54zM289 679l-70 -90h-92l107 143h111l108 -143h-93z
" />
    <glyph glyph-name="otilde" unicode="&#xf5;" horiz-adv-x="577" 
d="M288 -14q-121 0 -191 75.5t-70 197.5q0 120 70 196t191 76t191 -76t70 -196q0 -122 -70 -197.5t-191 -75.5zM288 76q72 0 109.5 54t37.5 129q0 74 -37.5 128t-109.5 54t-109.5 -54t-37.5 -128q0 -75 37.5 -129t109.5 -54zM411 720h56q-9 -55 -33 -81q-28 -34 -78 -34
q-31 0 -74 19q-43 18 -68 18q-35 0 -43 -41h-57q7 44 34.5 78.5t69.5 34.5q33 0 81 -20q42 -18 62 -18q39 0 50 44z" />
    <glyph glyph-name="odieresis" unicode="&#xf6;" horiz-adv-x="577" 
d="M288 -14q-121 0 -191 75.5t-70 197.5q0 120 70 196t191 76t191 -76t70 -196q0 -122 -70 -197.5t-191 -75.5zM288 76q72 0 109.5 54t37.5 129q0 74 -37.5 128t-109.5 54t-109.5 -54t-37.5 -128q0 -75 37.5 -129t109.5 -54zM261 602h-114v108h114v-108zM319 710h114v-108
h-114v108z" />
    <glyph glyph-name="divide" unicode="&#xf7;" horiz-adv-x="586" 
d="M294 -25q-29 0 -51 21.5t-22 50.5q0 30 21.5 51t50.5 21t50.5 -21.5t21.5 -50.5q0 -27 -21.5 -49.5t-49.5 -22.5zM294 387q-29 0 -51 21.5t-22 50.5q0 30 21.5 51t50.5 21t50.5 -21.5t21.5 -50.5q0 -27 -21.5 -49.5t-49.5 -22.5zM545 202h-504v102h504v-102z" />
    <glyph glyph-name="oslash" unicode="&#xf8;" horiz-adv-x="585" 
d="M168 155l223 244q-37 42 -99 42q-72 0 -109.5 -54t-37.5 -128q0 -59 23 -104zM59 -28l-32 28l65 72q-61 73 -61 187q0 120 70 196t191 76q102 0 170 -55l63 69l32 -28l-65 -71q61 -74 61 -187q0 -122 -70 -197.5t-191 -75.5q-102 0 -169 56zM416 362l-223 -244
q37 -42 99 -42q72 0 109.5 54t37.5 129q0 58 -23 103z" />
    <glyph glyph-name="ugrave" unicode="&#xf9;" 
d="M503 517v-517h-112v72h-2q-21 -38 -62.5 -62t-84.5 -24q-101 0 -147 50t-46 153v328h114v-317q0 -66 25 -95t74 -29q127 0 127 141v300h114zM102 732h134l91 -143h-83z" />
    <glyph glyph-name="uacute" unicode="&#xfa;" 
d="M503 517v-517h-112v72h-2q-21 -38 -62.5 -62t-84.5 -24q-101 0 -147 50t-46 153v328h114v-317q0 -66 25 -95t74 -29q127 0 127 141v300h114zM230 589l90 143h135l-142 -143h-83z" />
    <glyph glyph-name="ucircumflex" unicode="&#xfb;" 
d="M502 517v-517h-112v72h-2q-21 -38 -62.5 -62t-84.5 -24q-101 0 -147 50t-46 153v328h114v-317q0 -66 25 -95t74 -29q127 0 127 141v300h114zM275 679l-70 -90h-92l107 143h111l108 -143h-93z" />
    <glyph glyph-name="udieresis" unicode="&#xfc;" 
d="M502 517v-517h-112v72h-2q-21 -38 -62.5 -62t-84.5 -24q-101 0 -147 50t-46 153v328h114v-317q0 -66 25 -95t74 -29q127 0 127 141v300h114zM245 602h-114v108h114v-108zM303 710h114v-108h-114v108z" />
    <glyph glyph-name="yacute" unicode="&#xfd;" horiz-adv-x="518" 
d="M199 2l-196 515h125l135 -386h2l131 386h119l-201 -545q-35 -88 -54 -115q-44 -62 -129 -62q-40 0 -79 6v96q44 -7 54 -7q36 0 52.5 17.5t27.5 54.5zM221 589l90 143h135l-142 -143h-83z" />
    <glyph glyph-name="thorn" unicode="&#xfe;" horiz-adv-x="590" 
d="M447 258q0 75 -38 129t-105 54q-71 0 -108 -49t-37 -134q0 -80 39 -131t106 -51q72 0 107.5 53t35.5 129zM49 -191v905h114v-264h2q24 37 66.5 59t87.5 22q117 0 179.5 -77.5t62.5 -197.5q0 -113 -57.5 -191.5t-165.5 -78.5q-53 0 -101 20t-72 61h-2v-258h-114z" />
    <glyph glyph-name="ydieresis" unicode="&#xff;" horiz-adv-x="518" 
d="M199 2l-196 515h125l135 -386h2l131 386h119l-201 -545q-35 -88 -54 -115q-44 -62 -129 -62q-40 0 -79 6v96q44 -7 54 -7q36 0 52.5 17.5t27.5 54.5zM236 602h-114v108h114v-108zM294 710h114v-108h-114v108z" />
    <glyph glyph-name="Amacron" unicode="&#x100;" horiz-adv-x="666" 
d="M-8 0l274 714h133l275 -714h-134l-67 189h-285l-67 -189h-129zM330 591l-108 -307h218l-107 307h-3zM476 818h-288v65h288v-65z" />
    <glyph glyph-name="amacron" unicode="&#x101;" horiz-adv-x="552" 
d="M486 381v-266q0 -21 6 -30t21 -9h12q4 0 16 2v-79q-37 -13 -72 -13q-76 0 -88 63q-32 -31 -81 -47t-98 -16q-75 0 -126 39.5t-51 111.5q0 46 16.5 77.5t48.5 48t61 23.5t73 12q18 4 47 7t44.5 6t32 9.5t24 18.5t7.5 32q0 70 -107 70q-50 0 -80 -20.5t-34 -61.5h-114
q6 92 71.5 132t163.5 40q85 0 146 -37t61 -113zM372 174v85q-16 -10 -37 -15.5t-55.5 -9.5t-47.5 -6q-43 -7 -68 -26t-25 -60q0 -35 33 -50.5t72 -15.5q46 0 87 24.5t41 73.5zM418 624h-288v65h288v-65z" />
    <glyph glyph-name="Abreve" unicode="&#x102;" horiz-adv-x="666" 
d="M-8 0l274 714h133l275 -714h-134l-67 189h-285l-67 -189h-129zM330 591l-108 -307h218l-107 307h-3zM171 925h58q15 -76 107 -76q39 0 66 19.5t35 56.5h57q-8 -70 -51.5 -105.5t-114.5 -35.5q-69 0 -110 36t-47 105z" />
    <glyph glyph-name="abreve" unicode="&#x103;" horiz-adv-x="552" 
d="M486 381v-266q0 -21 6 -30t21 -9h12q4 0 16 2v-79q-37 -13 -72 -13q-76 0 -88 63q-32 -31 -81 -47t-98 -16q-75 0 -126 39.5t-51 111.5q0 46 16.5 77.5t48.5 48t61 23.5t73 12q18 4 47 7t44.5 6t32 9.5t24 18.5t7.5 32q0 70 -107 70q-50 0 -80 -20.5t-34 -61.5h-114
q6 92 71.5 132t163.5 40q85 0 146 -37t61 -113zM372 174v85q-16 -10 -37 -15.5t-55.5 -9.5t-47.5 -6q-43 -7 -68 -26t-25 -60q0 -35 33 -50.5t72 -15.5q46 0 87 24.5t41 73.5zM112 731h58q15 -76 107 -76q39 0 66 19.5t35 56.5h57q-8 -70 -51.5 -105.5t-114.5 -35.5
q-69 0 -110 36t-47 105z" />
    <glyph glyph-name="Aogonek" unicode="&#x104;" horiz-adv-x="666" 
d="M674 0h-80q-54 -43 -74 -71t-20 -58q0 -20 11.5 -32t27.5 -12q31 0 52 34l41 -9q-20 -75 -105 -75q-12 0 -24.5 2.5t-32 10t-32 27.5t-12.5 50q0 65 114 133l-67 189h-285l-67 -189h-129l274 714h133zM330 591l-108 -307h218l-107 307h-3z" />
    <glyph glyph-name="aogonek" unicode="&#x105;" horiz-adv-x="552" 
d="M486 381v-266q0 -21 6 -30t21 -9h12q4 0 16 2v-79q-37 -13 -72 -13h-1q-5 -4 -14.5 -12.5t-14.5 -12.5q-47 -47 -47 -90q0 -20 11.5 -32t27.5 -12q31 0 52 34l41 -9q-20 -75 -105 -75q-12 0 -24.5 2.5t-32 10t-32 27.5t-12.5 50q0 43 49 87q17 17 55 40q-8 4 -11 6
q-22 13 -30 49q-32 -31 -81 -47t-98 -16q-75 0 -126 39.5t-51 111.5q0 46 16.5 77.5t48.5 48t61 23.5t73 12q18 4 47 7t44.5 6t32 9.5t24 18.5t7.5 32q0 70 -107 70q-50 0 -80 -20.5t-34 -61.5h-114q6 92 71.5 132t163.5 40q85 0 146 -37t61 -113zM372 174v85
q-16 -10 -37 -15.5t-55.5 -9.5t-47.5 -6q-43 -7 -68 -26t-25 -60q0 -35 33 -50.5t72 -15.5q46 0 87 24.5t41 73.5z" />
    <glyph glyph-name="Cacute" unicode="&#x106;" horiz-adv-x="698" 
d="M675 487h-125q-36 142 -178 142q-107 0 -162 -79.5t-55 -192.5t55 -192.5t162 -79.5q80 0 126.5 52t55.5 135h122q-8 -129 -91.5 -209t-212.5 -80q-155 0 -248.5 107.5t-93.5 266.5q0 158 93.5 266t248.5 108q124 0 207.5 -65.5t95.5 -178.5zM321 783l90 143h135
l-142 -143h-83z" />
    <glyph glyph-name="cacute" unicode="&#x107;" horiz-adv-x="540" 
d="M518 344h-114q-7 47 -38 72t-80 25q-25 0 -47.5 -8t-45 -27t-36 -58.5t-13.5 -94.5q0 -73 34 -125t103 -52q50 0 82.5 31t40.5 87h114q-16 -101 -76.5 -154.5t-160.5 -53.5q-118 0 -184.5 74.5t-66.5 192.5q0 123 66 200.5t189 77.5q95 0 160 -48t73 -139zM236 589
l90 143h135l-142 -143h-83z" />
    <glyph glyph-name="Ccircumflex" unicode="&#x108;" horiz-adv-x="698" 
d="M674 487h-125q-36 142 -178 142q-107 0 -162 -79.5t-55 -192.5t55 -192.5t162 -79.5q80 0 126.5 52t55.5 135h122q-8 -129 -91.5 -209t-212.5 -80q-155 0 -248.5 107.5t-93.5 266.5q0 158 93.5 266t248.5 108q124 0 207.5 -65.5t95.5 -178.5zM372 873l-70 -90h-92
l107 143h111l108 -143h-93z" />
    <glyph glyph-name="ccircumflex" unicode="&#x109;" horiz-adv-x="539" 
d="M517 344h-114q-7 47 -38 72t-80 25q-25 0 -47.5 -8t-45 -27t-36 -58.5t-13.5 -94.5q0 -73 34 -125t103 -52q50 0 82.5 31t40.5 87h114q-16 -101 -76.5 -154.5t-160.5 -53.5q-118 0 -184.5 74.5t-66.5 192.5q0 123 66 200.5t189 77.5q95 0 160 -48t73 -139zM285 679
l-70 -90h-92l107 143h111l108 -143h-93z" />
    <glyph glyph-name="Cdotaccent" unicode="&#x10a;" horiz-adv-x="698" 
d="M674 487h-125q-36 142 -178 142q-107 0 -162 -79.5t-55 -192.5t55 -192.5t162 -79.5q80 0 126.5 52t55.5 135h122q-8 -129 -91.5 -209t-212.5 -80q-155 0 -248.5 107.5t-93.5 266.5q0 158 93.5 266t248.5 108q124 0 207.5 -65.5t95.5 -178.5zM427 796h-114v108h114v-108z
" />
    <glyph glyph-name="cdotaccent" unicode="&#x10b;" horiz-adv-x="539" 
d="M517 344h-114q-7 47 -38 72t-80 25q-25 0 -47.5 -8t-45 -27t-36 -58.5t-13.5 -94.5q0 -73 34 -125t103 -52q50 0 82.5 31t40.5 87h114q-16 -101 -76.5 -154.5t-160.5 -53.5q-118 0 -184.5 74.5t-66.5 192.5q0 123 66 200.5t189 77.5q95 0 160 -48t73 -139zM339 602h-114
v108h114v-108z" />
    <glyph glyph-name="Ccaron" unicode="&#x10c;" horiz-adv-x="698" 
d="M674 487h-125q-36 142 -178 142q-107 0 -162 -79.5t-55 -192.5t55 -192.5t162 -79.5q80 0 126.5 52t55.5 135h122q-8 -129 -91.5 -209t-212.5 -80q-155 0 -248.5 107.5t-93.5 266.5q0 158 93.5 266t248.5 108q124 0 207.5 -65.5t95.5 -178.5zM532 926l-108 -143h-111
l-107 143h92l70 -89l71 89h93z" />
    <glyph glyph-name="ccaron" unicode="&#x10d;" horiz-adv-x="539" 
d="M517 344h-114q-7 47 -38 72t-80 25q-25 0 -47.5 -8t-45 -27t-36 -58.5t-13.5 -94.5q0 -73 34 -125t103 -52q50 0 82.5 31t40.5 87h114q-16 -101 -76.5 -154.5t-160.5 -53.5q-118 0 -184.5 74.5t-66.5 192.5q0 123 66 200.5t189 77.5q95 0 160 -48t73 -139zM447 732
l-108 -143h-111l-107 143h92l70 -89l71 89h93z" />
    <glyph glyph-name="Dcaron" unicode="&#x10e;" horiz-adv-x="704" 
d="M61 0v714h296q157 0 236 -99.5t79 -257.5t-79 -257.5t-236 -99.5h-296zM186 612v-510h123q71 0 119.5 19t73.5 55.5t35 79.5t10 101t-10 101t-35 79.5t-73.5 55.5t-119.5 19h-123zM475 926l-108 -143h-111l-107 143h92l70 -89l71 89h93z" />
    <glyph glyph-name="dcaron" unicode="&#x10f;" horiz-adv-x="684" 
d="M545 714v-714h-108v70h-2q-43 -84 -160 -84q-118 0 -180 77t-62 199q0 132 65.5 200.5t158.5 68.5q52 0 99.5 -20.5t72.5 -60.5h2v264h114zM147 253q0 -73 36.5 -125t106.5 -52q71 0 108 54t37 129q0 86 -38.5 134t-104.5 48q-74 0 -109.5 -55t-35.5 -133zM594 571
l32 143h125l-81 -143h-76z" />
    <glyph glyph-name="Dcroat" unicode="&#x110;" horiz-adv-x="704" 
d="M186 612v-193h195v-102h-195v-215h123q71 0 119.5 19t73.5 55.5t35 79.5t10 101t-10 101t-35 79.5t-73.5 55.5t-119.5 19h-123zM61 0v317h-67v102h67v295h296q157 0 236 -99.5t79 -257.5t-79 -257.5t-236 -99.5h-296z" />
    <glyph glyph-name="dcroat" unicode="&#x111;" horiz-adv-x="617" 
d="M545 584v-584h-108v70h-2q-43 -84 -160 -84q-118 0 -180 77t-62 199q0 132 65.5 200.5t158.5 68.5q52 0 99.5 -20.5t72.5 -60.5h2v134h-153v65h153v65h114v-65h79v-65h-79zM147 253q0 -73 36.5 -125t106.5 -52q71 0 108 54t37 129q0 86 -38.5 134t-104.5 48
q-74 0 -109.5 -55t-35.5 -133z" />
    <glyph glyph-name="Emacron" unicode="&#x112;" horiz-adv-x="619" 
d="M62 0v714h514v-108h-389v-187h360v-102h-360v-209h396v-108h-521zM464 818h-288v65h288v-65z" />
    <glyph glyph-name="emacron" unicode="&#x113;" horiz-adv-x="550" 
d="M139 304h266q-4 57 -39 97t-91 40q-58 0 -96 -39t-40 -98zM519 229h-380q0 -65 35.5 -109t103.5 -44q96 0 126 86h108q-18 -83 -82.5 -129.5t-151.5 -46.5q-120 0 -186.5 74.5t-66.5 197.5q0 114 69 193.5t181 79.5q119 0 189 -91t55 -211zM419 624h-288v65h288v-65z" />
    <glyph glyph-name="Ebreve" unicode="&#x114;" horiz-adv-x="619" 
d="M62 0v714h514v-108h-389v-187h360v-102h-360v-209h396v-108h-521zM155 925h58q15 -76 107 -76q39 0 66 19.5t35 56.5h57q-8 -70 -51.5 -105.5t-114.5 -35.5q-69 0 -110 36t-47 105z" />
    <glyph glyph-name="ebreve" unicode="&#x115;" 
d="M140 304h266q-4 57 -39 97t-91 40q-58 0 -96 -39t-40 -98zM520 229h-380q0 -65 35.5 -109t103.5 -44q96 0 126 86h108q-18 -83 -82.5 -129.5t-151.5 -46.5q-120 0 -186.5 74.5t-66.5 197.5q0 114 69 193.5t181 79.5q119 0 189 -91t55 -211zM113 731h58q15 -76 107 -76
q39 0 66 19.5t35 56.5h57q-8 -70 -51.5 -105.5t-114.5 -35.5q-69 0 -110 36t-47 105z" />
    <glyph glyph-name="Edotaccent" unicode="&#x116;" horiz-adv-x="618" 
d="M61 0v714h514v-108h-389v-187h360v-102h-360v-209h396v-108h-521zM375 796h-114v108h114v-108z" />
    <glyph glyph-name="edotaccent" unicode="&#x117;" horiz-adv-x="550" 
d="M139 304h266q-4 57 -39 97t-91 40q-58 0 -96 -39t-40 -98zM519 229h-380q0 -65 35.5 -109t103.5 -44q96 0 126 86h108q-18 -83 -82.5 -129.5t-151.5 -46.5q-120 0 -186.5 74.5t-66.5 197.5q0 114 69 193.5t181 79.5q119 0 189 -91t55 -211zM334 602h-114v108h114v-108z
" />
    <glyph glyph-name="Eogonek" unicode="&#x118;" horiz-adv-x="618" 
d="M582 0h-38q-54 -43 -74 -71t-20 -58q0 -20 11.5 -32t27.5 -12q31 0 52 34l41 -9q-20 -75 -105 -75q-12 0 -24.5 2.5t-32 10t-32 27.5t-12.5 50q0 65 114 133h-429v714h514v-108h-389v-187h360v-102h-360v-209h396v-108z" />
    <glyph glyph-name="eogonek" unicode="&#x119;" horiz-adv-x="550" 
d="M519 229h-380q0 -65 35.5 -109t103.5 -44q96 0 126 86h108q-13 -62 -54 -104.5t-100 -59.5q-20 -6 -35 -8q-26 -22 -33 -29q-47 -47 -47 -90q0 -20 11.5 -32t27.5 -12q31 0 52 34l41 -9q-20 -75 -105 -75q-12 0 -24.5 2.5t-32 10t-32 27.5t-12.5 50q0 43 49 87
q16 15 42 33q-47 1 -90 19q-70 30 -107.5 95.5t-37.5 156.5q0 114 69 193.5t181 79.5q119 0 189 -91t55 -211zM139 304h266q-4 57 -39 97t-91 40q-58 0 -96 -39t-40 -98z" />
    <glyph glyph-name="Ecaron" unicode="&#x11a;" horiz-adv-x="618" 
d="M61 0v714h514v-108h-389v-187h360v-102h-360v-209h396v-108h-521zM480 926l-108 -143h-111l-107 143h92l70 -89l71 89h93z" />
    <glyph glyph-name="ecaron" unicode="&#x11b;" horiz-adv-x="550" 
d="M139 304h266q-4 57 -39 97t-91 40q-58 0 -96 -39t-40 -98zM519 229h-380q0 -65 35.5 -109t103.5 -44q96 0 126 86h108q-18 -83 -82.5 -129.5t-151.5 -46.5q-120 0 -186.5 74.5t-66.5 197.5q0 114 69 193.5t181 79.5q119 0 189 -91t55 -211zM436 732l-108 -143h-111
l-107 143h92l70 -89l71 89h93z" />
    <glyph glyph-name="Gcircumflex" unicode="&#x11c;" horiz-adv-x="731" 
d="M685 376v-376h-80l-19 84q-49 -56 -98.5 -78.5t-116.5 -22.5q-155 0 -248.5 107.5t-93.5 266.5q0 158 93.5 266t248.5 108q121 0 206.5 -64t99.5 -180h-122q-9 67 -61 104.5t-123 37.5q-107 0 -162 -79.5t-55 -192.5t55 -192.5t162 -79.5q95 -2 146.5 50.5t53.5 145.5
h-190v95h304zM374 873l-70 -90h-92l107 143h111l108 -143h-93z" />
    <glyph glyph-name="gcircumflex" unicode="&#x11d;" horiz-adv-x="580" 
d="M530 517v-490q0 -116 -65 -174t-189 -58q-57 0 -104.5 14t-84.5 52t-42 95h114q10 -45 41.5 -60.5t82.5 -15.5q133 0 133 132v79h-2q-24 -43 -65.5 -67t-89.5 -24q-79 0 -132.5 38t-76.5 97.5t-23 136.5q0 109 63.5 184t170.5 75q111 0 153 -85h2v71h114zM277 90
q70 0 104.5 52.5t34.5 127.5q0 73 -34.5 122t-104.5 49t-103 -53t-33 -127q0 -70 34.5 -120.5t101.5 -50.5zM295 679l-70 -90h-92l107 143h111l108 -143h-93z" />
    <glyph glyph-name="Gbreve" unicode="&#x11e;" horiz-adv-x="731" 
d="M685 376v-376h-80l-19 84q-49 -56 -98.5 -78.5t-116.5 -22.5q-155 0 -248.5 107.5t-93.5 266.5q0 158 93.5 266t248.5 108q121 0 206.5 -64t99.5 -180h-122q-9 67 -61 104.5t-123 37.5q-107 0 -162 -79.5t-55 -192.5t55 -192.5t162 -79.5q95 -2 146.5 50.5t53.5 145.5
h-190v95h304zM214 925h58q15 -76 107 -76q39 0 66 19.5t35 56.5h57q-8 -70 -51.5 -105.5t-114.5 -35.5q-69 0 -110 36t-47 105z" />
    <glyph glyph-name="gbreve" unicode="&#x11f;" horiz-adv-x="580" 
d="M531 517v-490q0 -116 -65 -174t-189 -58q-57 0 -104.5 14t-84.5 52t-42 95h114q10 -45 41.5 -60.5t82.5 -15.5q133 0 133 132v79h-2q-24 -43 -65.5 -67t-89.5 -24q-79 0 -132.5 38t-76.5 97.5t-23 136.5q0 109 63.5 184t170.5 75q111 0 153 -85h2v71h114zM278 90
q70 0 104.5 52.5t34.5 127.5q0 73 -34.5 122t-104.5 49t-103 -53t-33 -127q0 -70 34.5 -120.5t101.5 -50.5zM125 731h58q15 -76 107 -76q39 0 66 19.5t35 56.5h57q-8 -70 -51.5 -105.5t-114.5 -35.5q-69 0 -110 36t-47 105z" />
    <glyph glyph-name="Gdotaccent" unicode="&#x120;" horiz-adv-x="731" 
d="M685 376v-376h-80l-19 84q-49 -56 -98.5 -78.5t-116.5 -22.5q-155 0 -248.5 107.5t-93.5 266.5q0 158 93.5 266t248.5 108q121 0 206.5 -64t99.5 -180h-122q-9 67 -61 104.5t-123 37.5q-107 0 -162 -79.5t-55 -192.5t55 -192.5t162 -79.5q95 -2 146.5 50.5t53.5 145.5
h-190v95h304zM429 796h-114v108h114v-108z" />
    <glyph glyph-name="gdotaccent" unicode="&#x121;" horiz-adv-x="580" 
d="M530 517v-490q0 -116 -65 -174t-189 -58q-57 0 -104.5 14t-84.5 52t-42 95h114q10 -45 41.5 -60.5t82.5 -15.5q133 0 133 132v79h-2q-24 -43 -65.5 -67t-89.5 -24q-79 0 -132.5 38t-76.5 97.5t-23 136.5q0 109 63.5 184t170.5 75q111 0 153 -85h2v71h114zM277 90
q70 0 104.5 52.5t34.5 127.5q0 73 -34.5 122t-104.5 49t-103 -53t-33 -127q0 -70 34.5 -120.5t101.5 -50.5zM343 602h-114v108h114v-108z" />
    <glyph glyph-name="Gcommaaccent" unicode="&#x122;" horiz-adv-x="731" 
d="M685 376v-376h-80l-19 84q-49 -56 -98.5 -78.5t-116.5 -22.5q-155 0 -248.5 107.5t-93.5 266.5q0 158 93.5 266t248.5 108q121 0 206.5 -64t99.5 -180h-122q-9 67 -61 104.5t-123 37.5q-107 0 -162 -79.5t-55 -192.5t55 -192.5t162 -79.5q95 -2 146.5 50.5t53.5 145.5
h-190v95h304zM306 -149v99h131v-89q0 -79 -116 -84v38q40 6 45 36h-60z" />
    <glyph glyph-name="gcommaaccent" unicode="&#x123;" horiz-adv-x="580" 
d="M530 517v-490q0 -116 -65 -174t-189 -58q-57 0 -104.5 14t-84.5 52t-42 95h114q10 -45 41.5 -60.5t82.5 -15.5q133 0 133 132v79h-2q-24 -43 -65.5 -67t-89.5 -24q-79 0 -132.5 38t-76.5 97.5t-23 136.5q0 109 63.5 184t170.5 75q111 0 153 -85h2v71h114zM277 90
q70 0 104.5 52.5t34.5 127.5q0 73 -34.5 122t-104.5 49t-103 -53t-33 -127q0 -70 34.5 -120.5t101.5 -50.5zM353 714v-99h-131v89q0 79 116 84v-38q-40 -6 -45 -36h60z" />
    <glyph glyph-name="Hcircumflex" unicode="&#x124;" horiz-adv-x="698" 
d="M61 0v714h125v-284h325v284h125v-714h-125v322h-325v-322h-125zM350 873l-70 -90h-92l107 143h111l108 -143h-93z" />
    <glyph glyph-name="hcircumflex" unicode="&#x125;" 
d="M48 0v714h114v-265h2q22 36 63.5 59t91.5 23q86 0 134.5 -45t48.5 -131v-355h-114v325q-2 61 -26 88.5t-75 27.5q-56 0 -90.5 -39t-34.5 -97v-305h-114zM274 873l-70 -90h-92l107 143h111l108 -143h-93z" />
    <glyph glyph-name="Hbar" unicode="&#x126;" horiz-adv-x="698" 
d="M61 0v714h125v-172h325v172h125v-714h-125v297h-325v-297h-125zM186 405h325v72h-325v-72z" />
    <glyph glyph-name="hbar" unicode="&#x127;" horiz-adv-x="569" 
d="M66 649v65h114v-65h126v-65h-126v-135h2q22 36 63.5 59t91.5 23q86 0 134.5 -45t48.5 -131v-355h-114v325q-2 61 -26 88.5t-75 27.5q-56 0 -90.5 -39t-34.5 -97v-305h-114v584h-76v65h76z" />
    <glyph glyph-name="Itilde" unicode="&#x128;" horiz-adv-x="258" 
d="M68 0v714h125v-714h-125zM252 914h56q-9 -55 -33 -81q-28 -34 -78 -34q-31 0 -74 19q-43 18 -68 18q-35 0 -43 -41h-57q7 44 34.5 78.5t69.5 34.5q33 0 81 -20q42 -18 62 -18q39 0 50 44z" />
    <glyph glyph-name="itilde" unicode="&#x129;" horiz-adv-x="224" 
d="M168 0h-114v517h114v-517zM233 720h56q-9 -55 -33 -81q-28 -34 -78 -34q-31 0 -74 19q-43 18 -68 18q-35 0 -43 -41h-57q7 44 34.5 78.5t69.5 34.5q33 0 81 -20q42 -18 62 -18q39 0 50 44z" />
    <glyph glyph-name="Imacron" unicode="&#x12a;" horiz-adv-x="185" 
d="M32 0v714h125v-714h-125zM238 818h-288v65h288v-65z" />
    <glyph glyph-name="imacron" unicode="&#x12b;" horiz-adv-x="149" 
d="M134 0h-114v517h114v-517zM220 624h-288v65h288v-65z" />
    <glyph glyph-name="Iogonek" unicode="&#x12e;" horiz-adv-x="239" 
d="M173 714v-714q-49 -43 -66.5 -71t-17.5 -58q0 -20 10 -32t25 -12q27 0 47 34l37 -9q-20 -75 -95 -75q-10 0 -21.5 2.5t-29 10t-29 27.5t-11.5 50q0 65 103 133h-77v714h125z" />
    <glyph glyph-name="iogonek" unicode="&#x12f;" horiz-adv-x="205" 
d="M156 0h-1q-49 -44 -67 -71.5t-18 -57.5q0 -19 10.5 -31.5t24.5 -12.5q28 0 47 34l37 -9q-9 -40 -35.5 -57.5t-58.5 -17.5q-8 0 -16.5 1t-23 6.5t-25.5 14t-19 26.5t-8 42q0 65 103 133h-64v517h114v-517zM42 606v108h114v-108h-114z" />
    <glyph glyph-name="Idotaccent" unicode="&#x130;" horiz-adv-x="252" 
d="M63 0v714h125v-714h-125zM183 796h-114v108h114v-108z" />
    <glyph glyph-name="dotlessi" unicode="&#x131;" horiz-adv-x="218" 
d="M166 0h-114v517h114v-517z" />
    <glyph glyph-name="Jcircumflex" unicode="&#x134;" horiz-adv-x="517" 
d="M462 714v-484q0 -42 -4.5 -74t-19.5 -66t-39.5 -56t-68.5 -36.5t-103 -14.5q-108 0 -160.5 62.5t-52.5 166.5v38h125v-37q0 -64 22 -96t76 -32q58 0 79 33t21 105v491h125zM394 873l-70 -90h-92l107 143h111l108 -143h-93z" />
    <glyph glyph-name="jcircumflex" unicode="&#x135;" horiz-adv-x="226" 
d="M53 -39v556h114v-561q0 -80 -35 -120.5t-113 -40.5q-31 0 -51 4v90q20 -4 39 -4q29 0 37.5 17t8.5 59zM109 679l-70 -90h-92l107 143h111l108 -143h-93z" />
    <glyph glyph-name="Kcommaaccent" unicode="&#x136;" horiz-adv-x="672" 
d="M61 0v714h125v-325l318 325h154l-285 -285l305 -429h-156l-234 341l-102 -101v-240h-125zM261 -149v99h131v-89q0 -79 -116 -84v38q40 6 45 36h-60z" />
    <glyph glyph-name="kcommaaccent" unicode="&#x137;" horiz-adv-x="527" 
d="M57 0v714h114v-406l206 209h140l-198 -190l217 -327h-139l-158 251l-68 -66v-185h-114zM208 -149v99h131v-89q0 -79 -116 -84v38q40 6 45 36h-60z" />
    <glyph glyph-name="Lacute" unicode="&#x139;" horiz-adv-x="573" 
d="M62 0v714h125v-606h363v-108h-488zM82 783l90 143h135l-142 -143h-83z" />
    <glyph glyph-name="lacute" unicode="&#x13a;" horiz-adv-x="214" 
d="M52 0v714h114v-714h-114zM52 783l90 143h135l-142 -143h-83z" />
    <glyph glyph-name="Lcommaaccent" unicode="&#x13b;" horiz-adv-x="572" 
d="M61 0v714h125v-606h363v-108h-488zM241 -149v99h131v-89q0 -79 -116 -84v38q40 6 45 36h-60z" />
    <glyph glyph-name="lcommaaccent" unicode="&#x13c;" horiz-adv-x="224" 
d="M55 0v714h114v-714h-114zM46 -149v99h131v-89q0 -79 -116 -84v38q40 6 45 36h-60z" />
    <glyph glyph-name="Lcaron" unicode="&#x13d;" horiz-adv-x="573" 
d="M62 0v714h125v-606h363v-108h-488zM282 571l32 143h125l-81 -143h-76z" />
    <glyph glyph-name="lcaron" unicode="&#x13e;" horiz-adv-x="306" 
d="M52 0v714h114v-714h-114zM217 571l32 143h125l-81 -143h-76z" />
    <glyph glyph-name="Ldot" unicode="&#x13f;" horiz-adv-x="572" 
d="M61 0v714h125v-606h363v-108h-488zM421 409h-114v108h114v-108z" />
    <glyph glyph-name="ldot" unicode="&#x140;" horiz-adv-x="364" 
d="M52 0v714h114v-714h-114zM334 409h-114v108h114v-108z" />
    <glyph glyph-name="Lslash" unicode="&#x141;" horiz-adv-x="569" 
d="M58 317v397h125v-306l200 142v-93l-200 -142v-207h363v-108h-488v227l-76 -54v90z" />
    <glyph glyph-name="lslash" unicode="&#x142;" horiz-adv-x="221" 
d="M54 0v319l-68 -53v71l68 53v324h114v-235l68 54v-72l-68 -54v-407h-114z" />
    <glyph glyph-name="Nacute" unicode="&#x143;" horiz-adv-x="701" 
d="M61 0v714h132l326 -526h2v526h119v-714h-132l-325 525h-3v-525h-119zM299 783l90 143h135l-142 -143h-83z" />
    <glyph glyph-name="nacute" unicode="&#x144;" 
d="M49 0v517h108v-76l2 -2q27 43 69 67.5t92 24.5q86 0 134.5 -45t48.5 -131v-355h-114v325q-2 61 -26 88.5t-75 27.5q-56 0 -90.5 -39t-34.5 -97v-305h-114zM219 589l90 143h135l-142 -143h-83z" />
    <glyph glyph-name="Ncommaaccent" unicode="&#x145;" horiz-adv-x="701" 
d="M61 0v714h132l326 -526h2v526h119v-714h-132l-325 525h-3v-525h-119zM275 -149v99h131v-89q0 -79 -116 -84v38q40 6 45 36h-60z" />
    <glyph glyph-name="ncommaaccent" unicode="&#x146;" 
d="M48 0v517h108v-76l2 -2q27 43 69 67.5t92 24.5q86 0 134.5 -45t48.5 -131v-355h-114v325q-2 61 -26 88.5t-75 27.5q-56 0 -90.5 -39t-34.5 -97v-305h-114zM208 -149v99h131v-89q0 -79 -116 -84v38q40 6 45 36h-60z" />
    <glyph glyph-name="Ncaron" unicode="&#x147;" horiz-adv-x="701" 
d="M61 0v714h132l326 -526h2v526h119v-714h-132l-325 525h-3v-525h-119zM511 926l-108 -143h-111l-107 143h92l70 -89l71 89h93z" />
    <glyph glyph-name="ncaron" unicode="&#x148;" 
d="M48 0v517h108v-76l2 -2q27 43 69 67.5t92 24.5q86 0 134.5 -45t48.5 -131v-355h-114v325q-2 61 -26 88.5t-75 27.5q-56 0 -90.5 -39t-34.5 -97v-305h-114zM440 732l-108 -143h-111l-107 143h92l70 -89l71 89h93z" />
    <glyph glyph-name="Omacron" unicode="&#x14c;" horiz-adv-x="740" 
d="M370 629q-107 0 -162 -79.5t-55 -192.5t55 -192.5t162 -79.5t162 79.5t55 192.5t-55 192.5t-162 79.5zM370 731q155 0 248.5 -108t93.5 -266q0 -159 -93.5 -266.5t-248.5 -107.5t-248.5 107.5t-93.5 266.5q0 158 93.5 266t248.5 108zM517 818h-288v65h288v-65z" />
    <glyph glyph-name="omacron" unicode="&#x14d;" horiz-adv-x="577" 
d="M288 -14q-121 0 -191 75.5t-70 197.5q0 120 70 196t191 76t191 -76t70 -196q0 -122 -70 -197.5t-191 -75.5zM288 76q72 0 109.5 54t37.5 129q0 74 -37.5 128t-109.5 54t-109.5 -54t-37.5 -128q0 -75 37.5 -129t109.5 -54zM435 624h-288v65h288v-65z" />
    <glyph glyph-name="Obreve" unicode="&#x14e;" horiz-adv-x="740" 
d="M370 629q-107 0 -162 -79.5t-55 -192.5t55 -192.5t162 -79.5t162 79.5t55 192.5t-55 192.5t-162 79.5zM370 731q155 0 248.5 -108t93.5 -266q0 -159 -93.5 -266.5t-248.5 -107.5t-248.5 107.5t-93.5 266.5q0 158 93.5 266t248.5 108zM207 925h58q15 -76 107 -76
q39 0 66 19.5t35 56.5h57q-8 -70 -51.5 -105.5t-114.5 -35.5q-69 0 -110 36t-47 105z" />
    <glyph glyph-name="obreve" unicode="&#x14f;" horiz-adv-x="578" 
d="M289 -14q-121 0 -191 75.5t-70 197.5q0 120 70 196t191 76t191 -76t70 -196q0 -122 -70 -197.5t-191 -75.5zM289 76q72 0 109.5 54t37.5 129q0 74 -37.5 128t-109.5 54t-109.5 -54t-37.5 -128q0 -75 37.5 -129t109.5 -54zM129 731h58q15 -76 107 -76q39 0 66 19.5
t35 56.5h57q-8 -70 -51.5 -105.5t-114.5 -35.5q-69 0 -110 36t-47 105z" />
    <glyph glyph-name="Ohungarumlaut" unicode="&#x150;" horiz-adv-x="740" 
d="M370 629q-107 0 -162 -79.5t-55 -192.5t55 -192.5t162 -79.5t162 79.5t55 192.5t-55 192.5t-162 79.5zM370 731q155 0 248.5 -108t93.5 -266q0 -159 -93.5 -266.5t-248.5 -107.5t-248.5 107.5t-93.5 266.5q0 158 93.5 266t248.5 108zM425 783l90 143h136l-144 -143h-82z
M226 783l90 143h136l-144 -143h-82z" />
    <glyph glyph-name="ohungarumlaut" unicode="&#x151;" horiz-adv-x="578" 
d="M288 -14q-121 0 -191 75.5t-70 197.5q0 120 70 196t191 76t191 -76t70 -196q0 -122 -70 -197.5t-191 -75.5zM288 76q72 0 109.5 54t37.5 129q0 74 -37.5 128t-109.5 54t-109.5 -54t-37.5 -128q0 -75 37.5 -129t109.5 -54zM339 589l90 143h136l-144 -143h-82zM140 589
l90 143h136l-144 -143h-82z" />
    <glyph glyph-name="OE" unicode="&#x152;" horiz-adv-x="1070" 
d="M659 606v-187h343v-102h-343v-209h381v-108h-495v64q-69 -81 -188 -81q-102 0 -178 52t-113 135t-37 184q0 158 91 267.5t245 109.5q115 0 180 -74v57h488v-108h-374zM540 219v266q0 60 -44.5 102t-126.5 42q-72 0 -122 -41.5t-71.5 -101.5t-21.5 -130t21.5 -129.5
t71.5 -100.5t122 -41q77 0 124 42t47 92z" />
    <glyph glyph-name="oe" unicode="&#x153;" horiz-adv-x="901" 
d="M274 441q-67 0 -99.5 -53.5t-32.5 -125.5q0 -79 30.5 -132.5t101.5 -53.5t101.5 53.5t30.5 132.5q0 72 -32.5 125.5t-99.5 53.5zM628 441q-56 0 -92 -40t-38 -97h264q-8 137 -134 137zM876 229h-378q0 -67 35 -110t100 -43q45 0 80 23t43 65h114q-21 -87 -82.5 -132.5
t-152.5 -45.5q-137 0 -185 95q-51 -95 -184 -95q-115 0 -176.5 78t-61.5 196q0 115 66.5 193t180.5 78q132 0 181 -87q56 87 181 87q65 0 113 -24t74.5 -67t39 -95.5t12.5 -115.5z" />
    <glyph glyph-name="Racute" unicode="&#x154;" horiz-adv-x="687" 
d="M62 0v714h341q116 0 176 -50.5t60 -142.5q0 -48 -14 -84t-37 -55.5t-37.5 -27.5t-29.5 -13v-2q41 -5 73.5 -40.5t32.5 -110.5q0 -146 39 -188h-134q-19 31 -19 105q0 103 -29.5 146t-112.5 43h-184v-294h-125zM187 612v-223h205q122 0 122 114q0 63 -33.5 86t-90.5 23
h-203zM272 783l90 143h135l-142 -143h-83z" />
    <glyph glyph-name="racute" unicode="&#x155;" horiz-adv-x="347" 
d="M49 0v517h107v-100h2q10 43 55.5 78.5t95.5 35.5q10 0 43 -3v-110q-27 5 -49 5q-60 0 -100 -47t-40 -130v-246h-114zM71 589l90 143h135l-142 -143h-83z" />
    <glyph glyph-name="Rcommaaccent" unicode="&#x156;" horiz-adv-x="687" 
d="M61 0v714h341q116 0 176 -50.5t60 -142.5q0 -48 -14 -84t-37 -55.5t-37.5 -27.5t-29.5 -13v-2q41 -5 73.5 -40.5t32.5 -110.5q0 -146 39 -188h-134q-19 31 -19 105q0 103 -29.5 146t-112.5 43h-184v-294h-125zM186 612v-223h205q122 0 122 114q0 63 -33.5 86t-90.5 23
h-203zM274 -149v99h131v-89q0 -79 -116 -84v38q40 6 45 36h-60z" />
    <glyph glyph-name="rcommaaccent" unicode="&#x157;" horiz-adv-x="353" 
d="M55 0v517h107v-100h2q10 43 55.5 78.5t95.5 35.5q10 0 43 -3v-110q-27 5 -49 5q-60 0 -100 -47t-40 -130v-246h-114zM46 -149v99h131v-89q0 -79 -116 -84v38q40 6 45 36h-60z" />
    <glyph glyph-name="Rcaron" unicode="&#x158;" horiz-adv-x="687" 
d="M61 0v714h341q116 0 176 -50.5t60 -142.5q0 -48 -14 -84t-37 -55.5t-37.5 -27.5t-29.5 -13v-2q41 -5 73.5 -40.5t32.5 -110.5q0 -146 39 -188h-134q-19 31 -19 105q0 103 -29.5 146t-112.5 43h-184v-294h-125zM186 612v-223h205q122 0 122 114q0 63 -33.5 86t-90.5 23
h-203zM484 926l-108 -143h-111l-107 143h92l70 -89l71 89h93z" />
    <glyph glyph-name="rcaron" unicode="&#x159;" horiz-adv-x="344" 
d="M41 0v517h107v-100h2q10 43 55.5 78.5t95.5 35.5q10 0 43 -3v-110q-27 5 -49 5q-60 0 -100 -47t-40 -130v-246h-114zM355 732l-108 -143h-111l-107 143h92l70 -89l71 89h93z" />
    <glyph glyph-name="Sacute" unicode="&#x15a;" horiz-adv-x="622" 
d="M19 238h125q0 -78 50 -115.5t131 -37.5q77 0 114 31.5t37 76.5q0 66 -59 88q-23 9 -51.5 17t-78 20.5t-83.5 21.5q-158 41 -158 181q0 101 77.5 155.5t183.5 54.5q117 0 195.5 -60.5t78.5 -167.5h-125q-10 126 -154 126q-52 0 -91.5 -22t-39.5 -71q0 -67 85 -92
q1 0 47 -12t94.5 -25t64.5 -18q67 -21 103 -71.5t36 -110.5q0 -58 -24 -102.5t-65.5 -70t-90.5 -38.5t-104 -13q-130 0 -213 64t-85 191zM262 783l90 143h135l-142 -143h-83z" />
    <glyph glyph-name="sacute" unicode="&#x15b;" horiz-adv-x="505" 
d="M22 166h114q9 -90 117 -90q20 0 37.5 2.5t37 9t30.5 21t10 35.5q-1 13 -5.5 23t-15 17.5t-20.5 12.5t-28 10t-30 8t-35 7.5t-35 7.5q-36 8 -62 17.5t-51.5 26t-39 44t-13.5 65.5q0 40 20 70.5t53 46.5t69 23.5t74 7.5q87 0 147 -38.5t69 -120.5h-119q-14 69 -105 69
q-21 0 -40 -3.5t-36.5 -16t-17.5 -33.5q0 -12 4 -21.5t15 -16.5t20 -12t28.5 -10.5t30 -8t35.5 -7.5l35 -7q37 -8 62.5 -17.5t51.5 -26.5t39.5 -43.5t13.5 -63.5q0 -58 -36.5 -97.5t-86.5 -55t-108 -15.5q-102 0 -164.5 46t-64.5 134zM182 589l90 143h135l-142 -143h-83z
" />
    <glyph glyph-name="Scircumflex" unicode="&#x15c;" horiz-adv-x="622" 
d="M19 238h125q0 -78 50 -115.5t131 -37.5q77 0 114 31.5t37 76.5q0 66 -59 88q-23 9 -51.5 17t-78 20.5t-83.5 21.5q-158 41 -158 181q0 101 77.5 155.5t183.5 54.5q117 0 195.5 -60.5t78.5 -167.5h-125q-10 126 -154 126q-52 0 -91.5 -22t-39.5 -71q0 -67 85 -92
q1 0 47 -12t94.5 -25t64.5 -18q67 -21 103 -71.5t36 -110.5q0 -58 -24 -102.5t-65.5 -70t-90.5 -38.5t-104 -13q-130 0 -213 64t-85 191zM316 873l-70 -90h-92l107 143h111l108 -143h-93z" />
    <glyph glyph-name="scircumflex" unicode="&#x15d;" horiz-adv-x="505" 
d="M22 166h114q9 -90 117 -90q20 0 37.5 2.5t37 9t30.5 21t10 35.5q-1 13 -5.5 23t-15 17.5t-20.5 12.5t-28 10t-30 8t-35 7.5t-35 7.5q-36 8 -62 17.5t-51.5 26t-39 44t-13.5 65.5q0 40 20 70.5t53 46.5t69 23.5t74 7.5q87 0 147 -38.5t69 -120.5h-119q-14 69 -105 69
q-21 0 -40 -3.5t-36.5 -16t-17.5 -33.5q0 -12 4 -21.5t15 -16.5t20 -12t28.5 -10.5t30 -8t35.5 -7.5l35 -7q37 -8 62.5 -17.5t51.5 -26.5t39.5 -43.5t13.5 -63.5q0 -58 -36.5 -97.5t-86.5 -55t-108 -15.5q-102 0 -164.5 46t-64.5 134zM256 679l-70 -90h-92l107 143h111
l108 -143h-93z" />
    <glyph glyph-name="Scedilla" unicode="&#x15e;" horiz-adv-x="622" 
d="M186 -200l18 40q35 -16 65 -16q61 0 61 41q0 18 -13.5 28t-32.5 10q-23 0 -39 -10l-22 19l54 73q-41 3 -75 13q-83 23 -132.5 83.5t-50.5 156.5h125q0 -78 50 -115.5t131 -37.5q77 0 114 31.5t37 76.5q0 66 -59 88q-23 9 -51.5 17t-78 20.5t-83.5 21.5q-158 41 -158 181
q0 101 77.5 155.5t183.5 54.5q117 0 195.5 -60.5t78.5 -167.5h-125q-10 126 -154 126q-52 0 -91.5 -22t-39.5 -71q0 -67 85 -92q1 0 47 -12t94.5 -25t64.5 -18q67 -21 103 -71.5t36 -110.5q0 -85 -50 -139t-130 -72q-46 -11 -98 -13l-32 -42l1 -1q11 4 33 4q33 0 59 -19.5
t26 -55.5q0 -46 -36 -69t-85 -23q-61 0 -103 23z" />
    <glyph glyph-name="scedilla" unicode="&#x15f;" horiz-adv-x="505" 
d="M128 -200l18 40q35 -16 65 -16q61 0 61 41q0 18 -13.5 28t-32.5 10q-23 0 -39 -10l-22 19l56 75q-36 3 -61 10q-64 17 -100.5 60t-37.5 109h114q9 -90 117 -90q20 0 37.5 2.5t37 9t30.5 21t10 35.5q-1 13 -5.5 23t-15 17.5t-20.5 12.5t-28 10t-30 8t-35 7.5t-35 7.5
q-36 8 -62 17.5t-51.5 26t-39 44t-13.5 65.5q0 40 20 70.5t53 46.5t69 23.5t74 7.5q87 0 147 -38.5t69 -120.5h-119q-14 69 -105 69q-21 0 -40 -3.5t-36.5 -16t-17.5 -33.5q0 -12 4 -21.5t15 -16.5t20 -12t28.5 -10.5t30 -8t35.5 -7.5l35 -7q37 -8 62.5 -17.5t51.5 -26.5
t39.5 -43.5t13.5 -63.5q0 -64 -42 -104t-108 -55q-26 -6 -64 -8l-35 -46l1 -1q11 4 33 4q33 0 59 -19.5t26 -55.5q0 -46 -36 -69t-85 -23q-61 0 -103 23z" />
    <glyph glyph-name="Scaron" unicode="&#x160;" horiz-adv-x="622" 
d="M19 238h125q0 -78 50 -115.5t131 -37.5q77 0 114 31.5t37 76.5q0 66 -59 88q-23 9 -51.5 17t-78 20.5t-83.5 21.5q-158 41 -158 181q0 101 77.5 155.5t183.5 54.5q117 0 195.5 -60.5t78.5 -167.5h-125q-10 126 -154 126q-52 0 -91.5 -22t-39.5 -71q0 -67 85 -92
q1 0 47 -12t94.5 -25t64.5 -18q67 -21 103 -71.5t36 -110.5q0 -58 -24 -102.5t-65.5 -70t-90.5 -38.5t-104 -13q-130 0 -213 64t-85 191zM477 926l-108 -143h-111l-107 143h92l70 -89l71 89h93z" />
    <glyph glyph-name="scaron" unicode="&#x161;" horiz-adv-x="505" 
d="M22 166h114q9 -90 117 -90q20 0 37.5 2.5t37 9t30.5 21t10 35.5q-1 13 -5.5 23t-15 17.5t-20.5 12.5t-28 10t-30 8t-35 7.5t-35 7.5q-36 8 -62 17.5t-51.5 26t-39 44t-13.5 65.5q0 40 20 70.5t53 46.5t69 23.5t74 7.5q87 0 147 -38.5t69 -120.5h-119q-14 69 -105 69
q-21 0 -40 -3.5t-36.5 -16t-17.5 -33.5q0 -12 4 -21.5t15 -16.5t20 -12t28.5 -10.5t30 -8t35.5 -7.5l35 -7q37 -8 62.5 -17.5t51.5 -26.5t39.5 -43.5t13.5 -63.5q0 -58 -36.5 -97.5t-86.5 -55t-108 -15.5q-102 0 -164.5 46t-64.5 134zM417 732l-108 -143h-111l-107 143h92
l70 -89l71 89h93z" />
    <glyph glyph-name="Tcommaaccent" unicode="&#x162;" horiz-adv-x="611" 
d="M16 606v108h578v-108h-227v-606h-125v606h-226zM238 -149v99h131v-89q0 -79 -116 -84v38q40 6 45 36h-60z" />
    <glyph glyph-name="tcommaaccent" unicode="&#x163;" horiz-adv-x="316" 
d="M0 432v85h86v155h114v-155h103v-85h-103v-276q0 -40 9.5 -55.5t45.5 -15.5q32 0 48 4v-88q-50 -6 -74 -6q-84 0 -112.5 30.5t-30.5 101.5v305h-86zM131 -149v99h131v-89q0 -79 -116 -84v38q40 6 45 36h-60z" />
    <glyph glyph-name="Tcaron" unicode="&#x164;" horiz-adv-x="611" 
d="M16 606v108h578v-108h-227v-606h-125v606h-226zM469 926l-108 -143h-111l-107 143h92l70 -89l71 89h93z" />
    <glyph glyph-name="tcaron" unicode="&#x165;" horiz-adv-x="382" 
d="M292 571l32 143h125l-81 -143h-76zM0 432v85h86v155h114v-155h103v-85h-103v-276q0 -40 9.5 -55.5t45.5 -15.5q32 0 48 4v-88q-50 -6 -74 -6q-84 0 -112.5 30.5t-30.5 101.5v305h-86z" />
    <glyph glyph-name="Tbar" unicode="&#x166;" horiz-adv-x="611" 
d="M16 606v108h578v-108h-227v-138h164v-65h-164v-403h-125v403h-159v65h159v138h-226z" />
    <glyph glyph-name="tbar" unicode="&#x167;" horiz-adv-x="311" 
d="M-5 432v85h86v155h114v-155h103v-85h-103v-86h112v-65h-112v-125q0 -40 9.5 -55.5t45.5 -15.5q32 0 48 4v-88q-50 -6 -74 -6q-84 0 -112.5 30.5t-30.5 101.5v154h-94v65h94v86h-86z" />
    <glyph glyph-name="Utilde" unicode="&#x168;" horiz-adv-x="701" 
d="M57 257v457h125v-416q0 -36 2 -59t11 -54.5t26 -49.5t49.5 -31t79.5 -13t79.5 13t49.5 31t26 49.5t11 54.5t2 59v416h125v-457q0 -134 -78.5 -204t-214.5 -70t-214.5 70t-78.5 204zM473 914h56q-9 -55 -33 -81q-28 -34 -78 -34q-31 0 -74 19q-43 18 -68 18q-35 0 -43 -41
h-57q7 44 34.5 78.5t69.5 34.5q33 0 81 -20q42 -18 62 -18q39 0 50 44z" />
    <glyph glyph-name="utilde" unicode="&#x169;" 
d="M502 517v-517h-112v72h-2q-21 -38 -62.5 -62t-84.5 -24q-101 0 -147 50t-46 153v328h114v-317q0 -66 25 -95t74 -29q127 0 127 141v300h114zM397 720h56q-9 -55 -33 -81q-28 -34 -78 -34q-31 0 -74 19q-43 18 -68 18q-35 0 -43 -41h-57q7 44 34.5 78.5t69.5 34.5
q33 0 81 -20q42 -18 62 -18q39 0 50 44z" />
    <glyph glyph-name="Umacron" unicode="&#x16a;" horiz-adv-x="701" 
d="M57 257v457h125v-416q0 -36 2 -59t11 -54.5t26 -49.5t49.5 -31t79.5 -13t79.5 13t49.5 31t26 49.5t11 54.5t2 59v416h125v-457q0 -134 -78.5 -204t-214.5 -70t-214.5 70t-78.5 204zM495 818h-288v65h288v-65z" />
    <glyph glyph-name="umacron" unicode="&#x16b;" 
d="M502 517v-517h-112v72h-2q-21 -38 -62.5 -62t-84.5 -24q-101 0 -147 50t-46 153v328h114v-317q0 -66 25 -95t74 -29q127 0 127 141v300h114zM424 624h-288v65h288v-65z" />
    <glyph glyph-name="Ubreve" unicode="&#x16c;" horiz-adv-x="701" 
d="M57 257v457h125v-416q0 -36 2 -59t11 -54.5t26 -49.5t49.5 -31t79.5 -13t79.5 13t49.5 31t26 49.5t11 54.5t2 59v416h125v-457q0 -134 -78.5 -204t-214.5 -70t-214.5 70t-78.5 204zM190 925h58q15 -76 107 -76q39 0 66 19.5t35 56.5h57q-8 -70 -51.5 -105.5t-114.5 -35.5
q-69 0 -110 36t-47 105z" />
    <glyph glyph-name="ubreve" unicode="&#x16d;" 
d="M503 517v-517h-112v72h-2q-21 -38 -62.5 -62t-84.5 -24q-101 0 -147 50t-46 153v328h114v-317q0 -66 25 -95t74 -29q127 0 127 141v300h114zM120 731h58q15 -76 107 -76q39 0 66 19.5t35 56.5h57q-8 -70 -51.5 -105.5t-114.5 -35.5q-69 0 -110 36t-47 105z" />
    <glyph glyph-name="Uring" unicode="&#x16e;" horiz-adv-x="701" 
d="M57 257v457h125v-416q0 -36 2 -59t11 -54.5t26 -49.5t49.5 -31t79.5 -13t79.5 13t49.5 31t26 49.5t11 54.5t2 59v416h125v-457q0 -134 -78.5 -204t-214.5 -70t-214.5 70t-78.5 204zM292 854q0 -26 17.5 -43.5t42.5 -17.5q26 0 43 17.5t17 43.5q0 27 -17 44t-43 17
q-25 0 -42.5 -17t-17.5 -44zM352 751q-44 0 -74 29t-30 74t30.5 74t73.5 29t73.5 -29t30.5 -74t-30.5 -74t-73.5 -29z" />
    <glyph glyph-name="uring" unicode="&#x16f;" 
d="M503 517v-517h-112v72h-2q-21 -38 -62.5 -62t-84.5 -24q-101 0 -147 50t-46 153v328h114v-317q0 -66 25 -95t74 -29q127 0 127 141v300h114zM221 674q0 -26 17.5 -43.5t42.5 -17.5q26 0 43 17.5t17 43.5q0 27 -17 44t-43 17q-25 0 -42.5 -17t-17.5 -44zM281 571
q-44 0 -74 29t-30 74t30.5 74t73.5 29t73.5 -29t30.5 -74t-30.5 -74t-73.5 -29z" />
    <glyph glyph-name="Uhungarumlaut" unicode="&#x170;" horiz-adv-x="701" 
d="M57 257v457h125v-416q0 -36 2 -59t11 -54.5t26 -49.5t49.5 -31t79.5 -13t79.5 13t49.5 31t26 49.5t11 54.5t2 59v416h125v-457q0 -134 -78.5 -204t-214.5 -70t-214.5 70t-78.5 204zM408 783l90 143h136l-144 -143h-82zM209 783l90 143h136l-144 -143h-82z" />
    <glyph glyph-name="uhungarumlaut" unicode="&#x171;" horiz-adv-x="564" 
d="M502 517v-517h-112v72h-2q-21 -38 -62.5 -62t-84.5 -24q-101 0 -147 50t-46 153v328h114v-317q0 -66 25 -95t74 -29q127 0 127 141v300h114zM332 589l90 143h136l-144 -143h-82zM133 589l90 143h136l-144 -143h-82z" />
    <glyph glyph-name="Uogonek" unicode="&#x172;" horiz-adv-x="701" 
d="M57 257v457h125v-416q0 -36 2 -59t11 -54.5t26 -49.5t49.5 -31t79.5 -13t79.5 13t49.5 31t26 49.5t11 54.5t2 59v416h125v-457q0 -101 -45.5 -166t-127.5 -91q-38 -12 -81 -15q-15 -13 -27 -24q-47 -47 -47 -90q0 -20 11.5 -32t27.5 -12q31 0 52 34l41 -9
q-20 -75 -105 -75q-12 0 -24.5 2.5t-32 10t-32 27.5t-12.5 50q0 43 49 87q13 12 38 30q-49 1 -98 16q-82 26 -127.5 91t-45.5 166z" />
    <glyph glyph-name="uogonek" unicode="&#x173;" 
d="M502 0h-61q-52 -44 -70.5 -71.5t-18.5 -57.5q0 -20 11 -32t26 -12q29 0 49 34l39 -9q-9 -40 -37.5 -57.5t-61.5 -17.5q-11 0 -23.5 2.5t-30.5 10t-30 27.5t-12 50q0 65 108 133v72h-2q-21 -38 -62.5 -62t-84.5 -24q-101 0 -147 50t-46 153v328h114v-317q0 -66 25 -95
t74 -29q127 0 127 141v300h114v-517z" />
    <glyph glyph-name="Wcircumflex" unicode="&#x174;" horiz-adv-x="921" 
d="M182 0l-188 714h127l129 -546h2l144 546h128l140 -546h2l133 546h127l-197 -714h-127l-143 546h-2l-146 -546h-129zM460 873l-70 -90h-92l107 143h111l108 -143h-93z" />
    <glyph glyph-name="wcircumflex" unicode="&#x175;" horiz-adv-x="758" 
d="M163 0l-160 517h121l101 -386h2l97 386h115l93 -386h2l105 386h116l-162 -517h-117l-96 384h-2l-95 -384h-120zM384 679l-70 -90h-92l107 143h111l108 -143h-93z" />
    <glyph glyph-name="Ycircumflex" unicode="&#x176;" horiz-adv-x="626" 
d="M251 0v280l-268 434h145l189 -320l186 320h140l-267 -434v-280h-125zM319 873l-70 -90h-92l107 143h111l108 -143h-93z" />
    <glyph glyph-name="ycircumflex" unicode="&#x177;" horiz-adv-x="518" 
d="M199 2l-196 515h125l135 -386h2l131 386h119l-201 -545q-35 -88 -54 -115q-44 -62 -129 -62q-40 0 -79 6v96q44 -7 54 -7q36 0 52.5 17.5t27.5 54.5zM263 679l-70 -90h-92l107 143h111l108 -143h-93z" />
    <glyph glyph-name="Ydieresis" unicode="&#x178;" horiz-adv-x="626" 
d="M251 0v280l-268 434h145l189 -320l186 320h140l-267 -434v-280h-125zM289 796h-114v108h114v-108zM347 904h114v-108h-114v108z" />
    <glyph glyph-name="Zacute" unicode="&#x179;" horiz-adv-x="629" 
d="M54 606v108h543v-95l-416 -511h426v-108h-585v102l416 504h-384zM269 783l90 143h135l-142 -143h-83z" />
    <glyph glyph-name="zacute" unicode="&#x17a;" horiz-adv-x="481" 
d="M34 427v90h420v-80l-296 -347h311v-90h-455v80l286 347h-266zM197 589l90 143h135l-142 -143h-83z" />
    <glyph glyph-name="Zdotaccent" unicode="&#x17b;" horiz-adv-x="629" 
d="M54 606v108h543v-95l-416 -511h426v-108h-585v102l416 504h-384zM379 796h-114v108h114v-108z" />
    <glyph glyph-name="zdotaccent" unicode="&#x17c;" horiz-adv-x="481" 
d="M34 427v90h420v-80l-296 -347h311v-90h-455v80l286 347h-266zM301 602h-114v108h114v-108z" />
    <glyph glyph-name="Zcaron" unicode="&#x17d;" horiz-adv-x="629" 
d="M54 606v108h543v-95l-416 -511h426v-108h-585v102l416 504h-384zM485 926l-108 -143h-111l-107 143h92l70 -89l71 89h93z" />
    <glyph glyph-name="zcaron" unicode="&#x17e;" horiz-adv-x="481" 
d="M34 427v90h420v-80l-296 -347h311v-90h-455v80l286 347h-266zM408 732l-108 -143h-111l-107 143h92l70 -89l71 89h93z" />
    <glyph glyph-name="florin" unicode="&#x192;" horiz-adv-x="541" 
d="M108 353l15 85h92l32 168q32 125 176 125q33 0 73 -5l-17 -90q-25 5 -41 5q-40 0 -57 -16t-26 -57l-25 -130h102l-15 -85h-102l-73 -381q-12 -59 -60.5 -100.5t-110.5 -41.5q-34 0 -79 5l15 90q27 -5 48 -5q29 0 46 12t23 44l75 377h-91z" />
    <glyph glyph-name="Scommaaccent" unicode="&#x218;" horiz-adv-x="622" 
d="M19 238h125q0 -78 50 -115.5t131 -37.5q77 0 114 31.5t37 76.5q0 66 -59 88q-23 9 -51.5 17t-78 20.5t-83.5 21.5q-158 41 -158 181q0 101 77.5 155.5t183.5 54.5q117 0 195.5 -60.5t78.5 -167.5h-125q-10 126 -154 126q-52 0 -91.5 -22t-39.5 -71q0 -67 85 -92
q1 0 47 -12t94.5 -25t64.5 -18q67 -21 103 -71.5t36 -110.5q0 -58 -24 -102.5t-65.5 -70t-90.5 -38.5t-104 -13q-130 0 -213 64t-85 191zM244 -149v99h131v-89q0 -79 -116 -84v38q40 6 45 36h-60z" />
    <glyph glyph-name="scommaaccent" unicode="&#x219;" horiz-adv-x="505" 
d="M22 166h114q9 -90 117 -90q20 0 37.5 2.5t37 9t30.5 21t10 35.5q-1 13 -5.5 23t-15 17.5t-20.5 12.5t-28 10t-30 8t-35 7.5t-35 7.5q-36 8 -62 17.5t-51.5 26t-39 44t-13.5 65.5q0 40 20 70.5t53 46.5t69 23.5t74 7.5q87 0 147 -38.5t69 -120.5h-119q-14 69 -105 69
q-21 0 -40 -3.5t-36.5 -16t-17.5 -33.5q0 -12 4 -21.5t15 -16.5t20 -12t28.5 -10.5t30 -8t35.5 -7.5l35 -7q37 -8 62.5 -17.5t51.5 -26.5t39.5 -43.5t13.5 -63.5q0 -58 -36.5 -97.5t-86.5 -55t-108 -15.5q-102 0 -164.5 46t-64.5 134zM181 -149v99h131v-89q0 -79 -116 -84
v38q40 6 45 36h-60z" />
    <glyph glyph-name="uni021A" unicode="&#x21a;" horiz-adv-x="576" 
d="M-1 606v108h578v-108h-227v-606h-125v606h-226zM221 -149v99h131v-89q0 -79 -116 -84v38q40 6 45 36h-60z" />
    <glyph glyph-name="uni021B" unicode="&#x21b;" horiz-adv-x="316" 
d="M0 432v85h86v155h114v-155h103v-85h-103v-276q0 -40 9.5 -55.5t45.5 -15.5q32 0 48 4v-88q-50 -6 -74 -6q-84 0 -112.5 30.5t-30.5 101.5v305h-86zM131 -149v99h131v-89q0 -79 -116 -84v38q40 6 45 36h-60z" />
    <glyph glyph-name="circumflex" unicode="&#x2c6;" horiz-adv-x="214" 
d="M107 679l-70 -90h-92l107 143h111l108 -143h-93z" />
    <glyph glyph-name="caron" unicode="&#x2c7;" horiz-adv-x="214" 
d="M269 732l-108 -143h-111l-107 143h92l70 -89l71 89h93z" />
    <glyph glyph-name="uni02C9" unicode="&#x2c9;" horiz-adv-x="150" 
d="M219 624h-288v65h288v-65z" />
    <glyph glyph-name="breve" unicode="&#x2d8;" horiz-adv-x="223" 
d="M-50 731h58q15 -76 107 -76q39 0 66 19.5t35 56.5h57q-8 -70 -51.5 -105.5t-114.5 -35.5q-69 0 -110 36t-47 105z" />
    <glyph glyph-name="dotaccent" unicode="&#x2d9;" horiz-adv-x="221" 
d="M167 602h-114v108h114v-108z" />
    <glyph glyph-name="ring" unicode="&#x2da;" horiz-adv-x="193" 
d="M37 674q0 -26 17.5 -43.5t42.5 -17.5q26 0 43 17.5t17 43.5q0 27 -17 44t-43 17q-25 0 -42.5 -17t-17.5 -44zM97 571q-44 0 -74 29t-30 74t30.5 74t73.5 29t73.5 -29t30.5 -74t-30.5 -74t-73.5 -29z" />
    <glyph glyph-name="ogonek" unicode="&#x2db;" horiz-adv-x="202" 
d="M128 0h54q-54 -43 -74 -71t-20 -58q0 -20 11.5 -32t27.5 -12q31 0 52 34l41 -9q-20 -75 -105 -75q-12 0 -24.5 2.5t-32 10t-32 27.5t-12.5 50q0 65 114 133z" />
    <glyph glyph-name="tilde" unicode="&#x2dc;" horiz-adv-x="225" 
d="M233 720h56q-9 -55 -33 -81q-28 -34 -78 -34q-31 0 -74 19q-43 18 -68 18q-35 0 -43 -41h-57q7 44 34.5 78.5t69.5 34.5q33 0 81 -20q42 -18 62 -18q39 0 50 44z" />
    <glyph glyph-name="hungarumlaut" unicode="&#x2dd;" horiz-adv-x="233" 
d="M145 589l90 143h136l-144 -143h-82zM-54 589l90 143h136l-144 -143h-82z" />
    <glyph glyph-name="uni0394" unicode="&#x394;" horiz-adv-x="674" 
d="M519 98l-190 490l-180 -490h370zM670 0h-666l272 712h110z" />
    <glyph glyph-name="uni03A9" unicode="&#x3a9;" horiz-adv-x="743" 
d="M693 0h-272v188q76 15 118 73.5t42 138.5q0 94 -60 158t-153 64q-94 0 -154 -64.5t-60 -159.5q0 -82 40 -137t118 -73v-188h-271v91h183v47q-89 29 -136 100.5t-47 167.5q0 136 94.5 225.5t231.5 89.5q138 0 232 -87t94 -225q0 -98 -47 -171t-137 -100v-47h184v-91z" />
    <glyph glyph-name="uni03BC" unicode="&#x3bc;" 
d="M503 517v-517h-112v72h-2q-21 -38 -60.5 -62t-75.5 -24q-59 0 -90 36v-213h-114v708h114v-317q0 -66 25 -95t74 -29q127 0 127 141v300h114z" />
    <glyph glyph-name="pi" unicode="&#x3c0;" horiz-adv-x="575" 
d="M559 89v-76q-43 -20 -83 -20q-61 0 -80.5 33t-19.5 97v264h-211v-387h-101v387h-70v96h562v-96h-79v-249q0 -19 1.5 -29t10.5 -20t26 -10q23 0 44 10z" />
    <glyph glyph-name="endash" unicode="&#x2013;" horiz-adv-x="486" 
d="M-7 218v108h500v-108h-500z" />
    <glyph glyph-name="emdash" unicode="&#x2014;" horiz-adv-x="986" 
d="M123 218v108h740v-108h-740z" />
    <glyph glyph-name="quoteleft" unicode="&#x2018;" horiz-adv-x="315" 
d="M220 714v-58q-61 -23 -61 -89h61v-135h-125v135q0 54 35 92t90 55z" />
    <glyph glyph-name="quoteright" unicode="&#x2019;" horiz-adv-x="315" 
d="M95 432v58q61 9 61 89h-61v135h125v-135q0 -58 -34 -98.5t-91 -48.5z" />
    <glyph glyph-name="quotesinglbase" unicode="&#x201a;" horiz-adv-x="315" 
d="M95 -147v58q61 22 61 89h-61v135h125v-135q0 -54 -35.5 -93.5t-89.5 -53.5z" />
    <glyph glyph-name="quotedblleft" unicode="&#x201c;" horiz-adv-x="514" 
d="M419 714v-58q-61 -23 -61 -89h61v-135h-125v135q0 54 35 92t90 55zM220 714v-58q-61 -23 -61 -89h61v-135h-125v135q0 54 35 92t90 55z" />
    <glyph glyph-name="quotedblright" unicode="&#x201d;" horiz-adv-x="514" 
d="M294 432v58q61 22 61 89h-61v135h125v-135q0 -54 -35.5 -93.5t-89.5 -53.5zM95 432v58q61 22 61 89h-61v135h125v-135q0 -54 -35.5 -93.5t-89.5 -53.5z" />
    <glyph glyph-name="quotedblbase" unicode="&#x201e;" horiz-adv-x="514" 
d="M294 -147v58q61 22 61 89h-61v135h125v-135q0 -54 -35.5 -93.5t-89.5 -53.5zM95 -147v58q61 22 61 89h-61v135h125v-135q0 -54 -35.5 -93.5t-89.5 -53.5z" />
    <glyph glyph-name="dagger" unicode="&#x2020;" horiz-adv-x="547" 
d="M216 -160v582h-191v95h191v197h114v-197h191v-95h-191v-582h-114z" />
    <glyph glyph-name="daggerdbl" unicode="&#x2021;" horiz-adv-x="547" 
d="M216 -160v197h-191v95h191v290h-191v95h191v197h114v-197h191v-95h-191v-290h191v-95h-191v-197h-114z" />
    <glyph glyph-name="bullet" unicode="&#x2022;" horiz-adv-x="487" 
d="M65 357q0 74 52 126t126 52t126.5 -52t52.5 -126t-52.5 -126.5t-126.5 -52.5t-126 52.5t-52 126.5z" />
    <glyph glyph-name="ellipsis" unicode="&#x2026;" horiz-adv-x="993" 
d="M759 0v135h139v-135h-139zM426 0v135h139v-135h-139zM93 0v135h139v-135h-139z" />
    <glyph glyph-name="perthousand" unicode="&#x2030;" horiz-adv-x="1104" 
d="M896 46q64 0 64 105q0 118 -64 118t-64 -118q0 -105 64 -105zM896 -14q-77 0 -113 50t-36 118q0 77 37.5 126t111.5 49t111.5 -49t37.5 -126q0 -68 -36 -118t-113 -50zM555 46q64 0 64 105q0 118 -64 118t-64 -118q0 -105 64 -105zM555 -14q-71 0 -110 47.5t-39 120.5
q0 76 37.5 125.5t111.5 49.5t111.5 -49.5t37.5 -125.5q0 -73 -39 -120.5t-110 -47.5zM144 -24l398 748h73l-400 -748h-71zM210 654q-64 0 -64 -122q0 -101 64 -101t64 101q0 122 -64 122zM210 714q74 0 111.5 -50.5t37.5 -128.5q0 -66 -36 -115t-113 -49t-113 49t-36 115
q0 78 37.5 128.5t111.5 50.5z" />
    <glyph glyph-name="guilsinglleft" unicode="&#x2039;" horiz-adv-x="240" 
d="M194 93l-155 123v112l155 123v-103l-95 -76l95 -76v-103z" />
    <glyph glyph-name="guilsinglright" unicode="&#x203a;" horiz-adv-x="239" 
d="M45 451l155 -123v-112l-155 -123v103l95 76l-95 76v103z" />
    <glyph glyph-name="fraction" unicode="&#x2044;" horiz-adv-x="151" 
d="M-173 -24l419 748h78l-418 -748h-79z" />
    <glyph glyph-name="Euro" unicode="&#x20ac;" horiz-adv-x="533" 
d="M553 652l-46 -91q-64 64 -140 64q-67 0 -112 -53q-37 -46 -51 -117h264l-26 -64h-245q-1 -3 -1 -14v-23q0 -28 1 -31h231l-25 -63h-201q12 -80 51 -127q45 -57 122 -57q51 0 83 16q30 15 68 50v-111q-68 -44 -151 -44q-134 0 -209 82q-64 70 -81 191h-77l27 63h45
q-2 18 -2 32q0 6 2 36h-72l26 64h53q25 115 91 182q77 77 197 77q86 0 178 -62z" />
    <glyph glyph-name="afii61289" unicode="&#x2113;" horiz-adv-x="490" 
d="M435 48q-71 -62 -155 -62q-70 0 -110 37.5t-40 101.5v70l-57 -53h-2l-39 60l97 85v246q0 83 45.5 135.5t115.5 52.5q61 0 97.5 -39t36.5 -103q0 -143 -183 -310v-126q0 -40 19.5 -57.5t46.5 -17.5q41 0 88 38h2zM333 572q0 32 -12.5 53t-31.5 21q-20 0 -34 -24.5
t-14 -67.5v-190q92 101 92 208z" />
    <glyph glyph-name="trademark" unicode="&#x2122;" horiz-adv-x="1002" 
d="M594 714l113 -292l112 292h115v-412h-75v322h-2l-123 -322h-56l-123 322h-2v-322h-75v412h116zM394 714v-65h-126v-347h-80v347h-126v65h332z" />
    <glyph glyph-name="Omega" unicode="&#x2126;" horiz-adv-x="743" 
d="M693 0h-272v188q76 15 118 73.5t42 138.5q0 94 -60 158t-153 64q-94 0 -154 -64.5t-60 -159.5q0 -82 40 -137t118 -73v-188h-271v91h183v47q-89 29 -136 100.5t-47 167.5q0 136 94.5 225.5t231.5 89.5q138 0 232 -87t94 -225q0 -98 -47 -171t-137 -100v-47h184v-91z" />
    <glyph glyph-name="estimated" unicode="&#x212e;" horiz-adv-x="586" 
d="M554 259h-404v-181q59 -59 145 -59q122 0 193 120l35 -21q-46 -72 -98 -103.5t-130 -31.5q-115 0 -186.5 79t-71.5 197q0 119 71 197.5t187 78.5q115 0 186.5 -77t72.5 -199zM150 295h291v145q-63 60 -147 60t-144 -60v-145z" />
    <glyph glyph-name="partialdiff" unicode="&#x2202;" horiz-adv-x="536" 
d="M390 264l-1 23q-57 67 -129 67q-60 0 -92.5 -42t-32.5 -103q0 -59 30 -100t87 -41q66 0 103.5 63t34.5 133zM500 359q0 -55 -6 -103.5t-23 -99t-44 -86.5t-73 -59t-106 -23q-97 0 -156.5 64.5t-59.5 162.5q0 95 58.5 157t153.5 62q80 0 147 -58l1 30q2 54 -11.5 104
t-51.5 89t-94 39t-118 -48l-57 66q44 34 82 49.5t89 15.5q74 0 128 -31.5t83.5 -85.5t43.5 -115t14 -130z" />
    <glyph glyph-name="Delta" unicode="&#x2206;" horiz-adv-x="674" 
d="M519 98l-190 490l-180 -490h370zM670 0h-666l272 712h110z" />
    <glyph glyph-name="product" unicode="&#x220f;" horiz-adv-x="717" 
d="M664 -214h-108v902h-396v-902h-107v1000h611v-1000z" />
    <glyph glyph-name="summation" unicode="&#x2211;" horiz-adv-x="632" 
d="M612 -214h-593v86l306 419l-293 411v84h567v-98h-424l279 -396l-297 -409h455v-97z" />
    <glyph glyph-name="minus" unicode="&#x2212;" horiz-adv-x="586" 
d="M545 202h-504v102h504v-102z" />
    <glyph glyph-name="uni2215" unicode="&#x2215;" horiz-adv-x="151" 
d="M-173 -24l419 748h78l-418 -748h-79z" />
    <glyph glyph-name="uni2219" unicode="&#x2219;" horiz-adv-x="263" 
d="M57 302q0 29 22.5 51.5t52.5 22.5t52.5 -22.5t22.5 -51.5q0 -30 -22.5 -53t-52.5 -23t-52.5 23t-22.5 53z" />
    <glyph glyph-name="radical" unicode="&#x221a;" horiz-adv-x="522" 
d="M539 786l-211 -1000h-101l-153 319l-50 -23l-40 85l143 65l133 -281l170 835h109z" />
    <glyph glyph-name="infinity" unicode="&#x221e;" horiz-adv-x="791" 
d="M341 258q-86 86 -140 86q-35 0 -56.5 -25t-21.5 -60q0 -37 21.5 -60t59.5 -23q35 0 72 24.5t65 57.5zM668 259q0 38 -21.5 62t-58.5 24q-9 0 -17.5 -1.5t-18 -6t-16 -7.5t-16.5 -10.5t-15 -11t-15.5 -13.5t-13 -12.5l-13.5 -13.5l-12 -12q76 -82 140 -82q36 0 56.5 24
t20.5 60zM754 262q0 -77 -44.5 -128t-120.5 -51q-55 0 -100.5 30t-92.5 82q-32 -32 -43.5 -42.5t-39 -31.5t-53 -28.5t-56.5 -7.5q-75 0 -121 49.5t-46 125.5t45 126t119 50q59 0 102.5 -30.5t92.5 -87.5q48 56 93 87.5t101 31.5q74 0 119 -49.5t45 -125.5z" />
    <glyph glyph-name="integral" unicode="&#x222b;" horiz-adv-x="569" 
d="M458 713q0 -21 -15 -35t-36 -14q-25 0 -37.5 16t-18 32.5t-15.5 16.5q-19 0 -19 -32q0 -22 1 -66.5t1 -66.5l1 -524v-36.5t-1 -36.5t-3 -40t-7 -35t-11.5 -35t-17.5 -27.5t-25 -24t-33 -13.5t-43 -6q-38 0 -70 18.5t-32 53.5q0 21 13.5 35t34.5 14q25 0 37 -16.5
t18 -33.5t15 -17q7 0 11.5 3t6 10.5t2 11.5t-0.5 14v10q0 16 -1.5 48.5t-1.5 48.5v535v20q0 36 0.5 56t4 54t12.5 53.5t24 40.5t40.5 31t60.5 10q38 0 71.5 -18.5t33.5 -54.5z" />
    <glyph glyph-name="approxequal" unicode="&#x2248;" horiz-adv-x="572" 
d="M485 241h67q-7 -72 -42 -119.5t-103 -47.5q-43 0 -137 34.5t-120 34.5q-27 0 -44 -20t-21 -49h-68q7 71 42 119.5t101 48.5q43 0 132.5 -33.5t128.5 -33.5q51 0 64 66zM486 444h68q-7 -72 -42 -119.5t-103 -47.5q-43 0 -137 34.5t-120 34.5q-51 0 -65 -69h-68
q7 71 42 119.5t101 48.5q42 0 132.5 -33.5t128.5 -33.5q50 0 63 66z" />
    <glyph glyph-name="notequal" unicode="&#x2260;" horiz-adv-x="575" 
d="M547 99h-285l-78 -152l-89 46l55 106h-122v102h173l61 117h-234v101h285l77 152l89 -45l-54 -107h122v-101h-174l-60 -117h234v-102z" />
    <glyph glyph-name="lessequal" unicode="&#x2264;" horiz-adv-x="575" 
d="M547 -35h-519v101h519v-101zM547 100l-519 172v103l519 179v-107l-381 -123l381 -117v-107z" />
    <glyph glyph-name="greaterequal" unicode="&#x2265;" horiz-adv-x="575" 
d="M547 -35h-519v101h519v-101zM547 272l-519 -172v107l380 117l-380 123v107l519 -179v-103z" />
    <glyph glyph-name="lozenge" unicode="&#x25ca;" horiz-adv-x="564" 
d="M403 356l-122 290l-119 -290l119 -291zM506 356l-177 -391h-95l-176 391l176 391h95z" />
    <glyph glyph-name="dotlessj" unicode="&#xe0d6;" horiz-adv-x="229" 
d="M56 -39v556h114v-561q0 -80 -35 -120.5t-113 -40.5q-31 0 -51 4v90q20 -4 39 -4q29 0 37.5 17t8.5 59z" />
    <glyph glyph-name="grave.cap" unicode="&#xe300;" horiz-adv-x="216" 
d="M-49 926h134l91 -143h-83z" />
    <glyph glyph-name="acute.cap" unicode="&#xe301;" horiz-adv-x="215" 
d="M40 783l90 143h135l-142 -143h-83z" />
    <glyph glyph-name="circumflex.cap" unicode="&#xe302;" horiz-adv-x="214" 
d="M107 873l-70 -90h-92l107 143h111l108 -143h-93z" />
    <glyph glyph-name="caron.cap" unicode="&#xe303;" horiz-adv-x="214" 
d="M269 926l-108 -143h-111l-107 143h92l70 -89l71 89h93z" />
    <glyph glyph-name="tilde.cap" unicode="&#xe304;" horiz-adv-x="225" 
d="M233 914h56q-9 -55 -33 -81q-28 -34 -78 -34q-31 0 -74 19q-43 18 -68 18q-35 0 -43 -41h-57q7 44 34.5 78.5t69.5 34.5q33 0 81 -20q42 -18 62 -18q39 0 50 44z" />
    <glyph glyph-name="dieresis.cap" unicode="&#xe305;" horiz-adv-x="198" 
d="M70 796h-114v108h114v-108zM128 904h114v-108h-114v108z" />
    <glyph glyph-name="macron.cap" unicode="&#xe306;" horiz-adv-x="150" 
d="M219 818h-288v65h288v-65z" />
    <glyph glyph-name="breve.cap" unicode="&#xe307;" horiz-adv-x="223" 
d="M-50 925h58q15 -76 107 -76q39 0 66 19.5t35 56.5h57q-8 -70 -51.5 -105.5t-114.5 -35.5q-69 0 -110 36t-47 105z" />
    <glyph glyph-name="ring.cap" unicode="&#xe308;" horiz-adv-x="193" 
d="M37 854q0 -26 17.5 -43.5t42.5 -17.5q26 0 43 17.5t17 43.5q0 27 -17 44t-43 17q-25 0 -42.5 -17t-17.5 -44zM97 751q-44 0 -74 29t-30 74t30.5 74t73.5 29t73.5 -29t30.5 -74t-30.5 -74t-73.5 -29z" />
    <glyph glyph-name="hungarumlaut.cap" unicode="&#xe309;" horiz-adv-x="233" 
d="M145 783l90 143h136l-144 -143h-82zM-54 783l90 143h136l-144 -143h-82z" />
    <glyph glyph-name="dotaccent.cap" unicode="&#xe30a;" horiz-adv-x="221" 
d="M167 796h-114v108h114v-108z" />
    <glyph glyph-name="caron.alt" unicode="&#xe30b;" horiz-adv-x="210" 
d="M79 571l32 143h125l-81 -143h-76z" />
    <glyph glyph-name="commaaccent" unicode="&#xe30c;" horiz-adv-x="270" 
d="M75 -149v99h131v-89q0 -79 -116 -84v38q40 6 45 36h-60z" />
    <glyph glyph-name="commaaccent.alt" unicode="&#xe30d;" horiz-adv-x="270" 
d="M201 714v-99h-131v89q0 79 116 84v-38q-40 -6 -45 -36h60z" />
    <glyph glyph-name="uniF8FF" unicode="&#xf8ff;" horiz-adv-x="498" 
d="M271 117h-56v67h56v-67zM264 234h-46l-2 17q0 56 13 81q15 28 46 59q31 29 40.5 46t9.5 37q0 36 -22.5 60.5t-53.5 24.5q-71 0 -82 -95l-50 8q7 69 43 103t92 34q54 0 89 -36t35 -95q0 -34 -13 -60t-50 -60q-37 -33 -43 -52q-6 -20 -6 -72zM43 50h412v617h-412v-617z
M-7 718h512v-718h-512v718z" />
    </font>
</defs>
</svg>
