<?xml version="1.0" standalone="no"?>
<!DOCTYPE svg PUBLIC "-//W3C//DTD SVG 1.1//EN" "http://www.w3.org/Graphics/SVG/1.1/DTD/svg11.dtd" >
<svg>
<metadata>
Created by FontForge 20110222 at Wed Apr  9 11:27:47 2014
 By Orthosie Webhosting
Part of the digitally encoded machine readable outline data for producing the Typefaces provided is copyrighted (c) 2003 - 2006 Linotype GmbH, www.linotype.com. All rights reserved. This software is the property of Linotype GmbH, and may not be reproduced, modified, disclosed or transferred without the express written approval of Linotype GmbH. Copyright (c) 1988, 1990, 1993 Adobe Systems Incorporated. All Rights Reserved. Helvetica is a trademark of Heidelberger Druckmaschinen AG, exclusively licensed through Linotype GmbH, and may be registered in certain jurisdictions. This typeface is original artwork of Linotype Design Studio. The design may be protected in certain jurisdictions.
</metadata>
<defs>
<font id="HelvNeueBoldItalicforIBMRegular" horiz-adv-x="241" >
  <font-face 
    font-family="HelvNeueBoldItalicforIBMRegular"
    font-weight="700"
    font-style="italic"
    font-stretch="normal"
    units-per-em="1000"
    panose-1="2 11 8 4 2 2 2 9 2 4"
    ascent="714"
    descent="-286"
    x-height="517"
    cap-height="714"
    bbox="-175 -217.051 1115 986"
    underline-thickness="50"
    underline-position="-50"
    unicode-range="U+000D-FB02"
  />
<missing-glyph horiz-adv-x="494" 
d="M269 117h-56v67h56v-67zM262 234h-46l-2 17q0 56 13 81q15 28 46 59q31 29 40.5 46t9.5 37q0 36 -22.5 60.5t-53.5 24.5q-71 0 -82 -95l-50 8q7 69 43 103t92 34q54 0 89 -36t35 -95q0 -34 -13 -60t-50 -60q-37 -33 -43 -52q-6 -20 -6 -72zM41 50h412v617h-412v-617z
M-9 718h512v-718h-512v718z" />
    <glyph glyph-name="IJ" unicode="IJ" horiz-adv-x="829" 
d="M-18 0l151 714h158l-151 -714h-158zM852 714l-106 -511q-25 -109 -87 -164.5t-174 -55.5q-93 0 -155 42.5t-62 130.5q0 41 13 110h143q-14 -62 -14 -84q0 -31 22.5 -49t54.5 -18q20 0 35 3.5t26 14.5t17.5 18t13 26.5t8.5 27t8 32.5l99 477h158z" />
    <glyph glyph-name="ij" unicode="ij" horiz-adv-x="537" 
d="M277 714l-26 -117h-143l26 117h143zM-18 0l110 517h143l-110 -517h-143zM557 714l-26 -117h-143l26 117h143zM142 -177l24 114q34 -2 51 -2q11 0 19.5 6.5t14 19t9 22.5t7 25.5t4.5 19.5l103 489h142l-113 -536q-19 -87 -59.5 -125t-132.5 -38q-13 0 -36.5 2.5t-32.5 2.5
z" />
    <glyph glyph-name="napostrophe" unicode="&#x22;n" horiz-adv-x="613" 
d="M-1 0l108 517h136l-16 -72h2q69 86 181 86q151 0 151 -139q0 -10 -3 -27.5t-7 -37t-5 -24.5l-64 -303h-142l63 303q9 48 9 63q0 22 -21 37.5t-47 15.5q-60 0 -95.5 -41t-49.5 -103l-58 -275h-142zM68 714l19 93h145l-15 -73q-15 -58 -51.5 -76.5t-103.5 -17.5l8 37
q49 5 65 37h-67z" />
    <glyph glyph-name="fi" unicode="fi" horiz-adv-x="593" 
d="M8 0l89 422h-84l20 95h85q12 57 22.5 88.5t32 61t56.5 41.5t90 12q43 0 93 -8l-22 -102q-45 3 -46 3q-15 0 -26 -2t-19 -7t-13 -9.5t-9 -15t-6 -17t-5.5 -22t-5.5 -23.5h101l-20 -95h-102l-89 -422h-142zM332 0l110 517h142l-110 -517h-142zM626 714l-26 -117h-142
l26 117h142z" />
    <glyph glyph-name="fl" unicode="fl" horiz-adv-x="593" 
d="M8 0l89 422h-84l20 95h85q12 57 22.5 88.5t32 61t56.5 41.5t90 12q43 0 93 -8l-22 -102q-45 3 -46 3q-15 0 -26 -2t-19 -7t-13 -9.5t-9 -15t-6 -17t-5.5 -22t-5.5 -23.5h101l-20 -95h-102l-89 -422h-142zM331 0l152 714h142l-152 -714h-142z" />
    <glyph glyph-name=".notdef" horiz-adv-x="494" 
d="M269 117h-56v67h56v-67zM262 234h-46l-2 17q0 56 13 81q15 28 46 59q31 29 40.5 46t9.5 37q0 36 -22.5 60.5t-53.5 24.5q-71 0 -82 -95l-50 8q7 69 43 103t92 34q54 0 89 -36t35 -95q0 -34 -13 -60t-50 -60q-37 -33 -43 -52q-6 -20 -6 -72zM41 50h412v617h-412v-617z
M-9 718h512v-718h-512v718z" />
    <glyph glyph-name=".null" horiz-adv-x="500" 
 />
    <glyph glyph-name=".null" horiz-adv-x="500" 
 />
    <glyph glyph-name="nonmarkingreturn" horiz-adv-x="333" 
 />
    <glyph glyph-name="CR" unicode="&#xd;" horiz-adv-x="0" 
 />
    <glyph glyph-name="space" unicode=" " horiz-adv-x="238" 
 />
    <glyph glyph-name="exclam" unicode="!" horiz-adv-x="278" 
d="M292 714l-42 -194l-105 -306h-70l25 306l41 194h151zM-13 0l33 154h158l-33 -154h-158z" />
    <glyph glyph-name="quotedbl" unicode="&#x22;" horiz-adv-x="463" 
d="M118 393v321h107v-321h-107zM304 393v321h107v-321h-107z" />
    <glyph glyph-name="numbersign" unicode="#" horiz-adv-x="538" 
d="M323 412h-96l-18 -124h97zM72 0l28 198h-83l10 90h85l18 124h-83l10 90h85l28 198h97l-28 -198h97l27 198h97l-27 -198h84l-10 -90h-87l-17 -124h84l-10 -90h-87l-27 -198h-97l27 198h-96l-28 -198h-97z" />
    <glyph glyph-name="dollar" unicode="$" horiz-adv-x="538" 
d="M177 -104l18 90q-101 11 -150.5 72.5t-47.5 181.5h137q-4 -120 83 -135l40 206l-11 4q-46 16 -72 28t-55 34t-42 56t-13 82q0 106 78 161t192 55h3l16 79h48l-17 -86q81 -17 129.5 -72t40.5 -146h-137q4 73 -57 99l-33 -177q38 -12 60 -20.5t51 -25t44 -36t26 -51
t11 -72.5q0 -62 -24 -109.5t-64.5 -75t-88 -41.5t-99.5 -14l-17 -87h-49zM282 444l32 170h-7q-40 0 -73 -23t-33 -65q0 -55 81 -82zM303 296l-38 -196q46 0 81.5 26t35.5 78q0 25 -13 44.5t-28 28.5t-38 19z" />
    <glyph glyph-name="percent" unicode="%" horiz-adv-x="945" 
d="M533 144q0 95 50.5 163.5t142.5 68.5q76 0 117 -38.5t41 -113.5q0 -98 -55 -168t-149 -70q-71 0 -109 43.5t-38 114.5zM635 126q0 -65 52 -65q33 0 56 35.5t31 75t8 73.5q0 23 -13 39.5t-35 16.5q-36 0 -60 -33t-31.5 -69.5t-7.5 -72.5zM166 -22l538 744h85l-537 -744
h-86zM166 464q0 -65 52 -65q33 0 56 35.5t31 75t8 73.5q0 23 -13 39.5t-35 16.5q-36 0 -60 -33t-31.5 -69.5t-7.5 -72.5zM64 482q0 95 50.5 163.5t142.5 68.5q76 0 117 -38.5t41 -113.5q0 -98 -55 -168t-149 -70q-71 0 -109 43.5t-38 114.5z" />
    <glyph glyph-name="ampersand" unicode="&#x26;" horiz-adv-x="667" 
d="M279 554q0 -38 38 -100q39 18 70.5 45.5t31.5 59.5q0 30 -18 49t-45 19q-32 0 -54.5 -19t-22.5 -54zM450 0l-32 56q-86 -70 -192 -70q-90 0 -154.5 53.5t-64.5 143.5q0 151 193 227q-48 81 -48 126q0 86 54.5 136t142.5 50q79 0 133 -42.5t54 -119.5q0 -46 -27.5 -85.5
t-58 -61t-78.5 -47.5l77 -124q37 38 52 101h127q-24 -123 -113 -203l91 -140h-156zM356 156l-98 159q-3 -1 -18.5 -10t-19 -11.5t-16.5 -10.5t-17 -12t-13.5 -12.5t-13 -15.5l-8.5 -17t-6.5 -20.5t-1.5 -22.5q0 -35 28.5 -57.5t65.5 -22.5q53 0 118 53z" />
    <glyph glyph-name="quotesingle" unicode="'" horiz-adv-x="260" 
d="M101 393v321h107v-321h-107z" />
    <glyph glyph-name="parenleft" unicode="(" horiz-adv-x="278" 
d="M253 731h125q-127 -168 -178 -317.5t-51 -332.5q0 -98 38 -263h-108q-26 58 -44 155.5t-18 164.5q0 175 57 307t179 286z" />
    <glyph glyph-name="parenright" unicode=")" horiz-adv-x="278" 
d="M4 -182h-125q127 168 178 317.5t51 332.5q0 98 -38 263h108q25 -60 43.5 -157.5t18.5 -162.5q0 -174 -57 -306t-179 -287z" />
    <glyph glyph-name="asterisk" unicode="*" horiz-adv-x="389" 
d="M304 710l-24 -128l121 23l14 -79l-120 -18l57 -105l-72 -39l-55 109l-86 -97l-58 56l89 92l-108 52l34 73l109 -55l17 120z" />
    <glyph glyph-name="plus" unicode="+" horiz-adv-x="582" 
d="M39 199v107h199v199h107v-199h199v-107h-199v-199h-107v199h-199z" />
    <glyph glyph-name="comma" unicode="," 
d="M-41 0l32 154h158q-6 -24 -13.5 -62.5t-13 -63.5t-15 -58t-23.5 -54t-35 -41t-52.5 -30t-72.5 -12l15 71q42 6 61 28.5t28 67.5h-69z" />
    <glyph glyph-name="hyphen" unicode="-" horiz-adv-x="389" 
d="M18 212l26 122h301l-26 -122h-301z" />
    <glyph glyph-name="period" unicode="." horiz-adv-x="240" 
d="M-42 0l33 154h158l-33 -154h-158z" />
    <glyph glyph-name="slash" unicode="/" horiz-adv-x="371" 
d="M-11 -17l279 748h114l-279 -748h-114z" />
    <glyph glyph-name="zero" unicode="0" horiz-adv-x="611" 
d="M165 226q0 -123 98 -123q41 0 74 29.5t52.5 72.5t33 95.5t18.5 95t5 75.5q0 56 -25 91t-77 35q-49 0 -86.5 -43t-56.5 -106.5t-27.5 -120.5t-8.5 -101zM23 255q0 77 21 155.5t60 147.5t104.5 112.5t145.5 43.5q114 0 174 -72t60 -193q0 -63 -13 -126.5t-40.5 -124.5
t-67 -108t-97 -75.5t-125.5 -28.5q-113 0 -167.5 76t-54.5 193z" />
    <glyph glyph-name="one" unicode="1" horiz-adv-x="417" 
d="M433 700l-148 -700h-151l96 454h-171l23 107q87 4 143 33.5t92 105.5h116z" />
    <glyph glyph-name="two" unicode="2" horiz-adv-x="575" 
d="M195 448h-135q10 125 85 195.5t196 70.5q102 0 167.5 -53.5t65.5 -157.5q0 -58 -30 -106.5t-79.5 -84t-101 -64.5t-105.5 -62.5t-82 -63.5h345l-28 -122h-519q3 42 14.5 78.5t34.5 66.5t44 52t58.5 46.5t62 38.5t68.5 37q10 6 43 24t50 29.5t39.5 30.5t33 41.5t10.5 49.5
q0 50 -29.5 74t-78.5 24q-56 0 -91.5 -42t-37.5 -102z" />
    <glyph glyph-name="three" unicode="3" horiz-adv-x="590" 
d="M241 317l19 100h43q55 0 94.5 21.5t39.5 71.5q0 43 -27.5 65t-68.5 22q-59 0 -90 -29t-44 -91h-135q16 114 87.5 175.5t183.5 61.5q96 0 163.5 -44.5t67.5 -138.5q0 -61 -36.5 -105t-95.5 -56v-2q98 -31 98 -143q0 -118 -81.5 -178.5t-206.5 -60.5q-128 0 -190.5 64.5
t-54.5 189.5h135q-7 -63 22.5 -100t91.5 -37q59 0 97 34t38 93q0 44 -27 65.5t-72 21.5h-51z" />
    <glyph glyph-name="four" unicode="4" horiz-adv-x="590" 
d="M565 700l-89 -421h93l-25 -117h-93l-35 -162h-135l35 162h-325l26 129l410 409h138zM133 279h208l57 269h-2z" />
    <glyph glyph-name="five" unicode="5" horiz-adv-x="577" 
d="M566 700l-25 -117h-298l-46 -149l2 -2q28 22 57.5 33t79.5 11q81 0 138 -57.5t57 -151.5q0 -128 -82 -204.5t-210 -76.5q-114 0 -178 54t-68 164h137q1 -50 33.5 -75.5t85.5 -25.5q58 0 99 42t41 105q0 59 -30.5 89t-88.5 30q-72 0 -112 -59h-128l122 390h414z" />
    <glyph glyph-name="six" unicode="6" horiz-adv-x="579" 
d="M578 519h-137q-1 40 -25.5 64t-63.5 24t-70 -18.5t-52.5 -54t-34 -64.5t-26.5 -72l2 -2q51 74 154 74q95 0 151 -58t56 -156q0 -113 -78 -191.5t-192 -78.5q-128 0 -188 77t-60 208q0 189 93 316t250 127q97 0 157 -48.5t64 -146.5zM151 221q0 -51 30 -84.5t77 -33.5
q61 0 96.5 40t35.5 102q0 58 -29.5 88t-81.5 30q-57 0 -92.5 -41.5t-35.5 -100.5z" />
    <glyph glyph-name="seven" unicode="7" horiz-adv-x="495" 
d="M549 700l-26 -122q-116 -96 -211 -259t-135 -319h-151q36 144 133.5 305t208.5 263h-344l28 132h497z" />
    <glyph glyph-name="eight" unicode="8" horiz-adv-x="600" 
d="M219 509q0 -46 35.5 -68.5t78.5 -22.5q47 0 80.5 25.5t33.5 68.5q0 47 -31.5 71t-79.5 24q-55 0 -86 -26t-31 -72zM92 509q0 94 75 149.5t189 55.5q97 0 157.5 -54.5t60.5 -133.5q0 -52 -38 -98t-97 -58v-2q44 -10 76.5 -57t32.5 -100q0 -102 -84.5 -163.5t-199.5 -61.5
q-113 0 -186.5 58t-73.5 148q0 143 175 185v2q-38 18 -62.5 52.5t-24.5 77.5zM146 201q0 -48 36.5 -78t86.5 -30q63 0 100 31.5t37 86.5q0 53 -37.5 82.5t-86.5 29.5q-60 0 -98 -31.5t-38 -90.5z" />
    <glyph glyph-name="nine" unicode="9" horiz-adv-x="599" 
d="M9 181h137q1 -40 25.5 -64t63.5 -24t70 18.5t52.5 53.5t34 64.5t26.5 72.5l-2 2q-51 -74 -154 -74q-95 0 -151 58t-56 156q0 113 78 191.5t192 78.5q128 0 188 -77t60 -208q0 -189 -93 -316t-250 -127q-97 0 -157 48.5t-64 146.5zM436 479q0 51 -30.5 84.5t-76.5 33.5
q-61 0 -96.5 -40t-35.5 -102q0 -58 29.5 -88t81.5 -30q57 0 92.5 41.5t35.5 100.5z" />
    <glyph glyph-name="colon" unicode=":" horiz-adv-x="260" 
d="M243 508l-33 -154h-158l33 154h158zM-22 0l33 154h158l-33 -154h-158z" />
    <glyph glyph-name="semicolon" unicode=";" horiz-adv-x="260" 
d="M52 354l33 154h158l-33 -154h-158zM-22 0l32 154h158q-6 -24 -13.5 -62.5t-13 -63.5t-15 -58t-23.5 -54t-35 -41t-52.5 -30t-72.5 -12l15 71q42 6 61 28.5t28 67.5h-69z" />
    <glyph glyph-name="less" unicode="&#x3c;" horiz-adv-x="582" 
d="M545 514v-115l-367 -146l367 -146v-115l-508 202v118z" />
    <glyph glyph-name="equal" unicode="=" horiz-adv-x="582" 
d="M544 199v-107h-505v107h505zM544 413v-107h-505v107h505z" />
    <glyph glyph-name="greater" unicode="&#x3e;" horiz-adv-x="582" 
d="M37 -8v115l367 146l-367 146v115l508 -202v-118z" />
    <glyph glyph-name="question" unicode="?" horiz-adv-x="556" 
d="M114 0l33 154h158l-33 -154h-158zM207 491h-142q6 116 83 178t195 62q93 0 155.5 -47t62.5 -138q0 -65 -37 -109t-102 -81q-52 -27 -80 -57t-34 -79h-132q13 91 48 132t117 84q71 42 71 100q0 38 -24.5 58t-62.5 20q-50 0 -81 -35t-37 -88z" />
    <glyph glyph-name="at" unicode="@" horiz-adv-x="782" 
d="M613 545l-63 -258q-8 -26 -8 -43q0 -23 17 -23q44 0 80 53t36 131q0 115 -76.5 180.5t-192.5 65.5q-127 0 -205 -83.5t-78 -212.5q0 -130 82.5 -211t212.5 -81q133 0 215 82h84q-51 -78 -131 -120t-174 -42q-161 0 -273 107.5t-112 266.5q0 157 111.5 265.5t268.5 108.5
q141 0 244.5 -85.5t103.5 -219.5q0 -72 -27.5 -131t-66.5 -91.5t-76.5 -50t-64.5 -17.5q-32 0 -51.5 16t-21.5 41h-2q-35 -58 -108 -58q-64 0 -110.5 50.5t-46.5 120.5q0 100 61.5 177.5t156.5 77.5q36 0 68.5 -17t48.5 -53l16 54h82zM282 319q0 -40 21.5 -64.5t56.5 -24.5
q51 0 87 48t36 103q0 36 -22.5 60.5t-54.5 24.5q-52 0 -88 -46.5t-36 -100.5z" />
    <glyph glyph-name="A" unicode="A" horiz-adv-x="677" 
d="M-85 0l422 714h161l119 -714h-156l-23 159h-267l-90 -159h-166zM387 560l-154 -284h191l-35 284h-2z" />
    <glyph glyph-name="B" unicode="B" horiz-adv-x="694" 
d="M258 592l-35 -167h178q45 0 75.5 24.5t30.5 69.5q0 73 -83 73h-166zM-18 0l150 714h300q117 0 174.5 -35.5t57.5 -131.5q0 -63 -36.5 -110.5t-97.5 -55.5v-2q50 -14 78 -53t28 -92q0 -111 -79.5 -172.5t-193.5 -61.5h-381zM201 318l-42 -196h197q56 0 89.5 30t33.5 85
q0 27 -10.5 44t-31 24.5t-38.5 10t-44 2.5h-154z" />
    <glyph glyph-name="C" unicode="C" horiz-adv-x="713" 
d="M699 466h-157q0 64 -34.5 98.5t-93.5 34.5q-76 0 -131 -47.5t-79 -113.5t-24 -139q0 -80 40.5 -132t121.5 -52q63 0 110 41.5t58 100.5h157q-47 -145 -127 -209.5t-200 -64.5q-151 0 -234 82t-83 234q0 116 46.5 214t136.5 158t207 60q129 0 208.5 -69.5t77.5 -195.5z
" />
    <glyph glyph-name="D" unicode="D" horiz-adv-x="713" 
d="M263 582l-96 -450h121q116 0 182.5 79.5t66.5 197.5q0 173 -156 173h-118zM-18 0l151 714h258q149 0 226 -72.5t77 -205.5q0 -194 -107 -315t-306 -121h-299z" />
    <glyph glyph-name="E" unicode="E" horiz-adv-x="639" 
d="M-18 0l150 714h545l-27 -132h-388l-32 -153h359l-26 -122h-359l-37 -175h394l-28 -132h-551z" />
    <glyph glyph-name="F" unicode="F" horiz-adv-x="592" 
d="M-18 0l151 714h508l-29 -132h-350l-35 -165h306l-26 -122h-305l-63 -295h-157z" />
    <glyph glyph-name="G" unicode="G" horiz-adv-x="737" 
d="M522 0v73h-2q-66 -90 -180 -90q-151 0 -234 82t-83 234q0 116 46.5 214t136.5 158t207 60q133 0 218 -64t85 -189h-157q-6 121 -145 121q-76 0 -131 -47.5t-79 -113.5t-24 -139q0 -80 40.5 -132t121.5 -52q84 0 130 40t68 114h-165l25 117h303l-82 -386h-99z" />
    <glyph glyph-name="H" unicode="H" horiz-adv-x="713" 
d="M-18 0l151 714h158l-58 -274h289l58 274h158l-151 -714h-158l65 308h-289l-65 -308h-158z" />
    <glyph glyph-name="I" unicode="I" horiz-adv-x="268" 
d="M-18 0l151 714h158l-151 -714h-158z" />
    <glyph glyph-name="J" unicode="J" horiz-adv-x="542" 
d="M565 714l-106 -511q-25 -109 -87 -164.5t-174 -55.5q-93 0 -155 42.5t-62 130.5q0 41 13 110h143q-14 -62 -14 -84q0 -31 22.5 -49t54.5 -18q20 0 35 3.5t26 14.5t17.5 18t13 26.5t8.5 27t8 32.5l99 477h158z" />
    <glyph glyph-name="K" unicode="K" horiz-adv-x="694" 
d="M-18 0l149 714h157l-62 -299h2l324 299h208l-343 -294l219 -420h-177l-163 321l-109 -95l-47 -226h-158z" />
    <glyph glyph-name="L" unicode="L" horiz-adv-x="574" 
d="M-18 0l150 714h158l-122 -582h345l-28 -132h-503z" />
    <glyph glyph-name="M" unicode="M" horiz-adv-x="879" 
d="M-18 0l151 714h217l55 -517h2l275 517h219l-151 -714h-147l130 568h-2l-302 -568h-120l-69 568h-2l-107 -568h-149z" />
    <glyph glyph-name="N" unicode="N" horiz-adv-x="713" 
d="M-18 0l151 714h162l194 -508h2l102 508h144l-151 -714h-157l-196 501h-2l-102 -501h-147z" />
    <glyph glyph-name="O" unicode="O" horiz-adv-x="750" 
d="M23 299q0 116 46.5 214t136.5 158t207 60q147 0 232 -79t85 -227q0 -120 -44.5 -219t-134.5 -161t-211 -62q-151 0 -234 82t-83 234zM180 299q0 -80 40.5 -132t121.5 -52q73 0 127.5 47.5t79 113.5t24.5 138q0 82 -38.5 133.5t-120.5 51.5q-76 0 -131 -47.5t-79 -113.5
t-24 -139z" />
    <glyph glyph-name="P" unicode="P" horiz-adv-x="645" 
d="M-18 0l149 714h286q248 0 248 -208q0 -114 -81 -182t-197 -68h-194l-54 -256h-157zM263 592l-44 -214h160q61 0 95 31.5t34 93.5q0 89 -111 89h-134z" />
    <glyph glyph-name="Q" unicode="Q" horiz-adv-x="753" 
d="M668 -9l-84 -70l-84 96q-69 -34 -160 -34q-151 0 -234 82t-83 234q0 116 46.5 214t136.5 158t207 60q147 0 232 -79t85 -227q0 -104 -35.5 -195t-102.5 -153zM348 189l84 69l63 -71q38 44 58 104.5t20 122.5q0 82 -38.5 133.5t-120.5 51.5q-76 0 -131 -47.5t-79 -113.5
t-24 -139q0 -80 40.5 -132t121.5 -52q31 0 62 11z" />
    <glyph glyph-name="R" unicode="R" horiz-adv-x="687" 
d="M264 592l-42 -201h145q69 0 115.5 28.5t46.5 84.5q0 53 -30.5 70.5t-85.5 17.5h-149zM-18 0l150 714h341q213 5 213 -187q0 -73 -46 -127.5t-118 -64.5v-2q74 -24 74 -126q0 -15 -2.5 -57.5t-2.5 -66.5q0 -57 10 -83h-153q-7 30 -7 48q0 24 4 72.5t4 72.5
q0 49 -26.5 67.5t-76.5 18.5h-148l-59 -279h-157z" />
    <glyph glyph-name="S" unicode="S" horiz-adv-x="620" 
d="M-9 237h149q-4 -71 37.5 -101.5t116.5 -30.5q54 0 95 26t41 75q0 14 -5 26t-16 21.5t-22 16.5t-30.5 14t-32.5 11t-37.5 11t-37.5 11q-82 24 -131 66.5t-49 125.5q0 57 24.5 101t65.5 70t90 38.5t103 12.5q119 0 193.5 -56.5t74.5 -173.5h-149q2 56 -33 82t-95 26
q-52 0 -88.5 -21.5t-36.5 -67.5q0 -11 4 -21.5t12.5 -18.5t16.5 -14.5t22.5 -12.5t23 -10t26 -8.5t24 -6t23 -5.5t18.5 -4q95 -25 143 -68t48 -132q0 -61 -26 -108.5t-69 -74t-92.5 -40t-103.5 -13.5q-150 0 -223.5 62.5t-73.5 191.5z" />
    <glyph glyph-name="T" unicode="T" horiz-adv-x="631" 
d="M173 0l122 582h-224l28 132h596l-28 -132h-214l-122 -582h-158z" />
    <glyph glyph-name="U" unicode="U" horiz-adv-x="713" 
d="M736 714l-87 -415q-34 -163 -110 -239.5t-234 -76.5q-75 0 -135.5 19.5t-103 69t-42.5 123.5q0 31 15 106l87 413h157l-87 -413q-15 -69 -15 -90q0 -36 30.5 -66t103.5 -30q38 0 65.5 8.5t44.5 21.5t30 38t20 47.5t15 60.5l89 423h157z" />
    <glyph glyph-name="V" unicode="V" horiz-adv-x="619" 
d="M706 714l-381 -714h-177l-82 714h157l47 -536h2l271 536h163z" />
    <glyph glyph-name="W" unicode="W" horiz-adv-x="933" 
d="M1009 714l-335 -714h-156l-18 510h-2l-222 -510h-158l-49 714h157l10 -523h2l226 523h150l18 -521h2l218 521h157z" />
    <glyph glyph-name="X" unicode="X" horiz-adv-x="651" 
d="M-79 0l325 376l-167 338h171l101 -236l183 236h186l-297 -345l177 -369h-173l-112 255l-204 -255h-190z" />
    <glyph glyph-name="Y" unicode="Y" horiz-adv-x="647" 
d="M175 0l57 277l-171 437h161l107 -304l222 304h185l-348 -444l-55 -270h-158z" />
    <glyph glyph-name="Z" unicode="Z" horiz-adv-x="641" 
d="M-51 0l27 130l477 452h-366l29 132h564l-26 -126l-481 -456h403l-26 -132h-601z" />
    <glyph glyph-name="bracketleft" unicode="[" horiz-adv-x="315" 
d="M-46 -182l192 913h258l-24 -112h-125l-145 -689h126l-24 -112h-258z" />
    <glyph glyph-name="backslash" unicode="\" horiz-adv-x="371" 
d="M103 731l279 -748h-114l-279 748h114z" />
    <glyph glyph-name="bracketright" unicode="]" horiz-adv-x="315" 
d="M329 731l-192 -913h-258l24 112h125l145 689h-126l24 112h258z" />
    <glyph glyph-name="asciicircum" unicode="^" horiz-adv-x="582" 
d="M52 315l172 385h134l172 -385h-117l-122 275l-122 -275h-117z" />
    <glyph glyph-name="underscore" unicode="_" horiz-adv-x="482" 
d="M-9 -125v50h500v-50h-500z" />
    <glyph glyph-name="grave" unicode="`" 
d="M167 731l88 -142h-100l-140 142h152z" />
    <glyph glyph-name="a" unicode="a" horiz-adv-x="538" 
d="M166 360h-133q9 62 46.5 101.5t86.5 54.5t112 15q40 0 74 -5.5t68.5 -19t54 -42t18.5 -69.5q0 -37 -11 -87l-46 -208q-7 -27 -7 -70q0 -13 5 -30h-142v51q-58 -65 -158 -65q-80 0 -124 39t-44 97q0 74 52 119.5t146 56.5q22 3 52.5 6t45.5 4.5t35 4.5t29 7.5t18.5 11.5
t13 17t3.5 24q0 35 -27.5 49t-62.5 14q-41 0 -70 -19.5t-35 -56.5zM319 198l14 50q-32 -19 -120 -25q-48 -5 -76.5 -22.5t-28.5 -61.5q0 -28 22.5 -43t55.5 -15q59 0 88.5 32t44.5 85z" />
    <glyph glyph-name="b" unicode="b" horiz-adv-x="593" 
d="M-21 0l150 714h142l-53 -252h2q34 37 68.5 53t84.5 16q94 0 140 -61.5t46 -158.5q0 -83 -29.5 -155.5t-92 -121t-146.5 -48.5q-129 0 -162 95h-2l-17 -81h-131zM316 424q-52 0 -88.5 -37.5t-51 -86t-14.5 -98.5q0 -49 27.5 -79t75.5 -30q51 0 87 36.5t50.5 83.5t14.5 96
q0 52 -24.5 83.5t-76.5 31.5z" />
    <glyph glyph-name="c" unicode="c" horiz-adv-x="545" 
d="M524 338h-142q0 86 -95 86q-38 0 -67.5 -21.5t-45.5 -55.5t-24 -70t-8 -72q0 -50 23.5 -81t74.5 -31q85 0 115 96h142q-68 -203 -267 -203q-111 0 -170.5 55t-59.5 167q0 137 78.5 230t213.5 93q101 0 165.5 -47.5t66.5 -145.5z" />
    <glyph glyph-name="d" unicode="d" horiz-adv-x="603" 
d="M293 424q-51 0 -87.5 -36t-52 -83.5t-15.5 -96.5t26.5 -82t74.5 -33q50 0 87 37t53 85.5t16 96.5q0 52 -26 82t-76 30zM336 0l14 64l-2 2q-46 -80 -155 -80q-93 0 -145 54.5t-52 149.5q0 65 17.5 125t51 109t89 78t124.5 29q48 0 88.5 -21.5t56.5 -61.5h2l57 266h142
l-151 -714h-137z" />
    <glyph glyph-name="e" unicode="e" horiz-adv-x="552" 
d="M142 314h237q0 110 -96 110q-102 0 -141 -110zM508 224h-381q-1 -7 -1 -17v-13q0 -47 29 -74t85 -27q26 0 48 12t33 24.5t25 34.5h142q-35 -90 -97.5 -134t-170.5 -44q-106 0 -168 58.5t-62 167.5q0 130 79 224.5t206 94.5q111 0 176 -58t65 -168q0 -38 -8 -81z" />
    <glyph glyph-name="f" unicode="f" horiz-adv-x="334" 
d="M8 0l89 422h-84l20 95h85q12 57 22.5 88.5t32 61t56.5 41.5t90 12q43 0 93 -8l-22 -102q-45 3 -46 3q-15 0 -26 -2t-19 -7t-13 -9.5t-9 -15t-6 -17t-5.5 -22t-5.5 -23.5h101l-20 -95h-102l-89 -422h-142z" />
    <glyph glyph-name="g" unicode="g" horiz-adv-x="598" 
d="M577 517l-103 -490q-26 -118 -92 -170.5t-193 -52.5q-56 0 -104 15.5t-82.5 55t-34.5 98.5h142q-2 -37 26 -55.5t67 -18.5q26 0 47 10t34.5 23.5t26 40.5t19 47.5t17.5 58.5l-2 2q-55 -73 -142 -73q-92 0 -145.5 57.5t-53.5 153.5q0 122 72 217t189 95q118 0 158 -93h2
l16 79h136zM291 424q-66 0 -105.5 -62t-39.5 -133q0 -49 24 -81.5t72 -32.5q70 0 110.5 61.5t40.5 135.5q0 51 -26 81.5t-76 30.5z" />
    <glyph glyph-name="h" unicode="h" horiz-adv-x="593" 
d="M-21 0l149 714h142l-53 -257h2q21 29 64.5 51.5t106.5 22.5q151 0 151 -139q0 -10 -3 -27.5t-7 -37t-5 -24.5l-64 -303h-142l63 303q9 48 9 63q0 22 -21 37.5t-47 15.5q-60 0 -95.5 -41t-49.5 -103l-58 -275h-142z" />
    <glyph glyph-name="i" unicode="i" horiz-adv-x="253" 
d="M274 714l-26 -117h-143l26 117h143zM-21 0l110 517h143l-110 -517h-143z" />
    <glyph glyph-name="j" unicode="j" horiz-adv-x="254" 
d="M274 714l-26 -117h-143l26 117h143zM-141 -177l24 114q34 -2 51 -2q11 0 19.5 6.5t14 19t9 22.5t7 25.5t4.5 19.5l103 489h142l-113 -536q-19 -87 -59.5 -125t-132.5 -38q-13 0 -36.5 2.5t-32.5 2.5z" />
    <glyph glyph-name="k" unicode="k" horiz-adv-x="545" 
d="M-21 0l150 714h142l-82 -388l2 -2l204 193h175l-232 -196l133 -321h-156l-85 231l-74 -63l-35 -168h-142z" />
    <glyph glyph-name="l" unicode="l" horiz-adv-x="252" 
d="M-21 0l152 714h142l-152 -714h-142z" />
    <glyph glyph-name="m" unicode="m" horiz-adv-x="899" 
d="M-21 0l108 517h136l-16 -73h2q63 87 181 87q108 0 125 -90q26 40 75.5 65t99.5 25q66 0 111.5 -34t45.5 -97q0 -30 -15 -96l-64 -304h-142l68 327q4 20 4 37q0 23 -17.5 39t-44.5 16q-52 0 -87 -43.5t-46 -98.5l-58 -277h-143l68 327q4 20 4 37q0 23 -17.5 39t-44.5 16
q-52 0 -87 -43.5t-46 -98.5l-58 -277h-142z" />
    <glyph glyph-name="n" unicode="n" horiz-adv-x="593" 
d="M-21 0l108 517h136l-16 -72h2q69 86 181 86q151 0 151 -139q0 -10 -3 -27.5t-7 -37t-5 -24.5l-64 -303h-142l63 303q9 48 9 63q0 22 -21 37.5t-47 15.5q-60 0 -95.5 -41t-49.5 -103l-58 -275h-142z" />
    <glyph glyph-name="o" unicode="o" horiz-adv-x="570" 
d="M138 209q0 -49 27 -82.5t75 -33.5q50 0 86 37t51 84.5t15 95.5q0 114 -104 114q-71 0 -110.5 -69t-39.5 -146zM-4 209q0 136 81.5 229t215.5 93q110 0 175.5 -55.5t65.5 -163.5q0 -140 -82 -233t-219 -93q-110 0 -173.5 57t-63.5 166z" />
    <glyph glyph-name="p" unicode="p" horiz-adv-x="600" 
d="M-61 -182l149 699h137l-14 -64l2 -2q46 80 155 80q93 0 144.5 -54.5t51.5 -149.5q0 -65 -17.5 -125t-51 -109t-88.5 -78t-124 -29q-48 0 -88.5 21t-56.5 62h-3l-54 -251h-142zM321 424q-50 0 -87 -37t-53 -85.5t-16 -96.5q0 -52 26 -82t76 -30q51 0 87.5 36t52 83.5
t15.5 96.5t-26.5 82t-74.5 33z" />
    <glyph glyph-name="q" unicode="q" horiz-adv-x="597" 
d="M294 424q-52 0 -89 -36.5t-52 -83.5t-15 -96q0 -52 25 -83.5t80 -31.5q48 0 84.5 37t53 86.5t16.5 98.5t-27.5 79t-75.5 30zM576 517l-147 -699h-142l47 223h-2q-52 -55 -146 -55q-95 0 -142.5 61.5t-47.5 158.5q0 83 29.5 155.5t92 121t146.5 48.5q129 0 162 -95h2
l17 81h131z" />
    <glyph glyph-name="r" unicode="r" horiz-adv-x="371" 
d="M-21 0l108 517h135l-21 -93l2 -2q23 53 71 81t107 28q21 0 44 -3l-29 -138q-45 9 -60 9q-75 0 -112.5 -46t-54.5 -124l-48 -229h-142z" />
    <glyph glyph-name="s" unicode="s" horiz-adv-x="496" 
d="M464 366h-132q-2 70 -80 70q-87 0 -87 -51q0 -17 14.5 -29t50.5 -23l71 -23q64 -20 100 -54t36 -94q0 -61 -37.5 -102t-91 -57.5t-117.5 -16.5q-55 0 -102.5 14t-82.5 52t-35 95v21h132v-17q0 -33 31 -51.5t71 -18.5q37 0 63.5 15t26.5 47q0 25 -12 36t-39 21l-109 35
q-59 20 -85.5 47.5t-26.5 84.5t37.5 96t87 53.5t104.5 14.5q45 0 81 -7.5t67.5 -25t48 -51t15.5 -81.5z" />
    <glyph glyph-name="t" unicode="t" horiz-adv-x="350" 
d="M288 674l-32 -157h102l-22 -95h-101l-53 -257q-4 -15 -4 -24q0 -17 8.5 -26t17 -10.5t22.5 -1.5q26 0 51 3l-24 -110q-48 -5 -89 -5q-59 0 -98 24t-37 81q0 16 7 49l58 277h-93l22 95h91l32 157h142z" />
    <glyph glyph-name="u" unicode="u" horiz-adv-x="574" 
d="M558 517l-108 -517h-136l16 72h-2q-69 -86 -181 -86q-151 0 -151 139q0 35 15 89l64 303h142l-63 -303q-9 -27 -9 -63q0 -22 21 -37.5t47 -15.5q60 0 95.5 41t49.5 103l58 275h142z" />
    <glyph glyph-name="v" unicode="v" horiz-adv-x="501" 
d="M534 517l-283 -517h-162l-68 517h146l32 -368h2l183 368h150z" />
    <glyph glyph-name="w" unicode="w" horiz-adv-x="797" 
d="M825 517l-270 -517h-148l-18 363h-2l-160 -363h-149l-57 517h145l20 -364h2l159 364h144l16 -361h2l166 361h150z" />
    <glyph glyph-name="x" unicode="x" horiz-adv-x="507" 
d="M528 517l-215 -248l131 -269h-150l-75 170l-138 -170h-161l240 277l-117 240h152l57 -149l117 149h159z" />
    <glyph glyph-name="y" unicode="y" horiz-adv-x="508" 
d="M541 517l-329 -590q-36 -65 -78 -87t-123 -22q-14 0 -40 2.5t-36 2.5l24 118q9 0 28.5 -3t29.5 -3q23 0 40.5 8t24 15.5t16.5 25t13 21.5l-92 512h146l45 -370h2l179 370h150z" />
    <glyph glyph-name="z" unicode="z" horiz-adv-x="509" 
d="M-45 0l22 105l324 305h-249l23 107h434l-22 -105l-325 -305h285l-23 -107h-469z" />
    <glyph glyph-name="braceleft" unicode="{" horiz-adv-x="315" 
d="M402 731l-23 -112h-54q-56 0 -69 -73l-32 -152q-10 -45 -35 -73t-46 -35.5t-43 -9.5v-3q27 -3 53 -22t26 -57q0 -14 -3 -31l-33 -160q-4 -16 -4 -38q0 -35 42 -35h54l-23 -112h-127q-35 0 -66.5 28.5t-31.5 78.5q0 13 3 28l41 195q2 14 2 16q0 33 -25 50t-52 17l18 87
q32 0 67 22.5t44 67.5l39 188q13 62 61.5 98.5t89.5 36.5h127z" />
    <glyph glyph-name="bar" unicode="|" horiz-adv-x="204" 
d="M49 -214v1000h107v-1000h-107z" />
    <glyph glyph-name="braceright" unicode="}" horiz-adv-x="315" 
d="M-119 -182l23 112h54q56 0 69 73l32 152q19 101 124 118v3q-28 3 -53.5 21.5t-25.5 57.5q0 15 3 31l33 160q4 16 4 38q0 35 -42 35h-54l23 112h127q35 0 66.5 -28.5t31.5 -78.5q0 -13 -3 -28l-41 -195q-2 -14 -2 -16q0 -33 25 -50t52 -17l-18 -87q-32 0 -67 -22.5
t-44 -67.5l-39 -188q-13 -62 -61.5 -98.5t-89.5 -36.5h-127z" />
    <glyph glyph-name="asciitilde" unicode="~" horiz-adv-x="582" 
d="M484 344l40 -93q-27 -41 -55 -63.5t-70 -22.5q-45 0 -102 33q-59 35 -115 35q-51 0 -84 -72l-40 93q42 86 125 86q38 0 111 -32q7 -3 21.5 -9.5t23 -10t20 -8t20.5 -6.5t17 -2q19 0 37 13t25.5 23t25.5 36z" />
    <glyph glyph-name="uni00A0" unicode="&#xa0;" horiz-adv-x="278" 
 />
    <glyph glyph-name="exclamdown" unicode="&#xa1;" horiz-adv-x="278" 
d="M260 531l-33 -154h-158l33 154h158zM-46 -183l42 194l105 306h70l-25 -306l-41 -194h-151z" />
    <glyph glyph-name="cent" unicode="&#xa2;" horiz-adv-x="538" 
d="M162 -117l22 107q-182 23 -182 218q0 137 78.5 230t213.5 93h4l18 86h49l-19 -90q80 -10 129 -57.5t51 -131.5h-142q0 70 -60 82l-68 -327q73 9 101 96h142q-30 -105 -93.5 -154t-170.5 -49h-2l-22 -103h-49zM207 99l68 325q-45 -5 -76 -43.5t-43 -83.5t-12 -92
q0 -89 63 -106z" />
    <glyph glyph-name="sterling" unicode="&#xa3;" horiz-adv-x="538" 
d="M22 -17l-42 97q39 29 61 47.5t43.5 53t21.5 71.5q0 34 -4 59h-97l18 85h64q-22 58 -22 111q0 104 77 164t185 60q115 0 176 -64.5t56 -190.5h-137q5 138 -95 138q-53 0 -83 -32t-30 -85q0 -55 18 -101h141l-17 -85h-114q1 -5 1 -14v-14q0 -56 -23.5 -95.5t-71.5 -73.5
l2 -2q36 16 83 16q24 0 69 -11.5t70 -11.5q47 0 96 36l41 -107q-79 -51 -166 -51q-31 0 -100 19t-103 19q-56 0 -118 -38z" />
    <glyph glyph-name="currency" unicode="&#xa4;" horiz-adv-x="538" 
d="M271 491q-58 0 -91 -41.5t-33 -100.5q0 -58 33 -99t90 -41q56 0 87.5 42t31.5 100q0 56 -31.5 98t-86.5 42zM11 149l57 58q-48 56 -48 142q0 96 48 144l-57 58l57 57l57 -56q54 46 146 46q85 0 137 -45l58 57l61 -61l-56 -55q45 -50 45 -143q0 -91 -46 -146l55 -56
l-55 -55l-57 58q-52 -50 -143 -50q-93 0 -147 49l-56 -58z" />
    <glyph glyph-name="yen" unicode="&#xa5;" horiz-adv-x="538" 
d="M121 0l29 138h-155l20 95h155l9 45l-8 30h-141l20 95h94l-88 311h165l59 -311h2l189 311h165l-217 -311h93l-20 -95h-139l-21 -30l-12 -45h157l-20 -95h-155l-29 -138h-152z" />
    <glyph glyph-name="brokenbar" unicode="&#xa6;" horiz-adv-x="204" 
d="M156 661v-250h-107v250h107zM49 -89v250h107v-250h-107z" />
    <glyph glyph-name="section" unicode="&#xa7;" horiz-adv-x="575" 
d="M-1 17h127q-3 -39 20 -65.5t63 -26.5q38 0 63.5 16.5t25.5 53.5q0 47 -87 104l-101 73q-90 62 -90 148q0 63 39.5 106t103.5 51q-19 25 -25.5 41.5t-6.5 42.5q0 79 69.5 124.5t153.5 45.5q94 -2 151.5 -50.5t46.5 -139.5h-127q2 37 -17.5 60t-57.5 23q-34 0 -55.5 -18
t-21.5 -50q0 -23 25.5 -50t52.5 -43l92 -66q98 -74 98 -156q0 -62 -39 -102.5t-92 -54.5q30 -35 30 -87q0 -83 -67.5 -131t-159.5 -48q-98 0 -158 51.5t-56 147.5zM204 256l72 -59q2 -2 10.5 -10t13.5 -12t13.5 -10t16 -8.5t15.5 -2.5q28 0 48.5 18t20.5 46q0 13 -3 24.5
t-13.5 23.5t-14.5 16.5t-21.5 18.5t-18.5 15l-63 53q-6 5 -15 13t-12 10.5t-10 6t-14 4.5t-18 1q-25 0 -44.5 -18.5t-19.5 -44.5q0 -16 6 -30t10 -18.5t21 -19t20 -17.5z" />
    <glyph glyph-name="dieresis" unicode="&#xa8;" 
d="M8 598l24 117h131l-24 -117h-131zM204 598l24 117h131l-24 -117h-131z" />
    <glyph glyph-name="copyright" unicode="&#xa9;" horiz-adv-x="782" 
d="M506 295h81q-12 -73 -62.5 -115.5t-119.5 -42.5q-96 0 -155.5 63.5t-59.5 158.5q0 98 57.5 161t155.5 63q71 0 121.5 -40.5t59.5 -114.5h-78q-8 35 -36 55t-67 20q-56 0 -86.5 -39t-30.5 -103q0 -60 33 -102t86 -42q42 0 69 21t32 57zM109 357q0 -127 81.5 -210.5
t200.5 -83.5q118 0 200 83.5t82 210.5t-82 210.5t-200 83.5q-119 0 -200.5 -83.5t-81.5 -210.5zM7 357q0 110 54 197t141 132t189 45t189 -45t141 -132t54 -197q0 -165 -113 -269.5t-271 -104.5t-271 104.5t-113 269.5z" />
    <glyph glyph-name="ordfeminine" unicode="&#xaa;" horiz-adv-x="326" 
d="M159 609h-95q16 105 165 105q150 0 150 -87q0 -19 -7 -52l-30 -125q-5 -18 -5 -42q0 -9 4 -24h-106v31q-36 -40 -99 -40q-57 0 -86.5 23.5t-29.5 58.5q0 104 129 119q13 2 37 4t36.5 3.5t27 5t21 10t6.5 15.5q0 19 -17 27t-35 8q-56 0 -66 -40zM256 509l8 27
q-18 -8 -77 -15q-31 -4 -48 -13.5t-17 -34.5q0 -15 14 -24t33 -9q27 0 46 11.5t26.5 24.5t14.5 33z" />
    <glyph glyph-name="guillemotleft" unicode="&#xab;" horiz-adv-x="445" 
d="M140 80l-128 138l28 130l181 115l-26 -123l-110 -68l77 -85zM336 80l-128 138l28 130l181 115l-26 -123l-110 -68l77 -85z" />
    <glyph glyph-name="logicalnot" unicode="&#xac;" horiz-adv-x="582" 
d="M543 406v-307h-107v200h-397v107h504z" />
    <glyph glyph-name="uni00AD" unicode="&#xad;" horiz-adv-x="389" 
d="M18 212l26 122h301l-26 -122h-301z" />
    <glyph glyph-name="registered" unicode="&#xae;" horiz-adv-x="782" 
d="M327 503v-110h72q39 0 59.5 11.5t20.5 46.5q0 52 -84 52h-68zM242 149v419h158q82 0 123 -29t41 -95q0 -103 -110 -112l112 -183h-87l-102 179h-50v-179h-85zM109 358q0 -127 81.5 -211t200.5 -84q118 0 200 84t82 211q0 126 -82 209.5t-200 83.5q-119 0 -200.5 -83.5
t-81.5 -209.5zM7 358q0 165 113 269t271 104t271 -104t113 -269q0 -166 -113 -270.5t-271 -104.5t-271 104.5t-113 270.5z" />
    <glyph glyph-name="macron" unicode="&#xaf;" 
d="M26 619l14 75h305l-14 -75h-305z" />
    <glyph glyph-name="degree" unicode="&#xb0;" horiz-adv-x="382" 
d="M138 566q0 -36 25 -62t58 -26t58 26t25 62t-25 62t-58 26t-58 -26t-25 -62zM73 566q0 62 43 105t105 43t105 -43t43 -105t-43 -105t-105 -43t-105 43t-43 105z" />
    <glyph glyph-name="plusminus" unicode="&#xb1;" horiz-adv-x="582" 
d="M39 0v107h505v-107h-505zM39 268v107h199v131h107v-131h199v-107h-199v-131h-107v131h-199z" />
    <glyph glyph-name="twosuperior" unicode="&#xb2;" horiz-adv-x="374" 
d="M156 549h-102q7 81 56.5 123t136.5 42q72 0 115.5 -32.5t43.5 -99.5q0 -42 -27 -73t-76 -62q-18 -11 -54 -29.5t-61 -33.5t-41 -31h217l-18 -80h-339q3 40 16.5 71t40 54.5t51 38.5t64.5 34q63 30 94 54t31 51q0 29 -19 43.5t-49 14.5q-34 0 -56 -25t-24 -60z" />
    <glyph glyph-name="threesuperior" unicode="&#xb3;" horiz-adv-x="374" 
d="M172 464l13 70h28q86 0 86 51q0 24 -18 36.5t-44 12.5q-37 0 -56.5 -17t-28.5 -52h-96q10 74 57 111.5t126 37.5q67 0 111.5 -27.5t44.5 -88.5q0 -37 -23.5 -63t-62.5 -34v-2q66 -17 66 -85q0 -76 -54 -113t-141 -37q-166 0 -166 140v19h96v-15q0 -29 19 -46.5t53 -17.5
q37 0 61.5 19.5t24.5 53.5q0 22 -17.5 34.5t-44.5 12.5h-34z" />
    <glyph glyph-name="acute" unicode="&#xb4;" 
d="M365 731l-140 -142h-100l88 142h152z" />
    <glyph glyph-name="mu" unicode="&#xb5;" horiz-adv-x="593" 
d="M577 517l-108 -517h-136l16 72h-2q-69 -86 -181 -86q-19 0 -44 5l-36 -173h-142l150 699h142l-63 -303q-9 -27 -9 -63q0 -22 21 -37.5t47 -15.5q60 0 95.5 41t49.5 103l58 275h142z" />
    <glyph glyph-name="paragraph" unicode="&#xb6;" horiz-adv-x="582" 
d="M137 -166l110 519q-101 0 -148.5 48t-31.5 129q39 184 276 184h282l-185 -880h-96l169 800h-111l-169 -800h-96z" />
    <glyph glyph-name="periodcentered" unicode="&#xb7;" horiz-adv-x="260" 
d="M34 287q0 35 25.5 60t59.5 25t59 -25t25 -60q0 -33 -25 -58.5t-58 -25.5q-35 0 -60.5 25t-25.5 59z" />
    <glyph glyph-name="cedilla" unicode="&#xb8;" 
d="M3 -195l21 48q42 -18 84 -18q40 0 40 33q0 32 -40 32q-22 0 -40 -7l-21 24l59 83h49l-39 -53l3 -2q18 7 35 7q36 0 63 -18t27 -52q0 -99 -117 -99q-64 0 -124 22z" />
    <glyph glyph-name="onesuperior" unicode="&#xb9;" horiz-adv-x="374" 
d="M338 705l-97 -432h-104l62 274h-110l17 75q53 2 87.5 19.5t59.5 63.5h85z" />
    <glyph glyph-name="ordmasculine" unicode="&#xba;" horiz-adv-x="338" 
d="M130 514q0 -25 17.5 -44.5t45.5 -19.5q45 0 70.5 41t25.5 84q0 29 -16.5 46.5t-48.5 17.5q-44 0 -69 -40.5t-25 -84.5zM28 514q0 87 53.5 143.5t146.5 56.5q163 0 163 -138q0 -89 -53.5 -145t-148.5 -56q-161 0 -161 139z" />
    <glyph glyph-name="guillemotright" unicode="&#xbb;" horiz-adv-x="445" 
d="M274 463l128 -138l-28 -130l-181 -115l26 123l110 68l-77 85zM78 463l128 -138l-28 -130l-181 -115l26 123l110 68l-77 85z" />
    <glyph glyph-name="onequarter" unicode="&#xbc;" horiz-adv-x="871" 
d="M540 169h124l34 147l-2 2zM625 0l20 89h-208l20 87l261 244h106l-58 -251h59l-16 -80h-62l-20 -89h-102zM357 705l-97 -432h-104l62 274h-110l17 75q53 2 87.5 19.5t59.5 63.5h85zM195 -22l414 744h85l-412 -744h-87z" />
    <glyph glyph-name="onehalf" unicode="&#xbd;" horiz-adv-x="871" 
d="M646 276h-102q7 81 56.5 123t136.5 42q72 0 115.5 -32.5t43.5 -99.5q0 -42 -27 -73t-76 -62q-18 -11 -54 -29.5t-61 -33.5t-41 -31h217l-18 -80h-339q3 40 16.5 71t40 54.5t51 38.5t64.5 34q63 30 94 54t31 51q0 29 -19 43.5t-49 14.5q-34 0 -56 -25t-24 -60zM157 273
l62 274h-110l17 75q53 2 87.5 19.5t59.5 63.5h85l-97 -432h-104zM193 -22l414 744h85l-412 -744h-87z" />
    <glyph glyph-name="threequarters" unicode="&#xbe;" horiz-adv-x="871" 
d="M540 169h124l34 147l-2 2zM625 0l20 89h-208l20 87l261 244h106l-58 -251h59l-16 -80h-62l-20 -89h-102zM150 464l13 70h28q86 0 86 51q0 24 -18 36.5t-44 12.5q-37 0 -56.5 -17t-28.5 -52h-96q10 74 57 111.5t126 37.5q67 0 111.5 -27.5t44.5 -88.5q0 -37 -23.5 -63
t-62.5 -34v-2q66 -17 66 -85q0 -76 -54 -113t-141 -37q-166 0 -166 140v19h96v-15q0 -29 19 -46.5t53 -17.5q37 0 61.5 19.5t24.5 53.5q0 22 -17.5 34.5t-44.5 12.5h-34zM195 -22l414 744h85l-412 -744h-87z" />
    <glyph glyph-name="questiondown" unicode="&#xbf;" horiz-adv-x="556" 
d="M407 531l-33 -154h-158l33 154h158zM314 44h142q-6 -116 -83 -178t-195 -62q-93 0 -155.5 47t-62.5 138q0 65 37 109t102 81q53 29 81 58t33 78h132q-13 -91 -48 -132t-117 -84q-71 -42 -71 -100q0 -38 24.5 -58t62.5 -20q50 0 81 35t37 88z" />
    <glyph glyph-name="Agrave" unicode="&#xc0;" horiz-adv-x="677" 
d="M-85 0l422 714h161l119 -714h-156l-23 159h-267l-90 -159h-166zM387 560l-154 -284h191l-35 284h-2zM402 921l88 -142h-100l-140 142h152z" />
    <glyph glyph-name="Aacute" unicode="&#xc1;" horiz-adv-x="677" 
d="M-85 0l422 714h161l119 -714h-156l-23 159h-267l-90 -159h-166zM387 560l-154 -284h191l-35 284h-2zM593 921l-140 -142h-100l88 142h152z" />
    <glyph glyph-name="Acircumflex" unicode="&#xc2;" horiz-adv-x="677" 
d="M-85 0l422 714h161l119 -714h-156l-23 159h-267l-90 -159h-166zM387 560l-154 -284h191l-35 284h-2zM251 779l137 142h126l83 -142h-100l-50 81l-87 -81h-109z" />
    <glyph glyph-name="Atilde" unicode="&#xc3;" horiz-adv-x="677" 
d="M-85 0l422 714h161l119 -714h-156l-23 159h-267l-90 -159h-166zM387 560l-154 -284h191l-35 284h-2zM529 911h69l-9 -30t-12.5 -29t-20 -29t-29 -18t-41.5 -8q-29 0 -82 17q-47 17 -70 17q-19 0 -27.5 -10t-14.5 -32h-61q12 55 39.5 88.5t86.5 33.5q19 0 64 -17
q42 -18 66 -18q22 0 32.5 10t9.5 25z" />
    <glyph glyph-name="Adieresis" unicode="&#xc4;" horiz-adv-x="677" 
d="M-85 0l422 714h161l119 -714h-156l-23 159h-267l-90 -159h-166zM387 560l-154 -284h191l-35 284h-2zM261 788l24 117h131l-24 -117h-131zM457 788l24 117h131l-24 -117h-131z" />
    <glyph glyph-name="Aring" unicode="&#xc5;" horiz-adv-x="677" 
d="M-85 0l422 714h161l119 -714h-156l-23 159h-267l-90 -159h-166zM387 560l-154 -284h191l-35 284h-2zM305 866q0 51 35 85.5t87 34.5q51 0 86.5 -34.5t35.5 -85.5q0 -53 -34 -86t-88 -33q-55 0 -88.5 33t-33.5 86zM365 866q0 -30 16.5 -48.5t45.5 -18.5t46 18.5t17 48.5
t-17 48.5t-46 18.5t-45.5 -18.5t-16.5 -48.5z" />
    <glyph glyph-name="AE" unicode="&#xc6;" horiz-adv-x="1056" 
d="M-75 0l501 714h611l-28 -132h-329l-33 -153h308l-26 -122h-308l-38 -175h339l-28 -132h-497l33 154h-220l-109 -154h-176zM455 271l67 311h-20l-219 -311h172z" />
    <glyph glyph-name="Ccedilla" unicode="&#xc7;" horiz-adv-x="713" 
d="M162 -195l21 48q42 -18 84 -18q40 0 40 33q0 32 -40 32q-22 0 -40 -7l-21 24l52 73q-94 17 -152 75q-83 83 -83 234q0 116 46.5 214t136.5 158t207 60q129 0 208.5 -69.5t77.5 -195.5h-157q0 64 -34.5 98.5t-93.5 34.5q-76 0 -131 -47.5t-79 -113.5t-24 -139
q0 -80 40.5 -132t121.5 -52q63 0 110 41.5t58 100.5h157q-47 -145 -127 -209.5t-200 -64.5q-12 0 -38 2l-27 -38l3 -2q18 7 35 7q36 0 63 -18t27 -52q0 -99 -117 -99q-64 0 -124 22z" />
    <glyph glyph-name="Egrave" unicode="&#xc8;" horiz-adv-x="639" 
d="M-18 0l150 714h545l-27 -132h-388l-32 -153h359l-26 -122h-359l-37 -175h394l-28 -132h-551zM408 921l88 -142h-100l-140 142h152z" />
    <glyph glyph-name="Eacute" unicode="&#xc9;" horiz-adv-x="639" 
d="M-18 0l150 714h545l-27 -132h-388l-32 -153h359l-26 -122h-359l-37 -175h394l-28 -132h-551zM597 921l-140 -142h-100l88 142h152z" />
    <glyph glyph-name="Ecircumflex" unicode="&#xca;" horiz-adv-x="639" 
d="M-18 0l150 714h545l-27 -132h-388l-32 -153h359l-26 -122h-359l-37 -175h394l-28 -132h-551zM235 779l137 142h126l83 -142h-100l-50 81l-87 -81h-109z" />
    <glyph glyph-name="Edieresis" unicode="&#xcb;" horiz-adv-x="639" 
d="M-18 0l150 714h545l-27 -132h-388l-32 -153h359l-26 -122h-359l-37 -175h394l-28 -132h-551zM245 788l24 117h131l-24 -117h-131zM441 788l24 117h131l-24 -117h-131z" />
    <glyph glyph-name="Igrave" unicode="&#xcc;" horiz-adv-x="268" 
d="M-18 0l151 714h158l-151 -714h-158zM206 921l88 -142h-100l-140 142h152z" />
    <glyph glyph-name="Iacute" unicode="&#xcd;" horiz-adv-x="268" 
d="M-18 0l151 714h158l-151 -714h-158zM380 921l-140 -142h-100l88 142h152z" />
    <glyph glyph-name="Icircumflex" unicode="&#xce;" horiz-adv-x="268" 
d="M-18 0l151 714h158l-151 -714h-158zM49 779l137 142h126l83 -142h-100l-50 81l-87 -81h-109z" />
    <glyph glyph-name="Idieresis" unicode="&#xcf;" horiz-adv-x="268" 
d="M-18 0l151 714h158l-151 -714h-158zM61 788l24 117h131l-24 -117h-131zM257 788l24 117h131l-24 -117h-131z" />
    <glyph glyph-name="Eth" unicode="&#xd0;" horiz-adv-x="718" 
d="M268 582l-33 -155h168l-25 -117h-169l-37 -178h121q116 0 182.5 79.5t66.5 197.5q0 173 -156 173h-118zM-13 0l65 310h-82l25 117h83l60 287h258q149 0 226 -72.5t77 -205.5q0 -194 -107 -315t-306 -121h-299z" />
    <glyph glyph-name="Ntilde" unicode="&#xd1;" horiz-adv-x="713" 
d="M-18 0l151 714h162l194 -508h2l102 508h144l-151 -714h-157l-196 501h-2l-102 -501h-147zM572 911h69l-9 -30t-12.5 -29t-20 -29t-29 -18t-41.5 -8q-29 0 -82 17q-47 17 -70 17q-19 0 -27.5 -10t-14.5 -32h-61q12 55 39.5 88.5t86.5 33.5q19 0 64 -17q42 -18 66 -18
q22 0 32.5 10t9.5 25z" />
    <glyph glyph-name="Ograve" unicode="&#xd2;" horiz-adv-x="750" 
d="M23 299q0 116 46.5 214t136.5 158t207 60q147 0 232 -79t85 -227q0 -120 -44.5 -219t-134.5 -161t-211 -62q-151 0 -234 82t-83 234zM180 299q0 -80 40.5 -132t121.5 -52q73 0 127.5 47.5t79 113.5t24.5 138q0 82 -38.5 133.5t-120.5 51.5q-76 0 -131 -47.5t-79 -113.5
t-24 -139zM405 921l88 -142h-100l-140 142h152z" />
    <glyph glyph-name="Oacute" unicode="&#xd3;" horiz-adv-x="750" 
d="M23 299q0 116 46.5 214t136.5 158t207 60q147 0 232 -79t85 -227q0 -120 -44.5 -219t-134.5 -161t-211 -62q-151 0 -234 82t-83 234zM180 299q0 -80 40.5 -132t121.5 -52q73 0 127.5 47.5t79 113.5t24.5 138q0 82 -38.5 133.5t-120.5 51.5q-76 0 -131 -47.5t-79 -113.5
t-24 -139zM628 921l-140 -142h-100l88 142h152z" />
    <glyph glyph-name="Ocircumflex" unicode="&#xd4;" horiz-adv-x="750" 
d="M23 299q0 116 46.5 214t136.5 158t207 60q147 0 232 -79t85 -227q0 -120 -44.5 -219t-134.5 -161t-211 -62q-151 0 -234 82t-83 234zM180 299q0 -80 40.5 -132t121.5 -52q73 0 127.5 47.5t79 113.5t24.5 138q0 82 -38.5 133.5t-120.5 51.5q-76 0 -131 -47.5t-79 -113.5
t-24 -139zM273 779l137 142h126l83 -142h-100l-50 81l-87 -81h-109z" />
    <glyph glyph-name="Otilde" unicode="&#xd5;" horiz-adv-x="750" 
d="M23 299q0 116 46.5 214t136.5 158t207 60q147 0 232 -79t85 -227q0 -120 -44.5 -219t-134.5 -161t-211 -62q-151 0 -234 82t-83 234zM180 299q0 -80 40.5 -132t121.5 -52q73 0 127.5 47.5t79 113.5t24.5 138q0 82 -38.5 133.5t-120.5 51.5q-76 0 -131 -47.5t-79 -113.5
t-24 -139zM565 911h69l-9 -30t-12.5 -29t-20 -29t-29 -18t-41.5 -8q-29 0 -82 17q-47 17 -70 17q-19 0 -27.5 -10t-14.5 -32h-61q12 55 39.5 88.5t86.5 33.5q19 0 64 -17q42 -18 66 -18q22 0 32.5 10t9.5 25z" />
    <glyph glyph-name="Odieresis" unicode="&#xd6;" horiz-adv-x="750" 
d="M23 299q0 116 46.5 214t136.5 158t207 60q147 0 232 -79t85 -227q0 -120 -44.5 -219t-134.5 -161t-211 -62q-151 0 -234 82t-83 234zM180 299q0 -80 40.5 -132t121.5 -52q73 0 127.5 47.5t79 113.5t24.5 138q0 82 -38.5 133.5t-120.5 51.5q-76 0 -131 -47.5t-79 -113.5
t-24 -139zM279 788l24 117h131l-24 -117h-131zM475 788l24 117h131l-24 -117h-131z" />
    <glyph glyph-name="multiply" unicode="&#xd7;" horiz-adv-x="582" 
d="M131 17l-76 76l161 160l-159 160l76 76l159 -160l160 160l76 -76l-161 -160l161 -160l-76 -76l-160 161z" />
    <glyph glyph-name="Oslash" unicode="&#xd8;" horiz-adv-x="750" 
d="M787 696l-102 -94q45 -73 45 -177q0 -120 -44.5 -219t-134.5 -161t-211 -62q-151 0 -232 83l-101 -94l-40 44l103 96q-47 74 -47 187q0 116 46.5 214t136.5 158t207 60q152 0 234 -82l99 92zM563 489l-344 -319q42 -55 123 -55q73 0 127.5 47.5t79 113.5t24.5 138
q0 42 -10 75zM191 224l345 321q-42 54 -122 54q-76 0 -131 -47.5t-79 -113.5t-24 -139q0 -39 11 -75z" />
    <glyph glyph-name="Ugrave" unicode="&#xd9;" horiz-adv-x="713" 
d="M736 714l-87 -415q-34 -163 -110 -239.5t-234 -76.5q-75 0 -135.5 19.5t-103 69t-42.5 123.5q0 31 15 106l87 413h157l-87 -413q-15 -69 -15 -90q0 -36 30.5 -66t103.5 -30q38 0 65.5 8.5t44.5 21.5t30 38t20 47.5t15 60.5l89 423h157zM401 921l88 -142h-100l-140 142
h152z" />
    <glyph glyph-name="Uacute" unicode="&#xda;" horiz-adv-x="713" 
d="M736 714l-87 -415q-34 -163 -110 -239.5t-234 -76.5q-75 0 -135.5 19.5t-103 69t-42.5 123.5q0 31 15 106l87 413h157l-87 -413q-15 -69 -15 -90q0 -36 30.5 -66t103.5 -30q38 0 65.5 8.5t44.5 21.5t30 38t20 47.5t15 60.5l89 423h157zM630 921l-140 -142h-100l88 142
h152z" />
    <glyph glyph-name="Ucircumflex" unicode="&#xdb;" horiz-adv-x="713" 
d="M736 714l-87 -415q-34 -163 -110 -239.5t-234 -76.5q-75 0 -135.5 19.5t-103 69t-42.5 123.5q0 31 15 106l87 413h157l-87 -413q-15 -69 -15 -90q0 -36 30.5 -66t103.5 -30q38 0 65.5 8.5t44.5 21.5t30 38t20 47.5t15 60.5l89 423h157zM261 779l137 142h126l83 -142h-100
l-50 81l-87 -81h-109z" />
    <glyph glyph-name="Udieresis" unicode="&#xdc;" horiz-adv-x="713" 
d="M736 714l-87 -415q-34 -163 -110 -239.5t-234 -76.5q-75 0 -135.5 19.5t-103 69t-42.5 123.5q0 31 15 106l87 413h157l-87 -413q-15 -69 -15 -90q0 -36 30.5 -66t103.5 -30q38 0 65.5 8.5t44.5 21.5t30 38t20 47.5t15 60.5l89 423h157zM274 788l24 117h131l-24 -117h-131
zM470 788l24 117h131l-24 -117h-131z" />
    <glyph glyph-name="Yacute" unicode="&#xdd;" horiz-adv-x="647" 
d="M175 0l57 277l-171 437h161l107 -304l222 304h185l-348 -444l-55 -270h-158zM597 921l-140 -142h-100l88 142h152z" />
    <glyph glyph-name="Thorn" unicode="&#xde;" horiz-adv-x="661" 
d="M-18 0l149 714h157l-20 -97h130q248 0 248 -208q0 -113 -81 -181t-197 -68h-195l-34 -160h-157zM243 495l-44 -213h161q61 0 95 31t34 93q0 89 -111 89h-135z" />
    <glyph glyph-name="germandbls" unicode="&#xdf;" horiz-adv-x="575" 
d="M-21 0l110 521q42 210 251 210q54 0 101 -16t80.5 -56t33.5 -99q0 -64 -38 -107t-101 -58v-2q110 -26 110 -146q0 -117 -80 -189t-197 -72q-41 0 -72 8l23 111q30 -2 44 -2q60 0 100 41t40 101q0 103 -111 101h-20l19 90h22q119 0 119 109q0 31 -22 50t-53 19
q-55 0 -76.5 -29.5t-36.5 -91.5l-104 -493h-142z" />
    <glyph glyph-name="agrave" unicode="&#xe0;" horiz-adv-x="538" 
d="M166 360h-133q9 62 46.5 101.5t86.5 54.5t112 15q40 0 74 -5.5t68.5 -19t54 -42t18.5 -69.5q0 -37 -11 -87l-46 -208q-7 -27 -7 -70q0 -13 5 -30h-142v51q-58 -65 -158 -65q-80 0 -124 39t-44 97q0 74 52 119.5t146 56.5q22 3 52.5 6t45.5 4.5t35 4.5t29 7.5t18.5 11.5
t13 17t3.5 24q0 35 -27.5 49t-62.5 14q-41 0 -70 -19.5t-35 -56.5zM319 198l14 50q-32 -19 -120 -25q-48 -5 -76.5 -22.5t-28.5 -61.5q0 -28 22.5 -43t55.5 -15q59 0 88.5 32t44.5 85zM318 731l88 -142h-100l-140 142h152z" />
    <glyph glyph-name="aacute" unicode="&#xe1;" horiz-adv-x="538" 
d="M166 360h-133q9 62 46.5 101.5t86.5 54.5t112 15q40 0 74 -5.5t68.5 -19t54 -42t18.5 -69.5q0 -37 -11 -87l-46 -208q-7 -27 -7 -70q0 -13 5 -30h-142v51q-58 -65 -158 -65q-80 0 -124 39t-44 97q0 74 52 119.5t146 56.5q22 3 52.5 6t45.5 4.5t35 4.5t29 7.5t18.5 11.5
t13 17t3.5 24q0 35 -27.5 49t-62.5 14q-41 0 -70 -19.5t-35 -56.5zM319 198l14 50q-32 -19 -120 -25q-48 -5 -76.5 -22.5t-28.5 -61.5q0 -28 22.5 -43t55.5 -15q59 0 88.5 32t44.5 85zM485 731l-140 -142h-100l88 142h152z" />
    <glyph glyph-name="acircumflex" unicode="&#xe2;" horiz-adv-x="538" 
d="M166 360h-133q9 62 46.5 101.5t86.5 54.5t112 15q40 0 74 -5.5t68.5 -19t54 -42t18.5 -69.5q0 -37 -11 -87l-46 -208q-7 -27 -7 -70q0 -13 5 -30h-142v51q-58 -65 -158 -65q-80 0 -124 39t-44 97q0 74 52 119.5t146 56.5q22 3 52.5 6t45.5 4.5t35 4.5t29 7.5t18.5 11.5
t13 17t3.5 24q0 35 -27.5 49t-62.5 14q-41 0 -70 -19.5t-35 -56.5zM319 198l14 50q-32 -19 -120 -25q-48 -5 -76.5 -22.5t-28.5 -61.5q0 -28 22.5 -43t55.5 -15q59 0 88.5 32t44.5 85zM126 589l137 142h126l83 -142h-100l-50 81l-87 -81h-109z" />
    <glyph glyph-name="atilde" unicode="&#xe3;" horiz-adv-x="538" 
d="M166 360h-133q9 62 46.5 101.5t86.5 54.5t112 15q40 0 74 -5.5t68.5 -19t54 -42t18.5 -69.5q0 -37 -11 -87l-46 -208q-7 -27 -7 -70q0 -13 5 -30h-142v51q-58 -65 -158 -65q-80 0 -124 39t-44 97q0 74 52 119.5t146 56.5q22 3 52.5 6t45.5 4.5t35 4.5t29 7.5t18.5 11.5
t13 17t3.5 24q0 35 -27.5 49t-62.5 14q-41 0 -70 -19.5t-35 -56.5zM319 198l14 50q-32 -19 -120 -25q-48 -5 -76.5 -22.5t-28.5 -61.5q0 -28 22.5 -43t55.5 -15q59 0 88.5 32t44.5 85zM426 721h69l-9 -30t-12.5 -29t-20 -29t-29 -18t-41.5 -8q-29 0 -82 17q-47 17 -70 17
q-19 0 -27.5 -10t-14.5 -32h-61q12 55 39.5 88.5t86.5 33.5q19 0 64 -17q42 -18 66 -18q22 0 32.5 10t9.5 25z" />
    <glyph glyph-name="adieresis" unicode="&#xe4;" horiz-adv-x="538" 
d="M166 360h-133q9 62 46.5 101.5t86.5 54.5t112 15q40 0 74 -5.5t68.5 -19t54 -42t18.5 -69.5q0 -37 -11 -87l-46 -208q-7 -27 -7 -70q0 -13 5 -30h-142v51q-58 -65 -158 -65q-80 0 -124 39t-44 97q0 74 52 119.5t146 56.5q22 3 52.5 6t45.5 4.5t35 4.5t29 7.5t18.5 11.5
t13 17t3.5 24q0 35 -27.5 49t-62.5 14q-41 0 -70 -19.5t-35 -56.5zM319 198l14 50q-32 -19 -120 -25q-48 -5 -76.5 -22.5t-28.5 -61.5q0 -28 22.5 -43t55.5 -15q59 0 88.5 32t44.5 85zM137 598l24 117h131l-24 -117h-131zM333 598l24 117h131l-24 -117h-131z" />
    <glyph glyph-name="aring" unicode="&#xe5;" horiz-adv-x="538" 
d="M166 360h-133q9 62 46.5 101.5t86.5 54.5t112 15q40 0 74 -5.5t68.5 -19t54 -42t18.5 -69.5q0 -37 -11 -87l-46 -208q-7 -27 -7 -70q0 -13 5 -30h-142v51q-58 -65 -158 -65q-80 0 -124 39t-44 97q0 74 52 119.5t146 56.5q22 3 52.5 6t45.5 4.5t35 4.5t29 7.5t18.5 11.5
t13 17t3.5 24q0 35 -27.5 49t-62.5 14q-41 0 -70 -19.5t-35 -56.5zM319 198l14 50q-32 -19 -120 -25q-48 -5 -76.5 -22.5t-28.5 -61.5q0 -28 22.5 -43t55.5 -15q59 0 88.5 32t44.5 85zM189 684q0 51 35 85.5t87 34.5q51 0 86.5 -34.5t35.5 -85.5q0 -53 -34 -86t-88 -33
q-55 0 -88.5 33t-33.5 86zM249 684q0 -30 16.5 -48.5t45.5 -18.5t46 18.5t17 48.5t-17 48.5t-46 18.5t-45.5 -18.5t-16.5 -48.5z" />
    <glyph glyph-name="ae" unicode="&#xe6;" horiz-adv-x="888" 
d="M337 205l8 44q-34 -19 -143 -30q-40 -4 -64.5 -24t-24.5 -52q0 -62 83 -62q118 0 141 124zM176 360h-137q35 171 254 171q52 0 99 -16t68 -52q55 68 171 68q209 0 209 -234q0 -28 -5 -73h-372q-5 -21 -5 -46q0 -40 30 -68.5t80 -28.5q83 0 109 79h142q-67 -174 -261 -174
q-135 0 -188 96q-62 -96 -212 -96q-99 0 -143 38t-44 101q0 157 212 174q12 1 32.5 2.5t32 2t28 2.5t26.5 4t22 5.5t19 8t13.5 11t9.5 15.5t3 20q0 66 -80 66q-103 0 -113 -76zM477 314h236q0 58 -21.5 90t-77.5 32q-53 0 -90.5 -34.5t-46.5 -87.5z" />
    <glyph glyph-name="ccedilla" unicode="&#xe7;" horiz-adv-x="546" 
d="M68 -195l21 48q42 -18 84 -18q40 0 40 33q0 32 -40 32q-22 0 -40 -7l-21 24l53 75q-64 11 -104 48q-60 54 -60 168q0 137 78.5 230t213.5 93q101 0 165.5 -47.5t66.5 -145.5h-142q0 86 -95 86q-38 0 -67.5 -21.5t-45.5 -55.5t-24 -70t-8 -72q0 -50 23.5 -81t74.5 -31
q85 0 115 96h142q-68 -203 -267 -203q-14 0 -21 1l-29 -40l3 -2q18 7 35 7q36 0 63 -18t27 -52q0 -99 -117 -99q-64 0 -124 22z" />
    <glyph glyph-name="egrave" unicode="&#xe8;" horiz-adv-x="552" 
d="M142 314h237q0 110 -96 110q-102 0 -141 -110zM508 224h-381q-1 -7 -1 -17v-13q0 -47 29 -74t85 -27q26 0 48 12t33 24.5t25 34.5h142q-35 -90 -97.5 -134t-170.5 -44q-106 0 -168 58.5t-62 167.5q0 130 79 224.5t206 94.5q111 0 176 -58t65 -168q0 -38 -8 -81zM273 731
l88 -142h-100l-140 142h152z" />
    <glyph glyph-name="eacute" unicode="&#xe9;" horiz-adv-x="552" 
d="M142 314h237q0 110 -96 110q-102 0 -141 -110zM508 224h-381q-1 -7 -1 -17v-13q0 -47 29 -74t85 -27q26 0 48 12t33 24.5t25 34.5h142q-35 -90 -97.5 -134t-170.5 -44q-106 0 -168 58.5t-62 167.5q0 130 79 224.5t206 94.5q111 0 176 -58t65 -168q0 -38 -8 -81zM486 731
l-140 -142h-100l88 142h152z" />
    <glyph glyph-name="ecircumflex" unicode="&#xea;" horiz-adv-x="552" 
d="M142 314h237q0 110 -96 110q-102 0 -141 -110zM508 224h-381q-1 -7 -1 -17v-13q0 -47 29 -74t85 -27q26 0 48 12t33 24.5t25 34.5h142q-35 -90 -97.5 -134t-170.5 -44q-106 0 -168 58.5t-62 167.5q0 130 79 224.5t206 94.5q111 0 176 -58t65 -168q0 -38 -8 -81zM131 589
l137 142h126l83 -142h-100l-50 81l-87 -81h-109z" />
    <glyph glyph-name="edieresis" unicode="&#xeb;" horiz-adv-x="552" 
d="M142 314h237q0 110 -96 110q-102 0 -141 -110zM508 224h-381q-1 -7 -1 -17v-13q0 -47 29 -74t85 -27q26 0 48 12t33 24.5t25 34.5h142q-35 -90 -97.5 -134t-170.5 -44q-106 0 -168 58.5t-62 167.5q0 130 79 224.5t206 94.5q111 0 176 -58t65 -168q0 -38 -8 -81zM142 598
l24 117h131l-24 -117h-131zM338 598l24 117h131l-24 -117h-131z" />
    <glyph glyph-name="igrave" unicode="&#xec;" horiz-adv-x="253" 
d="M232 517l-110 -517h-143l110 517h143zM141 731l88 -142h-100l-140 142h152z" />
    <glyph glyph-name="iacute" unicode="&#xed;" horiz-adv-x="253" 
d="M232 517l-110 -517h-143l110 517h143zM331 731l-140 -142h-100l88 142h152z" />
    <glyph glyph-name="icircumflex" unicode="&#xee;" horiz-adv-x="253" 
d="M232 517l-110 -517h-143l110 517h143zM-3 589l137 142h126l83 -142h-100l-50 81l-87 -81h-109z" />
    <glyph glyph-name="idieresis" unicode="&#xef;" horiz-adv-x="253" 
d="M232 517l-110 -517h-143l110 517h143zM11 598l24 117h131l-24 -117h-131zM207 598l24 117h131l-24 -117h-131z" />
    <glyph glyph-name="eth" unicode="&#xf0;" horiz-adv-x="575" 
d="M169 607l125 61q-49 39 -89 56l93 56q50 -28 91 -66l121 59l63 -61l-124 -61q90 -117 90 -291q0 -32 -5 -67t-16 -79.5t-34 -83t-54.5 -72t-81 -53t-110.5 -19.5q-110 0 -173.5 57t-63.5 166q0 118 82.5 207.5t214.5 89.5q74 0 111 -45l2 2q-10 76 -57 141l-121 -59z
M245 93q48 0 84.5 37t52 85t15.5 95q0 45 -25.5 73t-78.5 28q-48 0 -84 -36t-51 -80.5t-15 -85.5q0 -49 27 -82.5t75 -33.5z" />
    <glyph glyph-name="ntilde" unicode="&#xf1;" horiz-adv-x="593" 
d="M-21 0l108 517h136l-16 -72h2q69 86 181 86q151 0 151 -139q0 -10 -3 -27.5t-7 -37t-5 -24.5l-64 -303h-142l63 303q9 48 9 63q0 22 -21 37.5t-47 15.5q-60 0 -95.5 -41t-49.5 -103l-58 -275h-142zM458 721h69l-9 -30t-12.5 -29t-20 -29t-29 -18t-41.5 -8q-29 0 -82 17
q-47 17 -70 17q-19 0 -27.5 -10t-14.5 -32h-61q12 55 39.5 88.5t86.5 33.5q19 0 64 -17q42 -18 66 -18q22 0 32.5 10t9.5 25z" />
    <glyph glyph-name="ograve" unicode="&#xf2;" horiz-adv-x="570" 
d="M138 209q0 -49 27 -82.5t75 -33.5q50 0 86 37t51 84.5t15 95.5q0 114 -104 114q-71 0 -110.5 -69t-39.5 -146zM-4 209q0 136 81.5 229t215.5 93q110 0 175.5 -55.5t65.5 -163.5q0 -140 -82 -233t-219 -93q-110 0 -173.5 57t-63.5 166zM285 731l88 -142h-100l-140 142h152
z" />
    <glyph glyph-name="oacute" unicode="&#xf3;" horiz-adv-x="570" 
d="M138 209q0 -49 27 -82.5t75 -33.5q50 0 86 37t51 84.5t15 95.5q0 114 -104 114q-71 0 -110.5 -69t-39.5 -146zM-4 209q0 136 81.5 229t215.5 93q110 0 175.5 -55.5t65.5 -163.5q0 -140 -82 -233t-219 -93q-110 0 -173.5 57t-63.5 166zM515 731l-140 -142h-100l88 142h152
z" />
    <glyph glyph-name="ocircumflex" unicode="&#xf4;" horiz-adv-x="570" 
d="M138 209q0 -49 27 -82.5t75 -33.5q50 0 86 37t51 84.5t15 95.5q0 114 -104 114q-71 0 -110.5 -69t-39.5 -146zM-4 209q0 136 81.5 229t215.5 93q110 0 175.5 -55.5t65.5 -163.5q0 -140 -82 -233t-219 -93q-110 0 -173.5 57t-63.5 166zM151 589l137 142h126l83 -142h-100
l-50 81l-87 -81h-109z" />
    <glyph glyph-name="otilde" unicode="&#xf5;" horiz-adv-x="570" 
d="M138 209q0 -49 27 -82.5t75 -33.5q50 0 86 37t51 84.5t15 95.5q0 114 -104 114q-71 0 -110.5 -69t-39.5 -146zM-4 209q0 136 81.5 229t215.5 93q110 0 175.5 -55.5t65.5 -163.5q0 -140 -82 -233t-219 -93q-110 0 -173.5 57t-63.5 166zM448 721h69l-9 -30t-12.5 -29
t-20 -29t-29 -18t-41.5 -8q-29 0 -82 17q-47 17 -70 17q-19 0 -27.5 -10t-14.5 -32h-61q12 55 39.5 88.5t86.5 33.5q19 0 64 -17q42 -18 66 -18q22 0 32.5 10t9.5 25z" />
    <glyph glyph-name="odieresis" unicode="&#xf6;" horiz-adv-x="570" 
d="M138 209q0 -49 27 -82.5t75 -33.5q50 0 86 37t51 84.5t15 95.5q0 114 -104 114q-71 0 -110.5 -69t-39.5 -146zM-4 209q0 136 81.5 229t215.5 93q110 0 175.5 -55.5t65.5 -163.5q0 -140 -82 -233t-219 -93q-110 0 -173.5 57t-63.5 166zM169 598l24 117h131l-24 -117h-131z
M365 598l24 117h131l-24 -117h-131z" />
    <glyph glyph-name="divide" unicode="&#xf7;" horiz-adv-x="582" 
d="M207 45q0 35 25.5 59.5t59.5 24.5t59 -24.5t25 -59.5q0 -32 -25 -58.5t-58 -26.5q-35 0 -60.5 25.5t-25.5 59.5zM207 460q0 35 25.5 60t59.5 25t59 -25t25 -60q0 -33 -25 -58.5t-58 -25.5q-35 0 -60.5 25t-25.5 59zM39 199v107h505v-107h-505z" />
    <glyph glyph-name="oslash" unicode="&#xf8;" horiz-adv-x="570" 
d="M535 539l30 -33l-68 -62q37 -54 37 -132q0 -140 -82 -233t-219 -93q-114 0 -172 57l-73 -67l-29 33l73 67q-36 52 -36 133q0 136 81.5 229t215.5 93q109 0 174 -54zM389 344l-229 -210q28 -41 80 -41q50 0 86 37t51 84.5t15 95.5q0 19 -3 34zM142 177l229 211
q-22 36 -83 36q-71 0 -110.5 -69t-39.5 -146q0 -20 4 -32z" />
    <glyph glyph-name="ugrave" unicode="&#xf9;" horiz-adv-x="574" 
d="M558 517l-108 -517h-136l16 72h-2q-69 -86 -181 -86q-151 0 -151 139q0 35 15 89l64 303h142l-63 -303q-9 -27 -9 -63q0 -22 21 -37.5t47 -15.5q60 0 95.5 41t49.5 103l58 275h142zM292 731l88 -142h-100l-140 142h152z" />
    <glyph glyph-name="uacute" unicode="&#xfa;" horiz-adv-x="574" 
d="M558 517l-108 -517h-136l16 72h-2q-69 -86 -181 -86q-151 0 -151 139q0 35 15 89l64 303h142l-63 -303q-9 -27 -9 -63q0 -22 21 -37.5t47 -15.5q60 0 95.5 41t49.5 103l58 275h142zM517 731l-140 -142h-100l88 142h152z" />
    <glyph glyph-name="ucircumflex" unicode="&#xfb;" horiz-adv-x="574" 
d="M558 517l-108 -517h-136l16 72h-2q-69 -86 -181 -86q-151 0 -151 139q0 35 15 89l64 303h142l-63 -303q-9 -27 -9 -63q0 -22 21 -37.5t47 -15.5q60 0 95.5 41t49.5 103l58 275h142zM151 589l137 142h126l83 -142h-100l-50 81l-87 -81h-109z" />
    <glyph glyph-name="udieresis" unicode="&#xfc;" horiz-adv-x="574" 
d="M558 517l-108 -517h-136l16 72h-2q-69 -86 -181 -86q-151 0 -151 139q0 35 15 89l64 303h142l-63 -303q-9 -27 -9 -63q0 -22 21 -37.5t47 -15.5q60 0 95.5 41t49.5 103l58 275h142zM164 598l24 117h131l-24 -117h-131zM360 598l24 117h131l-24 -117h-131z" />
    <glyph glyph-name="yacute" unicode="&#xfd;" horiz-adv-x="508" 
d="M541 517l-329 -590q-36 -65 -78 -87t-123 -22q-14 0 -40 2.5t-36 2.5l24 118q9 0 28.5 -3t29.5 -3q23 0 40.5 8t24 15.5t16.5 25t13 21.5l-92 512h146l45 -370h2l179 370h150zM493 731l-140 -142h-100l88 142h152z" />
    <glyph glyph-name="thorn" unicode="&#xfe;" horiz-adv-x="586" 
d="M314 424q-50 0 -87 -37t-53 -85.5t-16 -96.5q0 -52 26 -82t76 -30q51 0 87.5 36t52 83.5t15.5 96.5t-26.5 82t-74.5 33zM-68 -182l189 896h142l-57 -262h2q41 79 153 79q93 0 144.5 -54.5t51.5 -149.5q0 -65 -17.5 -125t-51 -109t-88.5 -78t-124 -29q-49 0 -89 21t-57 62
h-2l-54 -251h-142z" />
    <glyph glyph-name="ydieresis" unicode="&#xff;" horiz-adv-x="508" 
d="M541 517l-329 -590q-36 -65 -78 -87t-123 -22q-14 0 -40 2.5t-36 2.5l24 118q9 0 28.5 -3t29.5 -3q23 0 40.5 8t24 15.5t16.5 25t13 21.5l-92 512h146l45 -370h2l179 370h150zM130 598l24 117h131l-24 -117h-131zM326 598l24 117h131l-24 -117h-131z" />
    <glyph glyph-name="Amacron" unicode="&#x100;" horiz-adv-x="677" 
d="M-85 0l422 714h161l119 -714h-156l-23 159h-267l-90 -159h-166zM387 560l-154 -284h191l-35 284h-2zM270 809l14 75h305l-14 -75h-305z" />
    <glyph glyph-name="amacron" unicode="&#x101;" horiz-adv-x="538" 
d="M166 360h-133q9 62 46.5 101.5t86.5 54.5t112 15q40 0 74 -5.5t68.5 -19t54 -42t18.5 -69.5q0 -37 -11 -87l-46 -208q-7 -27 -7 -70q0 -13 5 -30h-142v51q-58 -65 -158 -65q-80 0 -124 39t-44 97q0 74 52 119.5t146 56.5q22 3 52.5 6t45.5 4.5t35 4.5t29 7.5t18.5 11.5
t13 17t3.5 24q0 35 -27.5 49t-62.5 14q-41 0 -70 -19.5t-35 -56.5zM319 198l14 50q-32 -19 -120 -25q-48 -5 -76.5 -22.5t-28.5 -61.5q0 -28 22.5 -43t55.5 -15q59 0 88.5 32t44.5 85zM156 619l14 75h305l-14 -75h-305z" />
    <glyph glyph-name="Abreve" unicode="&#x102;" horiz-adv-x="677" 
d="M-85 0l422 714h161l119 -714h-156l-23 159h-267l-90 -159h-166zM387 560l-154 -284h191l-35 284h-2zM268 923h65q3 -35 28.5 -53t65.5 -18q43 0 69 17.5t45 53.5h66q-42 -146 -189 -146q-69 0 -109.5 39.5t-40.5 106.5z" />
    <glyph glyph-name="abreve" unicode="&#x103;" horiz-adv-x="538" 
d="M166 360h-133q9 62 46.5 101.5t86.5 54.5t112 15q40 0 74 -5.5t68.5 -19t54 -42t18.5 -69.5q0 -37 -11 -87l-46 -208q-7 -27 -7 -70q0 -13 5 -30h-142v51q-58 -65 -158 -65q-80 0 -124 39t-44 97q0 74 52 119.5t146 56.5q22 3 52.5 6t45.5 4.5t35 4.5t29 7.5t18.5 11.5
t13 17t3.5 24q0 35 -27.5 49t-62.5 14q-41 0 -70 -19.5t-35 -56.5zM319 198l14 50q-32 -19 -120 -25q-48 -5 -76.5 -22.5t-28.5 -61.5q0 -28 22.5 -43t55.5 -15q59 0 88.5 32t44.5 85zM149 733h65q3 -35 28.5 -53t65.5 -18q43 0 69 17.5t45 53.5h66q-42 -146 -189 -146
q-69 0 -109.5 39.5t-40.5 106.5z" />
    <glyph glyph-name="Aogonek" unicode="&#x104;" horiz-adv-x="677" 
d="M506 -127l46 -25q-51 -65 -132 -65q-14 0 -28 2.5t-34 10t-32.5 27.5t-12.5 49q0 12 5 25t19 31.5t46 37.5t78 34l-23 159h-267l-90 -159h-166l422 714h161l119 -714h-91q-67 -39 -92 -67t-25 -56q0 -15 11.5 -24.5t27.5 -9.5q31 0 58 30zM387 560l-154 -284h191l-35 284
h-2z" />
    <glyph glyph-name="aogonek" unicode="&#x105;" horiz-adv-x="538" 
d="M331 -127l39 -25q-44 -65 -112 -65q-12 0 -24 2.5t-29 10t-27.5 27.5t-10.5 49q0 17 7 35.5t37 45.5t81 47v51q-58 -65 -158 -65q-80 0 -124 39t-44 97q0 74 52 119.5t146 56.5q22 3 52.5 6t45.5 4.5t35 4.5t29 7.5t18.5 11.5t13 17t3.5 24q0 35 -27.5 49t-62.5 14
q-41 0 -70 -19.5t-35 -56.5h-133q9 62 46.5 101.5t86.5 54.5t112 15q40 0 74 -5.5t68.5 -19t54 -42t18.5 -69.5q0 -37 -11 -87l-46 -208q-7 -27 -7 -70q0 -13 5 -30h-86q-57 -39 -78.5 -67t-21.5 -56q0 -14 10 -24t23 -10q25 0 50 30zM319 198l14 50q-32 -19 -120 -25
q-48 -5 -76.5 -22.5t-28.5 -61.5q0 -28 22.5 -43t55.5 -15q59 0 88.5 32t44.5 85z" />
    <glyph glyph-name="Cacute" unicode="&#x106;" horiz-adv-x="713" 
d="M699 466h-157q0 64 -34.5 98.5t-93.5 34.5q-76 0 -131 -47.5t-79 -113.5t-24 -139q0 -80 40.5 -132t121.5 -52q63 0 110 41.5t58 100.5h157q-47 -145 -127 -209.5t-200 -64.5q-151 0 -234 82t-83 234q0 116 46.5 214t136.5 158t207 60q129 0 208.5 -69.5t77.5 -195.5z
M624 921l-140 -142h-100l88 142h152z" />
    <glyph glyph-name="cacute" unicode="&#x107;" horiz-adv-x="546" 
d="M525 338h-142q0 86 -95 86q-38 0 -67.5 -21.5t-45.5 -55.5t-24 -70t-8 -72q0 -50 23.5 -81t74.5 -31q85 0 115 96h142q-68 -203 -267 -203q-111 0 -170.5 55t-59.5 167q0 137 78.5 230t213.5 93q101 0 165.5 -47.5t66.5 -145.5zM494 731l-140 -142h-100l88 142h152z" />
    <glyph glyph-name="Ccircumflex" unicode="&#x108;" horiz-adv-x="713" 
d="M699 466h-157q0 64 -34.5 98.5t-93.5 34.5q-76 0 -131 -47.5t-79 -113.5t-24 -139q0 -80 40.5 -132t121.5 -52q63 0 110 41.5t58 100.5h157q-47 -145 -127 -209.5t-200 -64.5q-151 0 -234 82t-83 234q0 116 46.5 214t136.5 158t207 60q129 0 208.5 -69.5t77.5 -195.5z
M267 779l137 142h126l83 -142h-100l-50 81l-87 -81h-109z" />
    <glyph glyph-name="ccircumflex" unicode="&#x109;" horiz-adv-x="546" 
d="M525 338h-142q0 86 -95 86q-38 0 -67.5 -21.5t-45.5 -55.5t-24 -70t-8 -72q0 -50 23.5 -81t74.5 -31q85 0 115 96h142q-68 -203 -267 -203q-111 0 -170.5 55t-59.5 167q0 137 78.5 230t213.5 93q101 0 165.5 -47.5t66.5 -145.5zM142 589l137 142h126l83 -142h-100l-50 81
l-87 -81h-109z" />
    <glyph glyph-name="Cdotaccent" unicode="&#x10a;" horiz-adv-x="713" 
d="M699 466h-157q0 64 -34.5 98.5t-93.5 34.5q-76 0 -131 -47.5t-79 -113.5t-24 -139q0 -80 40.5 -132t121.5 -52q63 0 110 41.5t58 100.5h157q-47 -145 -127 -209.5t-200 -64.5q-151 0 -234 82t-83 234q0 116 46.5 214t136.5 158t207 60q129 0 208.5 -69.5t77.5 -195.5z
M368 788l24 117h131l-24 -117h-131z" />
    <glyph glyph-name="cdotaccent" unicode="&#x10b;" horiz-adv-x="546" 
d="M525 338h-142q0 86 -95 86q-38 0 -67.5 -21.5t-45.5 -55.5t-24 -70t-8 -72q0 -50 23.5 -81t74.5 -31q85 0 115 96h142q-68 -203 -267 -203q-111 0 -170.5 55t-59.5 167q0 137 78.5 230t213.5 93q101 0 165.5 -47.5t66.5 -145.5zM252 598l24 117h131l-24 -117h-131z" />
    <glyph glyph-name="Ccaron" unicode="&#x10c;" horiz-adv-x="713" 
d="M699 466h-157q0 64 -34.5 98.5t-93.5 34.5q-76 0 -131 -47.5t-79 -113.5t-24 -139q0 -80 40.5 -132t121.5 -52q63 0 110 41.5t58 100.5h157q-47 -145 -127 -209.5t-200 -64.5q-151 0 -234 82t-83 234q0 116 46.5 214t136.5 158t207 60q129 0 208.5 -69.5t77.5 -195.5z
M631 921l-137 -142h-126l-83 142h100l50 -83l87 83h109z" />
    <glyph glyph-name="ccaron" unicode="&#x10d;" horiz-adv-x="546" 
d="M525 338h-142q0 86 -95 86q-38 0 -67.5 -21.5t-45.5 -55.5t-24 -70t-8 -72q0 -50 23.5 -81t74.5 -31q85 0 115 96h142q-68 -203 -267 -203q-111 0 -170.5 55t-59.5 167q0 137 78.5 230t213.5 93q101 0 165.5 -47.5t66.5 -145.5zM510 731l-137 -142h-126l-83 142h100
l50 -83l87 83h109z" />
    <glyph glyph-name="Dcaron" unicode="&#x10e;" horiz-adv-x="713" 
d="M263 582l-96 -450h121q116 0 182.5 79.5t66.5 197.5q0 173 -156 173h-118zM-18 0l151 714h258q149 0 226 -72.5t77 -205.5q0 -194 -107 -315t-306 -121h-299zM580 921l-137 -142h-126l-83 142h100l50 -83l87 83h109z" />
    <glyph glyph-name="dcaron" unicode="&#x10f;" horiz-adv-x="701" 
d="M293 424q-51 0 -87.5 -36t-52 -83.5t-15.5 -96.5t26.5 -82t74.5 -33q50 0 87 37t53 85.5t16 96.5q0 52 -26 82t-76 30zM336 0l14 64l-2 2q-46 -80 -155 -80q-93 0 -145 54.5t-52 149.5q0 65 17.5 125t51 109t89 78t124.5 29q48 0 88.5 -21.5t56.5 -61.5h2l57 266h142
l-151 -714h-137zM856 714l-117 -142h-98l67 142h148z" />
    <glyph glyph-name="Dcroat" unicode="&#x110;" horiz-adv-x="713" 
d="M263 582l-33 -155h168l-25 -117h-169l-37 -178h121q116 0 182.5 79.5t66.5 197.5q0 173 -156 173h-118zM-18 0l65 310h-82l25 117h83l60 287h258q149 0 226 -72.5t77 -205.5q0 -194 -107 -315t-306 -121h-299z" />
    <glyph glyph-name="dcroat" unicode="&#x111;" horiz-adv-x="619" 
d="M336 0l14 64l-2 2q-46 -80 -155 -80q-93 0 -145 54.5t-52 149.5q0 65 17.5 125t51 109t89 78t124.5 29q48 0 88.5 -21.5t56.5 -61.5h2l26 123h-115l14 75h117l15 68h142l-15 -68h93l-14 -75h-94l-121 -571h-137zM293 424q-51 0 -87.5 -36t-52 -83.5t-15.5 -96.5t26.5 -82
t74.5 -33q50 0 87 37t53 85.5t16 96.5q0 52 -26 82t-76 30z" />
    <glyph glyph-name="Emacron" unicode="&#x112;" horiz-adv-x="639" 
d="M-18 0l150 714h545l-27 -132h-388l-32 -153h359l-26 -122h-359l-37 -175h394l-28 -132h-551zM258 809l14 75h305l-14 -75h-305z" />
    <glyph glyph-name="emacron" unicode="&#x113;" horiz-adv-x="552" 
d="M142 314h237q0 110 -96 110q-102 0 -141 -110zM508 224h-381q-1 -7 -1 -17v-13q0 -47 29 -74t85 -27q26 0 48 12t33 24.5t25 34.5h142q-35 -90 -97.5 -134t-170.5 -44q-106 0 -168 58.5t-62 167.5q0 130 79 224.5t206 94.5q111 0 176 -58t65 -168q0 -38 -8 -81zM157 619
l14 75h305l-14 -75h-305z" />
    <glyph glyph-name="Ebreve" unicode="&#x114;" horiz-adv-x="639" 
d="M-18 0l150 714h545l-27 -132h-388l-32 -153h359l-26 -122h-359l-37 -175h394l-28 -132h-551zM252 923h65q3 -35 28.5 -53t65.5 -18q43 0 69 17.5t45 53.5h66q-42 -146 -189 -146q-69 0 -109.5 39.5t-40.5 106.5z" />
    <glyph glyph-name="ebreve" unicode="&#x115;" horiz-adv-x="552" 
d="M142 314h237q0 110 -96 110q-102 0 -141 -110zM508 224h-381q-1 -7 -1 -17v-13q0 -47 29 -74t85 -27q26 0 48 12t33 24.5t25 34.5h142q-35 -90 -97.5 -134t-170.5 -44q-106 0 -168 58.5t-62 167.5q0 130 79 224.5t206 94.5q111 0 176 -58t65 -168q0 -38 -8 -81zM157 733
h65q3 -35 28.5 -53t65.5 -18q43 0 69 17.5t45 53.5h66q-42 -146 -189 -146q-69 0 -109.5 39.5t-40.5 106.5z" />
    <glyph glyph-name="Edotaccent" unicode="&#x116;" horiz-adv-x="639" 
d="M-18 0l150 714h545l-27 -132h-388l-32 -153h359l-26 -122h-359l-37 -175h394l-28 -132h-551zM343 788l24 117h131l-24 -117h-131z" />
    <glyph glyph-name="edotaccent" unicode="&#x117;" horiz-adv-x="552" 
d="M142 314h237q0 110 -96 110q-102 0 -141 -110zM508 224h-381q-1 -7 -1 -17v-13q0 -47 29 -74t85 -27q26 0 48 12t33 24.5t25 34.5h142q-35 -90 -97.5 -134t-170.5 -44q-106 0 -168 58.5t-62 167.5q0 130 79 224.5t206 94.5q111 0 176 -58t65 -168q0 -38 -8 -81zM242 598
l24 117h131l-24 -117h-131z" />
    <glyph glyph-name="Eogonek" unicode="&#x118;" horiz-adv-x="639" 
d="M456 -127l46 -25q-51 -65 -132 -65q-14 0 -28 2.5t-34 10t-32.5 27.5t-12.5 49q0 12 5 25t19 31.5t46 37.5t78 34h-429l150 714h545l-27 -132h-388l-32 -153h359l-26 -122h-359l-37 -175h394l-28 -132h-57q-67 -39 -92 -67t-25 -56q0 -15 11.5 -24.5t27.5 -9.5
q31 0 58 30z" />
    <glyph glyph-name="eogonek" unicode="&#x119;" horiz-adv-x="552" 
d="M267 -127l46 -25q-51 -65 -132 -65q-14 0 -28 2.5t-34 10t-32.5 27.5t-12.5 49q0 47 69 93q19 13 44 23q-34 3 -62 12q-135 49 -135 212q0 130 79 224.5t206 94.5q111 0 176 -58t65 -168q0 -38 -8 -81h-381q-1 -7 -1 -17v-13q0 -47 29 -74t85 -27q26 0 48 12t33 24.5
t25 34.5h142q-53 -136 -170 -166q-22 -7 -52 -10q-9 -5 -22 -14t-16 -11q-58 -45 -58 -86q0 -15 11.5 -24.5t27.5 -9.5q31 0 58 30zM142 314h237q0 110 -96 110q-102 0 -141 -110z" />
    <glyph glyph-name="Ecaron" unicode="&#x11a;" horiz-adv-x="639" 
d="M-18 0l150 714h545l-27 -132h-388l-32 -153h359l-26 -122h-359l-37 -175h394l-28 -132h-551zM605 921l-137 -142h-126l-83 142h100l50 -83l87 83h109z" />
    <glyph glyph-name="ecaron" unicode="&#x11b;" horiz-adv-x="552" 
d="M142 314h237q0 110 -96 110q-102 0 -141 -110zM508 224h-381q-1 -7 -1 -17v-13q0 -47 29 -74t85 -27q26 0 48 12t33 24.5t25 34.5h142q-35 -90 -97.5 -134t-170.5 -44q-106 0 -168 58.5t-62 167.5q0 130 79 224.5t206 94.5q111 0 176 -58t65 -168q0 -38 -8 -81zM494 731
l-137 -142h-126l-83 142h100l50 -83l87 83h109z" />
    <glyph glyph-name="Gcircumflex" unicode="&#x11c;" horiz-adv-x="737" 
d="M522 0v73h-2q-66 -90 -180 -90q-151 0 -234 82t-83 234q0 116 46.5 214t136.5 158t207 60q133 0 218 -64t85 -189h-157q-6 121 -145 121q-76 0 -131 -47.5t-79 -113.5t-24 -139q0 -80 40.5 -132t121.5 -52q84 0 130 40t68 114h-165l25 117h303l-82 -386h-99zM265 779
l137 142h126l83 -142h-100l-50 81l-87 -81h-109z" />
    <glyph glyph-name="gcircumflex" unicode="&#x11d;" horiz-adv-x="598" 
d="M577 517l-103 -490q-26 -118 -92 -170.5t-193 -52.5q-56 0 -104 15.5t-82.5 55t-34.5 98.5h142q-2 -37 26 -55.5t67 -18.5q26 0 47 10t34.5 23.5t26 40.5t19 47.5t17.5 58.5l-2 2q-55 -73 -142 -73q-92 0 -145.5 57.5t-53.5 153.5q0 122 72 217t189 95q118 0 158 -93h2
l16 79h136zM291 424q-66 0 -105.5 -62t-39.5 -133q0 -49 24 -81.5t72 -32.5q70 0 110.5 61.5t40.5 135.5q0 51 -26 81.5t-76 30.5zM179 589l137 142h126l83 -142h-100l-50 81l-87 -81h-109z" />
    <glyph glyph-name="Gbreve" unicode="&#x11e;" horiz-adv-x="737" 
d="M522 0v73h-2q-66 -90 -180 -90q-151 0 -234 82t-83 234q0 116 46.5 214t136.5 158t207 60q133 0 218 -64t85 -189h-157q-6 121 -145 121q-76 0 -131 -47.5t-79 -113.5t-24 -139q0 -80 40.5 -132t121.5 -52q84 0 130 40t68 114h-165l25 117h303l-82 -386h-99zM281 923h65
q3 -35 28.5 -53t65.5 -18q43 0 69 17.5t45 53.5h66q-42 -146 -189 -146q-69 0 -109.5 39.5t-40.5 106.5z" />
    <glyph glyph-name="gbreve" unicode="&#x11f;" horiz-adv-x="598" 
d="M577 517l-103 -490q-26 -118 -92 -170.5t-193 -52.5q-56 0 -104 15.5t-82.5 55t-34.5 98.5h142q-2 -37 26 -55.5t67 -18.5q26 0 47 10t34.5 23.5t26 40.5t19 47.5t17.5 58.5l-2 2q-55 -73 -142 -73q-92 0 -145.5 57.5t-53.5 153.5q0 122 72 217t189 95q118 0 158 -93h2
l16 79h136zM291 424q-66 0 -105.5 -62t-39.5 -133q0 -49 24 -81.5t72 -32.5q70 0 110.5 61.5t40.5 135.5q0 51 -26 81.5t-76 30.5zM198 733h65q3 -35 28.5 -53t65.5 -18q43 0 69 17.5t45 53.5h66q-42 -146 -189 -146q-69 0 -109.5 39.5t-40.5 106.5z" />
    <glyph glyph-name="Gdotaccent" unicode="&#x120;" horiz-adv-x="737" 
d="M522 0v73h-2q-66 -90 -180 -90q-151 0 -234 82t-83 234q0 116 46.5 214t136.5 158t207 60q133 0 218 -64t85 -189h-157q-6 121 -145 121q-76 0 -131 -47.5t-79 -113.5t-24 -139q0 -80 40.5 -132t121.5 -52q84 0 130 40t68 114h-165l25 117h303l-82 -386h-99zM364 788
l24 117h131l-24 -117h-131z" />
    <glyph glyph-name="gdotaccent" unicode="&#x121;" horiz-adv-x="598" 
d="M577 517l-103 -490q-26 -118 -92 -170.5t-193 -52.5q-56 0 -104 15.5t-82.5 55t-34.5 98.5h142q-2 -37 26 -55.5t67 -18.5q26 0 47 10t34.5 23.5t26 40.5t19 47.5t17.5 58.5l-2 2q-55 -73 -142 -73q-92 0 -145.5 57.5t-53.5 153.5q0 122 72 217t189 95q118 0 158 -93h2
l16 79h136zM291 424q-66 0 -105.5 -62t-39.5 -133q0 -49 24 -81.5t72 -32.5q70 0 110.5 61.5t40.5 135.5q0 51 -26 81.5t-76 30.5zM263 598l24 117h131l-24 -117h-131z" />
    <glyph glyph-name="Gcommaaccent" unicode="&#x122;" horiz-adv-x="737" 
d="M522 0v73h-2q-66 -90 -180 -90q-151 0 -234 82t-83 234q0 116 46.5 214t136.5 158t207 60q133 0 218 -64t85 -189h-157q-6 121 -145 121q-76 0 -131 -47.5t-79 -113.5t-24 -139q0 -80 40.5 -132t121.5 -52q84 0 130 40t68 114h-165l25 117h303l-82 -386h-99zM236 -143
l19 93h145l-15 -73q-15 -58 -51.5 -76.5t-103.5 -17.5l8 37q49 5 65 37h-67z" />
    <glyph glyph-name="gcommaaccent" unicode="&#x123;" horiz-adv-x="598" 
d="M577 517l-103 -490q-26 -118 -92 -170.5t-193 -52.5q-56 0 -104 15.5t-82.5 55t-34.5 98.5h142q-2 -37 26 -55.5t67 -18.5q26 0 47 10t34.5 23.5t26 40.5t19 47.5t17.5 58.5l-2 2q-55 -73 -142 -73q-92 0 -145.5 57.5t-53.5 153.5q0 122 72 217t189 95q118 0 158 -93h2
l16 79h136zM291 424q-66 0 -105.5 -62t-39.5 -133q0 -49 24 -81.5t72 -32.5q70 0 110.5 61.5t40.5 135.5q0 51 -26 81.5t-76 30.5zM435 714l-19 -93h-145l15 73q15 58 51.5 76.5t103.5 17.5l-8 -37q-49 -5 -65 -37h67z" />
    <glyph glyph-name="Hcircumflex" unicode="&#x124;" horiz-adv-x="713" 
d="M-18 0l151 714h158l-58 -274h289l58 274h158l-151 -714h-158l65 308h-289l-65 -308h-158zM264 779l137 142h126l83 -142h-100l-50 81l-87 -81h-109z" />
    <glyph glyph-name="hcircumflex" unicode="&#x125;" horiz-adv-x="593" 
d="M-21 0l149 714h142l-53 -257h2q21 29 64.5 51.5t106.5 22.5q151 0 151 -139q0 -10 -3 -27.5t-7 -37t-5 -24.5l-64 -303h-142l63 303q9 48 9 63q0 22 -21 37.5t-47 15.5q-60 0 -95.5 -41t-49.5 -103l-58 -275h-142zM191 779l137 142h126l83 -142h-100l-50 81l-87 -81h-109
z" />
    <glyph glyph-name="Hbar" unicode="&#x126;" horiz-adv-x="713" 
d="M-18 0l151 714h158l-30 -142h289l30 142h158l-151 -714h-158l61 288h-289l-61 -288h-158zM229 420h289l16 77h-289z" />
    <glyph glyph-name="hbar" unicode="&#x127;" horiz-adv-x="625" 
d="M34 571l14 75h97l15 68h142l-14 -68h100l-14 -75h-102l-23 -114h2q21 29 64.5 51.5t106.5 22.5q151 0 151 -139q0 -10 -3 -27.5t-7 -37t-5 -24.5l-64 -303h-142l63 303q9 48 9 63q0 22 -21 37.5t-47 15.5q-60 0 -95.5 -41t-49.5 -103l-58 -275h-142l119 571h-96z" />
    <glyph glyph-name="Itilde" unicode="&#x128;" horiz-adv-x="268" 
d="M-18 0l151 714h158l-151 -714h-158zM340 911h69l-9 -30t-12.5 -29t-20 -29t-29 -18t-41.5 -8q-29 0 -82 17q-47 17 -70 17q-19 0 -27.5 -10t-14.5 -32h-61q12 55 39.5 88.5t86.5 33.5q19 0 64 -17q42 -18 66 -18q22 0 32.5 10t9.5 25z" />
    <glyph glyph-name="itilde" unicode="&#x129;" horiz-adv-x="253" 
d="M232 517l-110 -517h-143l110 517h143zM285 721h69l-9 -30t-12.5 -29t-20 -29t-29 -18t-41.5 -8q-29 0 -82 17q-47 17 -70 17q-19 0 -27.5 -10t-14.5 -32h-61q12 55 39.5 88.5t86.5 33.5q19 0 64 -17q42 -18 66 -18q22 0 32.5 10t9.5 25z" />
    <glyph glyph-name="Imacron" unicode="&#x12a;" horiz-adv-x="268" 
d="M-18 0l151 714h158l-151 -714h-158zM70 809l14 75h305l-14 -75h-305z" />
    <glyph glyph-name="imacron" unicode="&#x12b;" horiz-adv-x="253" 
d="M232 517l-110 -517h-143l110 517h143zM20 619l14 75h305l-14 -75h-305z" />
    <glyph glyph-name="Iogonek" unicode="&#x12e;" horiz-adv-x="268" 
d="M120 -127l46 -25q-51 -65 -132 -65q-14 0 -28 2.5t-34 10t-32.5 27.5t-12.5 49q0 12 5 25t19 31.5t46 37.5t78 34h-93l151 714h158l-151 -714q-67 -39 -92 -67t-25 -56q0 -15 11.5 -24.5t27.5 -9.5q31 0 58 30z" />
    <glyph glyph-name="iogonek" unicode="&#x12f;" horiz-adv-x="253" 
d="M104 -127l41 -25q-46 -65 -119 -65q-12 0 -24.5 2.5t-31 10t-29.5 27.5t-11 49q0 12 4.5 25t17 31.5t41 37.5t70.5 34h-84l110 517h143l-110 -517q-61 -39 -83.5 -67t-22.5 -56q0 -15 10.5 -24.5t25.5 -9.5q26 0 52 30zM274 714l-26 -117h-143l26 117h143z" />
    <glyph glyph-name="Idotaccent" unicode="&#x130;" horiz-adv-x="268" 
d="M-18 0l151 714h158l-151 -714h-158zM159 788l24 117h131l-24 -117h-131z" />
    <glyph glyph-name="dotlessi" unicode="&#x131;" horiz-adv-x="253" 
d="M232 517l-110 -517h-143l110 517h143z" />
    <glyph glyph-name="Jcircumflex" unicode="&#x134;" horiz-adv-x="528" 
d="M551 714l-106 -511q-25 -109 -87 -164.5t-174 -55.5q-93 0 -155 42.5t-62 130.5q0 41 13 110h143q-14 -62 -14 -84q0 -31 22.5 -49t54.5 -18q20 0 35 3.5t26 14.5t17.5 18t13 26.5t8.5 27t8 32.5l99 477h158zM304 779l137 142h126l83 -142h-100l-50 81l-87 -81h-109z" />
    <glyph glyph-name="jcircumflex" unicode="&#x135;" horiz-adv-x="254" 
d="M-141 -177l24 114q34 -2 51 -2q11 0 19.5 6.5t14 19t9 22.5t7 25.5t4.5 19.5l103 489h142l-113 -536q-19 -87 -59.5 -125t-132.5 -38q-13 0 -36.5 2.5t-32.5 2.5zM-13 589l137 142h126l83 -142h-100l-50 81l-87 -81h-109z" />
    <glyph glyph-name="Kcommaaccent" unicode="&#x136;" horiz-adv-x="694" 
d="M-18 0l149 714h157l-62 -299h2l324 299h208l-343 -294l219 -420h-177l-163 321l-109 -95l-47 -226h-158zM195 -143l19 93h145l-15 -73q-15 -58 -51.5 -76.5t-103.5 -17.5l8 37q49 5 65 37h-67z" />
    <glyph glyph-name="kcommaaccent" unicode="&#x137;" horiz-adv-x="545" 
d="M-21 0l150 714h142l-82 -388l2 -2l204 193h175l-232 -196l133 -321h-156l-85 231l-74 -63l-35 -168h-142zM120 -143l19 93h145l-15 -73q-15 -58 -51.5 -76.5t-103.5 -17.5l8 37q49 5 65 37h-67z" />
    <glyph glyph-name="Lacute" unicode="&#x139;" horiz-adv-x="574" 
d="M-18 0l150 714h158l-122 -582h345l-28 -132h-503zM411 921l-140 -142h-100l88 142h152z" />
    <glyph glyph-name="lacute" unicode="&#x13a;" horiz-adv-x="252" 
d="M-21 0l152 714h142l-152 -714h-142zM381 921l-140 -142h-100l88 142h152z" />
    <glyph glyph-name="Lcommaaccent" unicode="&#x13b;" horiz-adv-x="574" 
d="M-18 0l150 714h158l-122 -582h345l-28 -132h-503zM134 -143l19 93h145l-15 -73q-15 -58 -51.5 -76.5t-103.5 -17.5l8 37q49 5 65 37h-67z" />
    <glyph glyph-name="lcommaaccent" unicode="&#x13c;" horiz-adv-x="252" 
d="M-21 0l152 714h142l-152 -714h-142zM-50 -143l19 93h145l-15 -73q-15 -58 -51.5 -76.5t-103.5 -17.5l8 37q49 5 65 37h-67z" />
    <glyph glyph-name="Lcaron" unicode="&#x13d;" horiz-adv-x="574" 
d="M-18 0l150 714h158l-122 -582h345l-28 -132h-503zM562 714l-117 -142h-98l67 142h148z" />
    <glyph glyph-name="lcaron" unicode="&#x13e;" horiz-adv-x="349" 
d="M-21 0l152 714h142l-152 -714h-142zM504 714l-117 -142h-98l67 142h148z" />
    <glyph glyph-name="Ldot" unicode="&#x13f;" horiz-adv-x="574" 
d="M-18 0l150 714h158l-122 -582h345l-28 -132h-503zM338 400l24 117h131l-24 -117h-131z" />
    <glyph glyph-name="ldot" unicode="&#x140;" horiz-adv-x="441" 
d="M-21 0l152 714h142l-152 -714h-142zM276 400l24 117h131l-24 -117h-131z" />
    <glyph glyph-name="Lslash" unicode="&#x141;" horiz-adv-x="556" 
d="M-13 0l42 200l-82 -56l21 111l85 58l84 401h158l-58 -274l204 140l-26 -115l-202 -139l-41 -194h346l-28 -132h-503z" />
    <glyph glyph-name="lslash" unicode="&#x142;" horiz-adv-x="252" 
d="M121 0h-142l59 278l-71 -54l26 122l71 54l67 314h142l-39 -186l83 63l-26 -121l-83 -63z" />
    <glyph glyph-name="Nacute" unicode="&#x143;" horiz-adv-x="713" 
d="M-18 0l151 714h162l194 -508h2l102 508h144l-151 -714h-157l-196 501h-2l-102 -501h-147zM624 921l-140 -142h-100l88 142h152z" />
    <glyph glyph-name="nacute" unicode="&#x144;" horiz-adv-x="593" 
d="M-21 0l108 517h136l-16 -72h2q69 86 181 86q151 0 151 -139q0 -10 -3 -27.5t-7 -37t-5 -24.5l-64 -303h-142l63 303q9 48 9 63q0 22 -21 37.5t-47 15.5q-60 0 -95.5 -41t-49.5 -103l-58 -275h-142zM512 731l-140 -142h-100l88 142h152z" />
    <glyph glyph-name="Ncommaaccent" unicode="&#x145;" horiz-adv-x="713" 
d="M-18 0l151 714h162l194 -508h2l102 508h144l-151 -714h-157l-196 501h-2l-102 -501h-147zM194 -143l19 93h145l-15 -73q-15 -58 -51.5 -76.5t-103.5 -17.5l8 37q49 5 65 37h-67z" />
    <glyph glyph-name="ncommaaccent" unicode="&#x146;" horiz-adv-x="593" 
d="M-21 0l108 517h136l-16 -72h2q69 86 181 86q151 0 151 -139q0 -10 -3 -27.5t-7 -37t-5 -24.5l-64 -303h-142l63 303q9 48 9 63q0 22 -21 37.5t-47 15.5q-60 0 -95.5 -41t-49.5 -103l-58 -275h-142zM121 -143l19 93h145l-15 -73q-15 -58 -51.5 -76.5t-103.5 -17.5l8 37
q49 5 65 37h-67z" />
    <glyph glyph-name="Ncaron" unicode="&#x147;" horiz-adv-x="713" 
d="M-18 0l151 714h162l194 -508h2l102 508h144l-151 -714h-157l-196 501h-2l-102 -501h-147zM632 921l-137 -142h-126l-83 142h100l50 -83l87 83h109z" />
    <glyph glyph-name="ncaron" unicode="&#x148;" horiz-adv-x="593" 
d="M-21 0l108 517h136l-16 -72h2q69 86 181 86q151 0 151 -139q0 -10 -3 -27.5t-7 -37t-5 -24.5l-64 -303h-142l63 303q9 48 9 63q0 22 -21 37.5t-47 15.5q-60 0 -95.5 -41t-49.5 -103l-58 -275h-142zM524 731l-137 -142h-126l-83 142h100l50 -83l87 83h109z" />
    <glyph glyph-name="Omacron" unicode="&#x14c;" horiz-adv-x="750" 
d="M23 299q0 116 46.5 214t136.5 158t207 60q147 0 232 -79t85 -227q0 -120 -44.5 -219t-134.5 -161t-211 -62q-151 0 -234 82t-83 234zM180 299q0 -80 40.5 -132t121.5 -52q73 0 127.5 47.5t79 113.5t24.5 138q0 82 -38.5 133.5t-120.5 51.5q-76 0 -131 -47.5t-79 -113.5
t-24 -139zM298 809l14 75h305l-14 -75h-305z" />
    <glyph glyph-name="omacron" unicode="&#x14d;" horiz-adv-x="570" 
d="M138 209q0 -49 27 -82.5t75 -33.5q50 0 86 37t51 84.5t15 95.5q0 114 -104 114q-71 0 -110.5 -69t-39.5 -146zM-4 209q0 136 81.5 229t215.5 93q110 0 175.5 -55.5t65.5 -163.5q0 -140 -82 -233t-219 -93q-110 0 -173.5 57t-63.5 166zM176 619l14 75h305l-14 -75h-305z
" />
    <glyph glyph-name="Obreve" unicode="&#x14e;" horiz-adv-x="750" 
d="M23 299q0 116 46.5 214t136.5 158t207 60q147 0 232 -79t85 -227q0 -120 -44.5 -219t-134.5 -161t-211 -62q-151 0 -234 82t-83 234zM180 299q0 -80 40.5 -132t121.5 -52q73 0 127.5 47.5t79 113.5t24.5 138q0 82 -38.5 133.5t-120.5 51.5q-76 0 -131 -47.5t-79 -113.5
t-24 -139zM295 923h65q3 -35 28.5 -53t65.5 -18q43 0 69 17.5t45 53.5h66q-42 -146 -189 -146q-69 0 -109.5 39.5t-40.5 106.5z" />
    <glyph glyph-name="obreve" unicode="&#x14f;" horiz-adv-x="570" 
d="M138 209q0 -49 27 -82.5t75 -33.5q50 0 86 37t51 84.5t15 95.5q0 114 -104 114q-71 0 -110.5 -69t-39.5 -146zM-4 209q0 136 81.5 229t215.5 93q110 0 175.5 -55.5t65.5 -163.5q0 -140 -82 -233t-219 -93q-110 0 -173.5 57t-63.5 166zM175 733h65q3 -35 28.5 -53
t65.5 -18q43 0 69 17.5t45 53.5h66q-42 -146 -189 -146q-69 0 -109.5 39.5t-40.5 106.5z" />
    <glyph glyph-name="Ohungarumlaut" unicode="&#x150;" horiz-adv-x="750" 
d="M23 299q0 116 46.5 214t136.5 158t207 60q147 0 232 -79t85 -227q0 -120 -44.5 -219t-134.5 -161t-211 -62q-151 0 -234 82t-83 234zM180 299q0 -80 40.5 -132t121.5 -52q73 0 127.5 47.5t79 113.5t24.5 138q0 82 -38.5 133.5t-120.5 51.5q-76 0 -131 -47.5t-79 -113.5
t-24 -139zM725 921l-140 -142h-100l88 142h152zM525 921l-140 -142h-100l88 142h152z" />
    <glyph glyph-name="ohungarumlaut" unicode="&#x151;" horiz-adv-x="570" 
d="M138 209q0 -49 27 -82.5t75 -33.5q50 0 86 37t51 84.5t15 95.5q0 114 -104 114q-71 0 -110.5 -69t-39.5 -146zM-4 209q0 136 81.5 229t215.5 93q110 0 175.5 -55.5t65.5 -163.5q0 -140 -82 -233t-219 -93q-110 0 -173.5 57t-63.5 166zM607 731l-140 -142h-100l88 142h152
zM407 731l-140 -142h-100l88 142h152z" />
    <glyph glyph-name="OE" unicode="&#x152;" horiz-adv-x="1103" 
d="M411 599q-76 0 -130.5 -50t-77.5 -118.5t-23 -141.5q0 -78 35.5 -126t110.5 -48q65 0 111.5 33.5t67.5 90.5q15 40 31 122.5t16 120.5q0 58 -40 87.5t-101 29.5zM468 0l12 56l-2 2q-31 -37 -80 -56t-102 -19q-130 0 -201.5 86t-71.5 219q0 88 26.5 167.5t75 141t123.5 98
t165 36.5q122 0 181 -82l14 65h507l-28 -132h-361l-33 -153h330l-26 -122h-329l-38 -175h368l-28 -132h-502z" />
    <glyph glyph-name="oe" unicode="&#x153;" horiz-adv-x="913" 
d="M137 201q0 -47 24.5 -77.5t72.5 -30.5q38 0 67.5 24t46 61.5t24.5 76.5t8 76q0 39 -22.5 66t-67.5 27q-39 0 -69.5 -23.5t-48 -59.5t-26.5 -72.5t-9 -67.5zM703 161h142q-27 -85 -97 -130t-162 -45q-65 0 -109.5 18.5t-74.5 67.5q-61 -86 -186 -86q-61 0 -106 20
t-69 54.5t-35 74t-11 85.5q0 120 87 215.5t214 95.5q54 0 101.5 -21t72.5 -63q25 37 77 60.5t100 23.5q109 0 169.5 -60t60.5 -167q0 -36 -10 -80h-377q-3 -16 -3 -34q0 -43 27.5 -70t74.5 -27q90 0 114 68zM504 314h234q2 14 2 22q0 35 -25.5 61.5t-68.5 26.5
q-58 0 -89.5 -28.5t-52.5 -81.5z" />
    <glyph glyph-name="Racute" unicode="&#x154;" horiz-adv-x="687" 
d="M264 592l-42 -201h145q69 0 115.5 28.5t46.5 84.5q0 53 -30.5 70.5t-85.5 17.5h-149zM-18 0l150 714h341q213 5 213 -187q0 -73 -46 -127.5t-118 -64.5v-2q74 -24 74 -126q0 -15 -2.5 -57.5t-2.5 -66.5q0 -57 10 -83h-153q-7 30 -7 48q0 24 4 72.5t4 72.5
q0 49 -26.5 67.5t-76.5 18.5h-148l-59 -279h-157zM572 921l-140 -142h-100l88 142h152z" />
    <glyph glyph-name="racute" unicode="&#x155;" horiz-adv-x="371" 
d="M-21 0l108 517h135l-21 -93l2 -2q23 53 71 81t107 28q21 0 44 -3l-29 -138q-45 9 -60 9q-75 0 -112.5 -46t-54.5 -124l-48 -229h-142zM372 731l-140 -142h-100l88 142h152z" />
    <glyph glyph-name="Rcommaaccent" unicode="&#x156;" horiz-adv-x="687" 
d="M264 592l-42 -201h145q69 0 115.5 28.5t46.5 84.5q0 53 -30.5 70.5t-85.5 17.5h-149zM-18 0l150 714h341q213 5 213 -187q0 -73 -46 -127.5t-118 -64.5v-2q74 -24 74 -126q0 -15 -2.5 -57.5t-2.5 -66.5q0 -57 10 -83h-153q-7 30 -7 48q0 24 4 72.5t4 72.5
q0 49 -26.5 67.5t-76.5 18.5h-148l-59 -279h-157zM194 -143l19 93h145l-15 -73q-15 -58 -51.5 -76.5t-103.5 -17.5l8 37q49 5 65 37h-67z" />
    <glyph glyph-name="rcommaaccent" unicode="&#x157;" horiz-adv-x="371" 
d="M-21 0l108 517h135l-21 -93l2 -2q23 53 71 81t107 28q21 0 44 -3l-29 -138q-45 9 -60 9q-75 0 -112.5 -46t-54.5 -124l-48 -229h-142zM-48 -143l19 93h145l-15 -73q-15 -58 -51.5 -76.5t-103.5 -17.5l8 37q49 5 65 37h-67z" />
    <glyph glyph-name="Rcaron" unicode="&#x158;" horiz-adv-x="687" 
d="M264 592l-42 -201h145q69 0 115.5 28.5t46.5 84.5q0 53 -30.5 70.5t-85.5 17.5h-149zM-18 0l150 714h341q213 5 213 -187q0 -73 -46 -127.5t-118 -64.5v-2q74 -24 74 -126q0 -15 -2.5 -57.5t-2.5 -66.5q0 -57 10 -83h-153q-7 30 -7 48q0 24 4 72.5t4 72.5
q0 49 -26.5 67.5t-76.5 18.5h-148l-59 -279h-157zM591 921l-137 -142h-126l-83 142h100l50 -83l87 83h109z" />
    <glyph glyph-name="rcaron" unicode="&#x159;" horiz-adv-x="371" 
d="M-21 0l108 517h135l-21 -93l2 -2q23 53 71 81t107 28q21 0 44 -3l-29 -138q-45 9 -60 9q-75 0 -112.5 -46t-54.5 -124l-48 -229h-142zM456 731l-137 -142h-126l-83 142h100l50 -83l87 83h109z" />
    <glyph glyph-name="Sacute" unicode="&#x15a;" horiz-adv-x="620" 
d="M-9 237h149q-4 -71 37.5 -101.5t116.5 -30.5q54 0 95 26t41 75q0 14 -5 26t-16 21.5t-22 16.5t-30.5 14t-32.5 11t-37.5 11t-37.5 11q-82 24 -131 66.5t-49 125.5q0 57 24.5 101t65.5 70t90 38.5t103 12.5q119 0 193.5 -56.5t74.5 -173.5h-149q2 56 -33 82t-95 26
q-52 0 -88.5 -21.5t-36.5 -67.5q0 -11 4 -21.5t12.5 -18.5t16.5 -14.5t22.5 -12.5t23 -10t26 -8.5t24 -6t23 -5.5t18.5 -4q95 -25 143 -68t48 -132q0 -61 -26 -108.5t-69 -74t-92.5 -40t-103.5 -13.5q-150 0 -223.5 62.5t-73.5 191.5zM556 921l-140 -142h-100l88 142h152z
" />
    <glyph glyph-name="sacute" unicode="&#x15b;" horiz-adv-x="496" 
d="M464 366h-132q-2 70 -80 70q-87 0 -87 -51q0 -17 14.5 -29t50.5 -23l71 -23q64 -20 100 -54t36 -94q0 -61 -37.5 -102t-91 -57.5t-117.5 -16.5q-55 0 -102.5 14t-82.5 52t-35 95v21h132v-17q0 -33 31 -51.5t71 -18.5q37 0 63.5 15t26.5 47q0 25 -12 36t-39 21l-109 35
q-59 20 -85.5 47.5t-26.5 84.5t37.5 96t87 53.5t104.5 14.5q45 0 81 -7.5t67.5 -25t48 -51t15.5 -81.5zM458 731l-140 -142h-100l88 142h152z" />
    <glyph glyph-name="Scircumflex" unicode="&#x15c;" horiz-adv-x="620" 
d="M-9 237h149q-4 -71 37.5 -101.5t116.5 -30.5q54 0 95 26t41 75q0 14 -5 26t-16 21.5t-22 16.5t-30.5 14t-32.5 11t-37.5 11t-37.5 11q-82 24 -131 66.5t-49 125.5q0 57 24.5 101t65.5 70t90 38.5t103 12.5q119 0 193.5 -56.5t74.5 -173.5h-149q2 56 -33 82t-95 26
q-52 0 -88.5 -21.5t-36.5 -67.5q0 -11 4 -21.5t12.5 -18.5t16.5 -14.5t22.5 -12.5t23 -10t26 -8.5t24 -6t23 -5.5t18.5 -4q95 -25 143 -68t48 -132q0 -61 -26 -108.5t-69 -74t-92.5 -40t-103.5 -13.5q-150 0 -223.5 62.5t-73.5 191.5zM201 779l137 142h126l83 -142h-100
l-50 81l-87 -81h-109z" />
    <glyph glyph-name="scircumflex" unicode="&#x15d;" horiz-adv-x="496" 
d="M464 366h-132q-2 70 -80 70q-87 0 -87 -51q0 -17 14.5 -29t50.5 -23l71 -23q64 -20 100 -54t36 -94q0 -61 -37.5 -102t-91 -57.5t-117.5 -16.5q-55 0 -102.5 14t-82.5 52t-35 95v21h132v-17q0 -33 31 -51.5t71 -18.5q37 0 63.5 15t26.5 47q0 25 -12 36t-39 21l-109 35
q-59 20 -85.5 47.5t-26.5 84.5t37.5 96t87 53.5t104.5 14.5q45 0 81 -7.5t67.5 -25t48 -51t15.5 -81.5zM104 589l137 142h126l83 -142h-100l-50 81l-87 -81h-109z" />
    <glyph glyph-name="Scedilla" unicode="&#x15e;" horiz-adv-x="620" 
d="M121 -195l21 48q42 -18 84 -18q40 0 40 33q0 32 -40 32q-22 0 -40 -7l-21 24l50 70q-97 12 -150 58q-74 62 -74 192h149q-4 -71 37.5 -101.5t116.5 -30.5q54 0 95 26t41 75q0 14 -5 26t-16 21.5t-22 16.5t-30.5 14t-32.5 11t-37.5 11t-37.5 11q-82 24 -131 66.5
t-49 125.5q0 57 24.5 101t65.5 70t90 38.5t103 12.5q119 0 193.5 -56.5t74.5 -173.5h-149q2 56 -33 82t-95 26q-52 0 -88.5 -21.5t-36.5 -67.5q0 -11 4 -21.5t12.5 -18.5t16.5 -14.5t22.5 -12.5t23 -10t26 -8.5t24 -6t23 -5.5t18.5 -4q95 -25 143 -68t48 -132
q0 -61 -26 -108.5t-69 -74t-92.5 -40t-103.5 -13.5q-18 0 -27 1l-27 -37l3 -2q18 7 35 7q36 0 63 -18t27 -52q0 -99 -117 -99q-64 0 -124 22z" />
    <glyph glyph-name="scedilla" unicode="&#x15f;" horiz-adv-x="496" 
d="M30 -195l21 48q42 -18 84 -18q40 0 40 33q0 32 -40 32q-22 0 -40 -7l-21 24l53 75q-2 0 -6.5 0.5t-6.5 1.5q-62 13 -102.5 51.5t-40.5 101.5v21h132v-17q0 -33 31 -51.5t71 -18.5q37 0 63.5 15t26.5 47q0 25 -12 36t-39 21l-109 35q-59 20 -85.5 47.5t-26.5 84.5t37.5 96
t87 53.5t104.5 14.5q45 0 81 -7.5t67.5 -25t48 -51t15.5 -81.5h-132q-2 70 -80 70q-87 0 -87 -51q0 -17 14.5 -29t50.5 -23l71 -23q64 -20 100 -54t36 -94q0 -61 -37.5 -102t-91 -57.5t-117.5 -16.5q-13 0 -19 1l-29 -40l3 -2q18 7 35 7q36 0 63 -18t27 -52q0 -99 -117 -99
q-64 0 -124 22z" />
    <glyph glyph-name="Scaron" unicode="&#x160;" horiz-adv-x="625" 
d="M-4 237h149q-4 -71 37.5 -101.5t116.5 -30.5q54 0 95 26t41 75q0 14 -5 26t-16 21.5t-22 16.5t-30.5 14t-32.5 11t-37.5 11t-37.5 11q-82 24 -131 66.5t-49 125.5q0 57 24.5 101t65.5 70t90 38.5t103 12.5q119 0 193.5 -56.5t74.5 -173.5h-149q2 56 -33 82t-95 26
q-52 0 -88.5 -21.5t-36.5 -67.5q0 -11 4 -21.5t12.5 -18.5t16.5 -14.5t22.5 -12.5t23 -10t26 -8.5t24 -6t23 -5.5t18.5 -4q95 -25 143 -68t48 -132q0 -61 -26 -108.5t-69 -74t-92.5 -40t-103.5 -13.5q-150 0 -223.5 62.5t-73.5 191.5zM583 921l-137 -142h-126l-83 142h100
l50 -83l87 83h109z" />
    <glyph glyph-name="scaron" unicode="&#x161;" horiz-adv-x="496" 
d="M464 366h-132q-2 70 -80 70q-87 0 -87 -51q0 -17 14.5 -29t50.5 -23l71 -23q64 -20 100 -54t36 -94q0 -61 -37.5 -102t-91 -57.5t-117.5 -16.5q-55 0 -102.5 14t-82.5 52t-35 95v21h132v-17q0 -33 31 -51.5t71 -18.5q37 0 63.5 15t26.5 47q0 25 -12 36t-39 21l-109 35
q-59 20 -85.5 47.5t-26.5 84.5t37.5 96t87 53.5t104.5 14.5q45 0 81 -7.5t67.5 -25t48 -51t15.5 -81.5zM468 731l-137 -142h-126l-83 142h100l50 -83l87 83h109z" />
    <glyph glyph-name="Tcommaaccent" unicode="&#x162;" horiz-adv-x="631" 
d="M173 0l122 582h-224l28 132h596l-28 -132h-214l-122 -582h-158zM152 -143l19 93h145l-15 -73q-15 -58 -51.5 -76.5t-103.5 -17.5l8 37q49 5 65 37h-67z" />
    <glyph glyph-name="tcommaaccent" unicode="&#x163;" horiz-adv-x="350" 
d="M288 674l-32 -157h102l-22 -95h-101l-53 -257q-4 -15 -4 -24q0 -17 8.5 -26t17 -10.5t22.5 -1.5q26 0 51 3l-24 -110q-48 -5 -89 -5q-59 0 -98 24t-37 81q0 16 7 49l58 277h-93l22 95h91l32 157h142zM47 -143l19 93h145l-15 -73q-15 -58 -51.5 -76.5t-103.5 -17.5l8 37
q49 5 65 37h-67z" />
    <glyph glyph-name="Tcaron" unicode="&#x164;" horiz-adv-x="631" 
d="M173 0l122 582h-224l28 132h596l-28 -132h-214l-122 -582h-158zM606 921l-137 -142h-126l-83 142h100l50 -83l87 83h109z" />
    <glyph glyph-name="tcaron" unicode="&#x165;" horiz-adv-x="423" 
d="M574 714l-117 -142h-98l67 142h148zM288 674l-32 -157h102l-22 -95h-101l-53 -257q-4 -15 -4 -24q0 -17 8.5 -26t17 -10.5t22.5 -1.5q26 0 51 3l-24 -110q-48 -5 -89 -5q-59 0 -98 24t-37 81q0 16 7 49l58 277h-93l22 95h91l32 157h142z" />
    <glyph glyph-name="Tbar" unicode="&#x166;" horiz-adv-x="631" 
d="M104 391l14 75h152l25 116h-224l28 132h596l-28 -132h-214l-25 -116h155l-14 -75h-156l-82 -391h-158l82 391h-151z" />
    <glyph glyph-name="tbar" unicode="&#x167;" horiz-adv-x="363" 
d="M-26 271l14 75h103l16 76h-93l22 95h91l32 157h142l-32 -157h102l-22 -95h-101l-16 -76h111l-14 -75h-112l-22 -106q-4 -15 -4 -24q0 -17 8.5 -26t17 -10.5t22.5 -1.5q25 0 51 3l-24 -110q-48 -5 -89 -5q-59 0 -98 24t-37 81q0 16 7 49l26 126h-101z" />
    <glyph glyph-name="Utilde" unicode="&#x168;" horiz-adv-x="713" 
d="M736 714l-87 -415q-34 -163 -110 -239.5t-234 -76.5q-75 0 -135.5 19.5t-103 69t-42.5 123.5q0 31 15 106l87 413h157l-87 -413q-15 -69 -15 -90q0 -36 30.5 -66t103.5 -30q38 0 65.5 8.5t44.5 21.5t30 38t20 47.5t15 60.5l89 423h157zM562 911h69l-9 -30t-12.5 -29
t-20 -29t-29 -18t-41.5 -8q-29 0 -82 17q-47 17 -70 17q-19 0 -27.5 -10t-14.5 -32h-61q12 55 39.5 88.5t86.5 33.5q19 0 64 -17q42 -18 66 -18q22 0 32.5 10t9.5 25z" />
    <glyph glyph-name="utilde" unicode="&#x169;" horiz-adv-x="574" 
d="M558 517l-108 -517h-136l16 72h-2q-69 -86 -181 -86q-151 0 -151 139q0 35 15 89l64 303h142l-63 -303q-9 -27 -9 -63q0 -22 21 -37.5t47 -15.5q60 0 95.5 41t49.5 103l58 275h142zM457 721h69l-9 -30t-12.5 -29t-20 -29t-29 -18t-41.5 -8q-29 0 -82 17q-47 17 -70 17
q-19 0 -27.5 -10t-14.5 -32h-61q12 55 39.5 88.5t86.5 33.5q19 0 64 -17q42 -18 66 -18q22 0 32.5 10t9.5 25z" />
    <glyph glyph-name="Umacron" unicode="&#x16a;" horiz-adv-x="713" 
d="M736 714l-87 -415q-34 -163 -110 -239.5t-234 -76.5q-75 0 -135.5 19.5t-103 69t-42.5 123.5q0 31 15 106l87 413h157l-87 -413q-15 -69 -15 -90q0 -36 30.5 -66t103.5 -30q38 0 65.5 8.5t44.5 21.5t30 38t20 47.5t15 60.5l89 423h157zM290 809l14 75h305l-14 -75h-305z
" />
    <glyph glyph-name="umacron" unicode="&#x16b;" horiz-adv-x="574" 
d="M558 517l-108 -517h-136l16 72h-2q-69 -86 -181 -86q-151 0 -151 139q0 35 15 89l64 303h142l-63 -303q-9 -27 -9 -63q0 -22 21 -37.5t47 -15.5q60 0 95.5 41t49.5 103l58 275h142zM179 619l14 75h305l-14 -75h-305z" />
    <glyph glyph-name="Ubreve" unicode="&#x16c;" horiz-adv-x="713" 
d="M736 714l-87 -415q-34 -163 -110 -239.5t-234 -76.5q-75 0 -135.5 19.5t-103 69t-42.5 123.5q0 31 15 106l87 413h157l-87 -413q-15 -69 -15 -90q0 -36 30.5 -66t103.5 -30q38 0 65.5 8.5t44.5 21.5t30 38t20 47.5t15 60.5l89 423h157zM278 923h65q3 -35 28.5 -53
t65.5 -18q43 0 69 17.5t45 53.5h66q-42 -146 -189 -146q-69 0 -109.5 39.5t-40.5 106.5z" />
    <glyph glyph-name="ubreve" unicode="&#x16d;" horiz-adv-x="574" 
d="M558 517l-108 -517h-136l16 72h-2q-69 -86 -181 -86q-151 0 -151 139q0 35 15 89l64 303h142l-63 -303q-9 -27 -9 -63q0 -22 21 -37.5t47 -15.5q60 0 95.5 41t49.5 103l58 275h142zM168 733h65q3 -35 28.5 -53t65.5 -18q43 0 69 17.5t45 53.5h66q-42 -146 -189 -146
q-69 0 -109.5 39.5t-40.5 106.5z" />
    <glyph glyph-name="Uring" unicode="&#x16e;" horiz-adv-x="713" 
d="M736 714l-87 -415q-34 -163 -110 -239.5t-234 -76.5q-75 0 -135.5 19.5t-103 69t-42.5 123.5q0 31 15 106l87 413h157l-87 -413q-15 -69 -15 -90q0 -36 30.5 -66t103.5 -30q38 0 65.5 8.5t44.5 21.5t30 38t20 47.5t15 60.5l89 423h157zM319 864q0 51 35 85.5t87 34.5
q51 0 86.5 -34.5t35.5 -85.5q0 -53 -34 -86t-88 -33q-55 0 -88.5 33t-33.5 86zM379 864q0 -30 16.5 -48.5t45.5 -18.5t46 18.5t17 48.5t-17 48.5t-46 18.5t-45.5 -18.5t-16.5 -48.5z" />
    <glyph glyph-name="uring" unicode="&#x16f;" horiz-adv-x="574" 
d="M558 517l-108 -517h-136l16 72h-2q-69 -86 -181 -86q-151 0 -151 139q0 35 15 89l64 303h142l-63 -303q-9 -27 -9 -63q0 -22 21 -37.5t47 -15.5q60 0 95.5 41t49.5 103l58 275h142zM208 684q0 51 35 85.5t87 34.5q51 0 86.5 -34.5t35.5 -85.5q0 -53 -34 -86t-88 -33
q-55 0 -88.5 33t-33.5 86zM268 684q0 -30 16.5 -48.5t45.5 -18.5t46 18.5t17 48.5t-17 48.5t-46 18.5t-45.5 -18.5t-16.5 -48.5z" />
    <glyph glyph-name="Uhungarumlaut" unicode="&#x170;" horiz-adv-x="713" 
d="M736 714l-87 -415q-34 -163 -110 -239.5t-234 -76.5q-75 0 -135.5 19.5t-103 69t-42.5 123.5q0 31 15 106l87 413h157l-87 -413q-15 -69 -15 -90q0 -36 30.5 -66t103.5 -30q38 0 65.5 8.5t44.5 21.5t30 38t20 47.5t15 60.5l89 423h157zM727 921l-140 -142h-100l88 142
h152zM527 921l-140 -142h-100l88 142h152z" />
    <glyph glyph-name="uhungarumlaut" unicode="&#x171;" horiz-adv-x="574" 
d="M558 517l-108 -517h-136l16 72h-2q-69 -86 -181 -86q-151 0 -151 139q0 35 15 89l64 303h142l-63 -303q-9 -27 -9 -63q0 -22 21 -37.5t47 -15.5q60 0 95.5 41t49.5 103l58 275h142zM618 731l-140 -142h-100l88 142h152zM418 731l-140 -142h-100l88 142h152z" />
    <glyph glyph-name="Uogonek" unicode="&#x172;" horiz-adv-x="713" 
d="M334 -127l46 -25q-51 -65 -132 -65q-14 0 -28 2.5t-34 10t-32.5 27.5t-12.5 49q0 47 69 93q14 9 40 21q-16 2 -48 8q-79 17 -128.5 68t-49.5 133q0 31 15 106l87 413h157l-87 -413q-15 -69 -15 -90q0 -36 30.5 -66t103.5 -30q38 0 65.5 8.5t44.5 21.5t30 38t20 47.5
t15 60.5l89 423h157l-87 -415q-25 -122 -71.5 -193.5t-131.5 -102.5q-53 -17 -120 -20q-8 -5 -31 -20q-58 -45 -58 -86q0 -15 11.5 -24.5t27.5 -9.5q31 0 58 30z" />
    <glyph glyph-name="uogonek" unicode="&#x173;" horiz-adv-x="574" 
d="M558 517l-108 -517h-74q-54 -47 -66 -64q-20 -30 -20 -59q0 -14 10 -24t23 -10q22 0 52 27l37 -22q-44 -65 -112 -65q-12 0 -24 2.5t-29 10t-27.5 27.5t-10.5 49q0 12 7 33q14 36 98 95l16 72h-2q-69 -86 -181 -86q-151 0 -151 139q0 35 15 89l64 303h142l-63 -303
q-9 -27 -9 -63q0 -22 21 -37.5t47 -15.5q60 0 95.5 41t49.5 103l58 275h142z" />
    <glyph glyph-name="Wcircumflex" unicode="&#x174;" horiz-adv-x="933" 
d="M1009 714l-335 -714h-156l-18 510h-2l-222 -510h-158l-49 714h157l10 -523h2l226 523h150l18 -521h2l218 521h157zM372 779l137 142h126l83 -142h-100l-50 81l-87 -81h-109z" />
    <glyph glyph-name="wcircumflex" unicode="&#x175;" horiz-adv-x="797" 
d="M825 517l-270 -517h-148l-18 363h-2l-160 -363h-149l-57 517h145l20 -364h2l159 364h144l16 -361h2l166 361h150zM261 589l137 142h126l83 -142h-100l-50 81l-87 -81h-109z" />
    <glyph glyph-name="Ycircumflex" unicode="&#x176;" horiz-adv-x="647" 
d="M175 0l57 277l-171 437h161l107 -304l222 304h185l-348 -444l-55 -270h-158zM227 779l137 142h126l83 -142h-100l-50 81l-87 -81h-109z" />
    <glyph glyph-name="ycircumflex" unicode="&#x177;" horiz-adv-x="508" 
d="M541 517l-329 -590q-36 -65 -78 -87t-123 -22q-14 0 -40 2.5t-36 2.5l24 118q9 0 28.5 -3t29.5 -3q23 0 40.5 8t24 15.5t16.5 25t13 21.5l-92 512h146l45 -370h2l179 370h150zM120 589l137 142h126l83 -142h-100l-50 81l-87 -81h-109z" />
    <glyph glyph-name="Ydieresis" unicode="&#x178;" horiz-adv-x="647" 
d="M175 0l57 277l-171 437h161l107 -304l222 304h185l-348 -444l-55 -270h-158zM232 788l24 117h131l-24 -117h-131zM428 788l24 117h131l-24 -117h-131z" />
    <glyph glyph-name="Zacute" unicode="&#x179;" horiz-adv-x="641" 
d="M-51 0l27 130l477 452h-366l29 132h564l-26 -126l-481 -456h403l-26 -132h-601zM572 921l-140 -142h-100l88 142h152z" />
    <glyph glyph-name="zacute" unicode="&#x17a;" horiz-adv-x="509" 
d="M-45 0l22 105l324 305h-249l23 107h434l-22 -105l-325 -305h285l-23 -107h-469zM478 731l-140 -142h-100l88 142h152z" />
    <glyph glyph-name="Zdotaccent" unicode="&#x17b;" horiz-adv-x="641" 
d="M-51 0l27 130l477 452h-366l29 132h564l-26 -126l-481 -456h403l-26 -132h-601zM335 788l24 117h131l-24 -117h-131z" />
    <glyph glyph-name="zdotaccent" unicode="&#x17c;" horiz-adv-x="509" 
d="M-45 0l22 105l324 305h-249l23 107h434l-22 -105l-325 -305h285l-23 -107h-469zM238 598l24 117h131l-24 -117h-131z" />
    <glyph glyph-name="Zcaron" unicode="&#x17d;" horiz-adv-x="641" 
d="M-51 0l27 130l477 452h-366l29 132h564l-26 -126l-481 -456h403l-26 -132h-601zM597 921l-137 -142h-126l-83 142h100l50 -83l87 83h109z" />
    <glyph glyph-name="zcaron" unicode="&#x17e;" horiz-adv-x="509" 
d="M-45 0l22 105l324 305h-249l23 107h434l-22 -105l-325 -305h285l-23 -107h-469zM497 731l-137 -142h-126l-83 142h100l50 -83l87 83h109z" />
    <glyph glyph-name="florin" unicode="&#x192;" horiz-adv-x="538" 
d="M-40 -166l28 104q6 0 18 -0.5t18 -0.5q14 0 25.5 5.5t18.5 11t14 19.5t9.5 20.5t8 25t6.5 22.5l81 296h-96l28 95h95l39 147q34 152 204 152q9 0 84 -8l-28 -103q-6 0 -20 2t-22 2q-11 0 -20 -2t-15.5 -4t-13 -8.5t-9.5 -9t-8 -12.5t-6 -12.5t-6 -15.5t-6 -14l-30 -114
h104l-26 -95h-106l-85 -314q-26 -99 -73 -146t-142 -47q-13 0 -37 2t-32 2z" />
    <glyph glyph-name="Scommaaccent" unicode="&#x218;" horiz-adv-x="620" 
d="M-9 237h149q-4 -71 37.5 -101.5t116.5 -30.5q54 0 95 26t41 75q0 14 -5 26t-16 21.5t-22 16.5t-30.5 14t-32.5 11t-37.5 11t-37.5 11q-82 24 -131 66.5t-49 125.5q0 57 24.5 101t65.5 70t90 38.5t103 12.5q119 0 193.5 -56.5t74.5 -173.5h-149q2 56 -33 82t-95 26
q-52 0 -88.5 -21.5t-36.5 -67.5q0 -11 4 -21.5t12.5 -18.5t16.5 -14.5t22.5 -12.5t23 -10t26 -8.5t24 -6t23 -5.5t18.5 -4q95 -25 143 -68t48 -132q0 -61 -26 -108.5t-69 -74t-92.5 -40t-103.5 -13.5q-150 0 -223.5 62.5t-73.5 191.5zM175 -143l19 93h145l-15 -73
q-15 -58 -51.5 -76.5t-103.5 -17.5l8 37q49 5 65 37h-67z" />
    <glyph glyph-name="scommaaccent" unicode="&#x219;" horiz-adv-x="496" 
d="M464 366h-132q-2 70 -80 70q-87 0 -87 -51q0 -17 14.5 -29t50.5 -23l71 -23q64 -20 100 -54t36 -94q0 -61 -37.5 -102t-91 -57.5t-117.5 -16.5q-55 0 -102.5 14t-82.5 52t-35 95v21h132v-17q0 -33 31 -51.5t71 -18.5q37 0 63.5 15t26.5 47q0 25 -12 36t-39 21l-109 35
q-59 20 -85.5 47.5t-26.5 84.5t37.5 96t87 53.5t104.5 14.5q45 0 81 -7.5t67.5 -25t48 -51t15.5 -81.5zM88 -143l19 93h145l-15 -73q-15 -58 -51.5 -76.5t-103.5 -17.5l8 37q49 5 65 37h-67z" />
    <glyph glyph-name="uni021A" unicode="&#x21a;" horiz-adv-x="583" 
d="M142 0l122 582h-224l28 132h596l-28 -132h-214l-122 -582h-158zM121 -143l19 93h145l-15 -73q-15 -58 -51.5 -76.5t-103.5 -17.5l8 37q49 5 65 37h-67z" />
    <glyph glyph-name="uni021B" unicode="&#x21b;" horiz-adv-x="352" 
d="M301 674l-32 -157h102l-22 -95h-101l-53 -257q-4 -15 -4 -24q0 -17 8.5 -26t17 -10.5t22.5 -1.5q25 0 51 3l-24 -110q-48 -5 -89 -5q-59 0 -98 24t-37 81q0 16 7 49l58 277h-93l22 95h91l32 157h142zM60 -143l19 93h145l-15 -73q-15 -58 -51.5 -76.5t-103.5 -17.5l8 37
q49 5 65 37h-67z" />
    <glyph glyph-name="circumflex" unicode="&#x2c6;" 
d="M0 589l137 142h126l83 -142h-100l-50 81l-87 -81h-109z" />
    <glyph glyph-name="caron" unicode="&#x2c7;" 
d="M368 731l-137 -142h-126l-83 142h100l50 -83l87 83h109z" />
    <glyph glyph-name="uni02C9" unicode="&#x2c9;" 
d="M26 619l14 75h305l-14 -75h-305z" />
    <glyph glyph-name="breve" unicode="&#x2d8;" 
d="M29 733h65q3 -35 28.5 -53t65.5 -18q43 0 69 17.5t45 53.5h66q-42 -146 -189 -146q-69 0 -109.5 39.5t-40.5 106.5z" />
    <glyph glyph-name="dotaccent" unicode="&#x2d9;" 
d="M106 598l24 117h131l-24 -117h-131z" />
    <glyph glyph-name="ring" unicode="&#x2da;" 
d="M64 684q0 51 35 85.5t87 34.5q51 0 86.5 -34.5t35.5 -85.5q0 -53 -34 -86t-88 -33q-55 0 -88.5 33t-33.5 86zM124 684q0 -30 16.5 -48.5t45.5 -18.5t46 18.5t17 48.5t-17 48.5t-46 18.5t-45.5 -18.5t-16.5 -48.5z" />
    <glyph glyph-name="ogonek" unicode="&#x2db;" 
d="M193 -127l46 -25q-51 -65 -132 -65q-14 0 -28 2.5t-34 10t-32.5 27.5t-12.5 49q0 12 5 25t19 31.5t46 37.5t78 34h65q-67 -39 -92 -67t-25 -56q0 -15 11.5 -24.5t27.5 -9.5q31 0 58 30z" />
    <glyph glyph-name="tilde" unicode="&#x2dc;" 
d="M302 721h69l-9 -30t-12.5 -29t-20 -29t-29 -18t-41.5 -8q-29 0 -82 17q-47 17 -70 17q-19 0 -27.5 -10t-14.5 -32h-61q12 55 39.5 88.5t86.5 33.5q19 0 64 -17q42 -18 66 -18q22 0 32.5 10t9.5 25z" />
    <glyph glyph-name="hungarumlaut" unicode="&#x2dd;" 
d="M425 731l-140 -142h-100l88 142h152zM225 731l-140 -142h-100l88 142h152z" />
    <glyph glyph-name="uni0394" unicode="&#x394;" horiz-adv-x="684" 
d="M454 123l-73 439l-244 -439h317zM603 0h-681l411 712h143z" />
    <glyph glyph-name="uni03A9" unicode="&#x3a9;" horiz-adv-x="741" 
d="M702 454q0 -108 -67 -197.5t-171 -107.5l-7 -35h181l-24 -114h-287l43 207q81 12 133.5 79.5t52.5 151.5q0 73 -41 117.5t-114 44.5q-96 0 -161 -76t-65 -174q0 -57 26 -95.5t81 -47.5l-44 -207h-281l24 114h174l9 39q-65 21 -99 74.5t-34 124.5q0 156 113 262.5
t269 106.5q123 0 206 -73t83 -194z" />
    <glyph glyph-name="uni03BC" unicode="&#x3bc;" horiz-adv-x="593" 
d="M577 517l-108 -517h-136l16 72h-2q-69 -86 -181 -86q-19 0 -44 5l-36 -173h-142l150 699h142l-63 -303q-9 -27 -9 -63q0 -22 21 -37.5t47 -15.5q60 0 95.5 41t49.5 103l58 275h142z" />
    <glyph glyph-name="pi" unicode="&#x3c0;" horiz-adv-x="591" 
d="M603 489l-25 -118h-80l-42 -202q-7 -35 -7 -45q0 -23 30 -23q22 0 46 11l-20 -95q-53 -25 -100 -25q-95 0 -95 77q0 16 9 61l51 241h-174l-80 -371h-128l79 371h-72l26 118h582z" />
    <glyph glyph-name="endash" unicode="&#x2013;" horiz-adv-x="482" 
d="M-38 212l26 122h500l-26 -122h-500z" />
    <glyph glyph-name="emdash" unicode="&#x2014;" horiz-adv-x="982" 
d="M92 212l26 122h740l-26 -122h-740z" />
    <glyph glyph-name="quoteleft" unicode="&#x2018;" horiz-adv-x="351" 
d="M300 547l-32 -154h-158l32 154q16 75 59.5 119.5t133.5 47.5l-15 -70q-43 -8 -61.5 -30t-27.5 -67h69z" />
    <glyph glyph-name="quoteright" unicode="&#x2019;" horiz-adv-x="351" 
d="M139 560l32 154h158l-32 -154q-16 -76 -59.5 -120t-133.5 -47l15 70q43 8 61.5 30t27.5 67h-69z" />
    <glyph glyph-name="quotesinglbase" unicode="&#x201a;" horiz-adv-x="341" 
d="M15 0l32 154h158l-32 -154q-16 -76 -59.5 -120t-133.5 -47l15 70q43 8 61.5 30t27.5 67h-69z" />
    <glyph glyph-name="quotedblleft" unicode="&#x201c;" horiz-adv-x="562" 
d="M511 547l-32 -154h-158l32 154q16 75 59.5 119.5t133.5 47.5l-15 -70q-43 -8 -61.5 -30t-27.5 -67h69zM300 547l-32 -154h-158l32 154q16 75 59.5 119.5t133.5 47.5l-15 -70q-43 -8 -61.5 -30t-27.5 -67h69z" />
    <glyph glyph-name="quotedblright" unicode="&#x201d;" horiz-adv-x="562" 
d="M139 560l32 154h158l-32 -154q-16 -76 -59.5 -120t-133.5 -47l15 70q43 8 61.5 30t27.5 67h-69zM350 560l32 154h158l-32 -154q-16 -76 -59.5 -120t-133.5 -47l15 70q43 8 61.5 30t27.5 67h-69z" />
    <glyph glyph-name="quotedblbase" unicode="&#x201e;" horiz-adv-x="552" 
d="M226 0l32 154h158l-32 -154q-16 -76 -59.5 -120t-133.5 -47l15 70q43 8 61.5 30t27.5 67h-69zM15 0l32 154h158l-32 -154q-16 -76 -59.5 -120t-133.5 -47l15 70q43 8 61.5 30t27.5 67h-69z" />
    <glyph glyph-name="dagger" unicode="&#x2020;" horiz-adv-x="575" 
d="M115 -166l118 566h-188l25 117h188l41 197h132l-41 -197h188l-25 -117h-188l-118 -566h-132z" />
    <glyph glyph-name="daggerdbl" unicode="&#x2021;" horiz-adv-x="575" 
d="M115 -166l41 193h-188l24 117h188l54 256h-186l23 117h188l41 197h132l-41 -197h188l-25 -117h-188l-54 -256h188l-24 -117h-188l-41 -193h-132z" />
    <glyph glyph-name="bullet" unicode="&#x2022;" horiz-adv-x="482" 
d="M63 357q0 74 52 126t126 52t126.5 -52t52.5 -126t-52.5 -126.5t-126.5 -52.5t-126 52.5t-52 126.5z" />
    <glyph glyph-name="ellipsis" unicode="&#x2026;" horiz-adv-x="982" 
d="M7 0l33 154h158l-33 -154h-158zM673 0l33 154h158l-33 -154h-158zM340 0l33 154h158l-33 -154h-158z" />
    <glyph glyph-name="perthousand" unicode="&#x2030;" horiz-adv-x="1112" 
d="M151 497q0 -62 42 -62q21 0 37.5 18t25 45t13 52t4.5 45q0 22 -11 38t-31 16q-38 0 -59 -53t-21 -99zM61 504q0 85 45.5 147.5t126.5 62.5q61 0 95.5 -32.5t34.5 -92.5q0 -90 -45.5 -154.5t-131.5 -64.5q-61 0 -93 36t-32 98zM67 -22l538 744h85l-537 -744h-86zM836 113
q0 -62 42 -62q21 0 37.5 18t25 45t13 52t4.5 45q0 22 -11 38t-31 16q-38 0 -59 -53t-21 -99zM746 120q0 85 45.5 147.5t126.5 62.5q61 0 95.5 -32.5t34.5 -92.5q0 -90 -45.5 -154.5t-131.5 -64.5q-61 0 -93 36t-32 98zM485 113q0 -62 42 -62q21 0 37.5 18t25 45t13 52
t4.5 45q0 22 -11 38t-31 16q-38 0 -59 -53t-21 -99zM395 120q0 85 45.5 147.5t126.5 62.5q61 0 95.5 -32.5t34.5 -92.5q0 -90 -45.5 -154.5t-131.5 -64.5q-61 0 -93 36t-32 98z" />
    <glyph glyph-name="guilsinglleft" unicode="&#x2039;" 
d="M136 80l-128 138l28 130l181 115l-26 -123l-110 -68l77 -85z" />
    <glyph glyph-name="guilsinglright" unicode="&#x203a;" 
d="M67 463l128 -138l-28 -130l-181 -115l26 123l110 68l-77 85z" />
    <glyph glyph-name="fraction" unicode="&#x2044;" horiz-adv-x="149" 
d="M-175 -22l414 744h85l-412 -744h-87z" />
    <glyph glyph-name="Euro" unicode="&#x20ac;" horiz-adv-x="538" 
d="M576 658l-61 -113q-55 57 -117 57q-106 0 -160 -147h244l-35 -71h-227l-5 -45h213l-35 -71h-178q12 -165 136 -165q68 0 165 67l-26 -148q-82 -38 -159 -38q-123 0 -189 82q-58 73 -67 202h-75l35 71h41l6 45h-57l35 71h37q33 116 105 187q83 80 194 80q98 0 180 -64z
" />
    <glyph glyph-name="afii61289" unicode="&#x2113;" horiz-adv-x="482" 
d="M491 595q0 -83 -63.5 -161.5t-195.5 -167.5q-28 -116 -28 -137q0 -45 44 -45q37 0 98 39h2l33 -77q-84 -60 -173 -60q-65 0 -101.5 32.5t-36.5 86.5q0 14 12 73l-61 -44h-2l-35 75l122 83l50 237q19 90 74 141t132 51q56 0 92.5 -36.5t36.5 -89.5zM379 589
q0 19 -8.5 31.5t-22.5 12.5q-36 0 -52 -71l-39 -179q52 44 87 100t35 106z" />
    <glyph glyph-name="trademark" unicode="&#x2122;" horiz-adv-x="972" 
d="M389 714v-80h-117v-332h-102v332h-117v80h336zM919 714v-412h-96v292h-2l-106 -292h-69l-106 292h-2v-292h-96v412h136l103 -271l103 271h135z" />
    <glyph glyph-name="Omega" unicode="&#x2126;" horiz-adv-x="741" 
d="M702 454q0 -108 -67 -197.5t-171 -107.5l-7 -35h181l-24 -114h-287l43 207q81 12 133.5 79.5t52.5 151.5q0 73 -41 117.5t-114 44.5q-96 0 -161 -76t-65 -174q0 -57 26 -95.5t81 -47.5l-44 -207h-281l24 114h174l9 39q-65 21 -99 74.5t-34 124.5q0 156 113 262.5
t269 106.5q123 0 206 -73t83 -194z" />
    <glyph glyph-name="estimated" unicode="&#x212e;" horiz-adv-x="582" 
d="M552 259h-404v-181q59 -59 145 -59q122 0 193 120l35 -21q-46 -72 -98 -103.5t-130 -31.5q-115 0 -186.5 79t-71.5 197q0 119 71 197.5t187 78.5q115 0 186.5 -77t72.5 -199zM148 295h291v145q-63 60 -147 60t-144 -60v-145z" />
    <glyph glyph-name="partialdiff" unicode="&#x2202;" horiz-adv-x="554" 
d="M500 357q0 -56 -6 -105t-24 -99.5t-45.5 -86.5t-74.5 -58.5t-108 -22.5q-102 0 -165.5 65t-63.5 167q0 97 62 160.5t158 63.5q72 0 134 -47v14q0 51 -10.5 95t-43 80t-83.5 36q-59 0 -121 -53l-70 80q46 38 88.5 56t96.5 18q74 0 129.5 -31t86.5 -84t45.5 -115t14.5 -133
zM366 266v24q-47 54 -112 54q-54 0 -84 -39t-30 -94q0 -53 26.5 -90.5t77.5 -37.5q42 0 71.5 31t41 71t9.5 81z" />
    <glyph glyph-name="Delta" unicode="&#x2206;" horiz-adv-x="684" 
d="M454 123l-73 439l-244 -439h317zM603 0h-681l411 712h143z" />
    <glyph glyph-name="product" unicode="&#x220f;" horiz-adv-x="731" 
d="M684 -214h-132v874h-373v-874h-133v1000h638v-1000z" />
    <glyph glyph-name="summation" unicode="&#x2211;" horiz-adv-x="655" 
d="M637 -214h-619v110l295 396l-283 384v110h595v-126h-418l263 -367l-280 -381h447v-126z" />
    <glyph glyph-name="minus" unicode="&#x2212;" horiz-adv-x="582" 
d="M39 199v107h505v-107h-505z" />
    <glyph glyph-name="uni2215" unicode="&#x2215;" horiz-adv-x="149" 
d="M-175 -22l414 744h85l-412 -744h-87z" />
    <glyph glyph-name="uni2219" unicode="&#x2219;" horiz-adv-x="260" 
d="M34 287q0 35 25.5 60t59.5 25t59 -25t25 -60q0 -33 -25 -58.5t-58 -25.5q-35 0 -60.5 25t-25.5 59z" />
    <glyph glyph-name="radical" unicode="&#x221a;" horiz-adv-x="552" 
d="M547 786l-218 -1000h-121l-147 303l-54 -26l-49 105l171 78l118 -255l161 795h139z" />
    <glyph glyph-name="infinity" unicode="&#x221e;" horiz-adv-x="830" 
d="M764 269q0 -87 -49.5 -143.5t-134.5 -56.5q-58 0 -103.5 30.5t-90.5 85.5q-50 -57 -91 -85.5t-101 -28.5q-85 0 -136 55.5t-51 141.5q0 85 49.5 140t133.5 55q62 0 104.5 -30.5t91.5 -91.5q44 59 88.5 90.5t106.5 31.5q84 0 133.5 -55t49.5 -139zM656 266q0 36 -21 59.5
t-57 23.5q-52 0 -125 -85q69 -80 128 -80q35 0 55 23.5t20 58.5zM318 264q-72 84 -127 84q-34 0 -54.5 -24t-20.5 -58q0 -36 21 -58.5t56 -22.5q63 0 125 79z" />
    <glyph glyph-name="integral" unicode="&#x222b;" horiz-adv-x="610" 
d="M510 702q0 -28 -17 -46t-44 -18q-29 0 -42 22t-19 43.5t-18 21.5q-19 0 -19 -37q0 -28 3 -81t3 -80v-413v-69q0 -41 -3 -73t-13 -68.5t-27.5 -60.5t-49 -40t-74.5 -16q-44 0 -83 24t-39 65q0 25 18.5 41t44.5 16q22 0 35 -13.5t16 -30t8.5 -30t15.5 -13.5q19 0 19 35
q0 24 -3 72t-3 72v465v45t1.5 44.5t4.5 45.5t9 41t14.5 39t21.5 31.5t30 26t40.5 15t51.5 6.5q42 0 80 -22t38 -60z" />
    <glyph glyph-name="approxequal" unicode="&#x2248;" horiz-adv-x="575" 
d="M539 474q-12 -129 -96 -173q-32 -17 -64 -17q-37 0 -124.5 31.5t-122.5 31.5q-25 0 -40 -18t-18 -43h-85q7 83 46.5 134t118.5 51q41 0 121 -28t120 -28q51 0 58 59h86zM538 248q-7 -81 -44.5 -136.5t-111.5 -55.5q-39 0 -129 32t-122 32q-24 0 -39 -17.5t-19 -43.5h-85
q4 76 44 133t112 57q38 0 124.5 -30.5t126.5 -30.5q47 0 57 60h86z" />
    <glyph glyph-name="notequal" unicode="&#x2260;" horiz-adv-x="575" 
d="M530 85h-286l-78 -157l-114 57l51 100h-106v130h170l52 103h-222v129h286l79 157l113 -57l-50 -100h105v-129h-169l-52 -103h221v-130z" />
    <glyph glyph-name="lessequal" unicode="&#x2264;" horiz-adv-x="575" 
d="M530 114l-533 168v129l533 165v-135l-353 -94l353 -98v-135zM530 -43h-533v129h533v-129z" />
    <glyph glyph-name="greaterequal" unicode="&#x2265;" horiz-adv-x="575" 
d="M530 282l-533 -168v135l354 98l-354 94v135l533 -165v-129zM530 -43h-533v129h533v-129z" />
    <glyph glyph-name="lozenge" unicode="&#x25ca;" horiz-adv-x="575" 
d="M532 356l-186 -391h-119l-184 391l185 391h118zM399 356l-112 261l-112 -261l112 -262z" />
    <glyph glyph-name="dotlessj" unicode="&#xe0d6;" 
d="M-141 -177l24 114q34 -2 51 -2q11 0 19.5 6.5t14 19t9 22.5t7 25.5t4.5 19.5l103 489h142l-113 -536q-19 -87 -59.5 -125t-132.5 -38q-13 0 -36.5 2.5t-32.5 2.5z" />
    <glyph glyph-name="grave.cap" unicode="&#xe300;" 
d="M167 921l88 -142h-100l-140 142h152z" />
    <glyph glyph-name="acute.cap" unicode="&#xe301;" 
d="M365 921l-140 -142h-100l88 142h152z" />
    <glyph glyph-name="circumflex.cap" unicode="&#xe302;" 
d="M0 779l137 142h126l83 -142h-100l-50 81l-87 -81h-109z" />
    <glyph glyph-name="caron.cap" unicode="&#xe303;" 
d="M368 921l-137 -142h-126l-83 142h100l50 -83l87 83h109z" />
    <glyph glyph-name="tilde.cap" unicode="&#xe304;" 
d="M302 911h69l-9 -30t-12.5 -29t-20 -29t-29 -18t-41.5 -8q-29 0 -82 17q-47 17 -70 17q-19 0 -27.5 -10t-14.5 -32h-61q12 55 39.5 88.5t86.5 33.5q19 0 64 -17q42 -18 66 -18q22 0 32.5 10t9.5 25z" />
    <glyph glyph-name="dieresis.cap" unicode="&#xe305;" 
d="M8 788l24 117h131l-24 -117h-131zM204 788l24 117h131l-24 -117h-131z" />
    <glyph glyph-name="macron.cap" unicode="&#xe306;" 
d="M26 809l14 75h305l-14 -75h-305z" />
    <glyph glyph-name="breve.cap" unicode="&#xe307;" 
d="M29 923h65q3 -35 28.5 -53t65.5 -18q43 0 69 17.5t45 53.5h66q-42 -146 -189 -146q-69 0 -109.5 39.5t-40.5 106.5z" />
    <glyph glyph-name="ring.cap" unicode="&#xe308;" 
d="M64 866q0 51 35 85.5t87 34.5q51 0 86.5 -34.5t35.5 -85.5q0 -53 -34 -86t-88 -33q-55 0 -88.5 33t-33.5 86zM124 866q0 -30 16.5 -48.5t45.5 -18.5t46 18.5t17 48.5t-17 48.5t-46 18.5t-45.5 -18.5t-16.5 -48.5z" />
    <glyph glyph-name="hungarumlaut.cap" unicode="&#xe309;" 
d="M425 921l-140 -142h-100l88 142h152zM225 921l-140 -142h-100l88 142h152z" />
    <glyph glyph-name="dotaccent.cap" unicode="&#xe30a;" 
d="M106 747l24 117h131l-24 -117h-131z" />
    <glyph glyph-name="caron.alt" unicode="&#xe30b;" 
d="M359 714l-117 -142h-98l67 142h148z" />
    <glyph glyph-name="commaaccent" unicode="&#xe30c;" horiz-adv-x="260" 
d="M-1 -143l19 93h145l-15 -73q-15 -58 -51.5 -76.5t-103.5 -17.5l8 37q49 5 65 37h-67z" />
    <glyph glyph-name="commaaccent.alt" unicode="&#xe30d;" horiz-adv-x="260" 
d="M218 714l-19 -93h-145l15 73q15 58 51.5 76.5t103.5 17.5l-8 -37q-49 -5 -65 -37h67z" />
    <glyph glyph-name="uniF8FF" unicode="&#xf8ff;" horiz-adv-x="494" 
d="M269 117h-56v67h56v-67zM262 234h-46l-2 17q0 56 13 81q15 28 46 59q31 29 40.5 46t9.5 37q0 36 -22.5 60.5t-53.5 24.5q-71 0 -82 -95l-50 8q7 69 43 103t92 34q54 0 89 -36t35 -95q0 -34 -13 -60t-50 -60q-37 -33 -43 -52q-6 -20 -6 -72zM41 50h412v617h-412v-617z
M-9 718h512v-718h-512v718z" />
    </font>
</defs>
</svg>
