<?xml version="1.0" encoding="utf-8"?>
<!-- Generator: Adobe Illustrator 18.1.1, SVG Export Plug-In . SVG Version: 6.00 Build 0)  -->
<!DOCTYPE svg PUBLIC "-//W3C//DTD SVG 1.1//EN" "http://www.w3.org/Graphics/SVG/1.1/DTD/svg11.dtd">
<svg version="1.1" id="Layer_1" xmlns="http://www.w3.org/2000/svg" xmlns:xlink="http://www.w3.org/1999/xlink" x="0px" y="0px"
	 viewBox="0 0 32 32" enable-background="new 0 0 32 32" xml:space="preserve">
<g>
	<polygon fill="#325C80" points="18.3,13.7 11.4,13.7 11.4,16 13.7,16 13.7,22.9 11.4,22.9 11.4,25.1 20.6,25.1 20.6,22.9 
		18.3,22.9 	"/>
	<circle fill="#325C80" cx="16" cy="9.1" r="2.3"/>
	<path fill="#325C80" d="M16,0C7.2,0,0,7.2,0,16s7.2,16,16,16s16-7.2,16-16S24.8,0,16,0z M16,29.7C8.4,29.7,2.3,23.6,2.3,16
		S8.4,2.3,16,2.3S29.7,8.4,29.7,16S23.6,29.7,16,29.7z"/>
</g>
</svg>
