<?xml version="1.0" encoding="utf-8"?>
<!-- Generator: Adobe Illustrator 18.1.1, SVG Export Plug-In . SVG Version: 6.00 Build 0)  -->
<!DOCTYPE svg PUBLIC "-//W3C//DTD SVG 1.1//EN" "http://www.w3.org/Graphics/SVG/1.1/DTD/svg11.dtd">
<svg version="1.1" id="Layer_1" xmlns="http://www.w3.org/2000/svg" xmlns:xlink="http://www.w3.org/1999/xlink" x="0px" y="0px"
	 viewBox="0 0 32 32" enable-background="new 0 0 32 32" xml:space="preserve">
<g>
	<path fill="#FFFFFF" d="M16,23.1c3.9,0,7-3.1,7-7v-2v-1v-2v-1v-2c0-3.9-3.1-7-7-7s-7,3.1-7,7v2v1v2v1v2C9,20,12.1,23.1,16,23.1z
		 M13,14.1h-2v-1h2c0.6,0,1-0.4,1-1s-0.4-1-1-1h-2v-1h2c0.6,0,1-0.4,1-1s-0.4-1-1-1h-2c0-2.8,2.2-5,5-5s5,2.2,5,5h-2
		c-0.6,0-1,0.4-1,1s0.4,1,1,1h2v1h-2c-0.6,0-1,0.4-1,1s0.4,1,1,1h2v1h-2c-0.6,0-1,0.4-1,1s0.4,1,1,1h2c0,2.8-2.2,5-5,5s-5-2.2-5-5h2
		c0.6,0,1-0.4,1-1S13.6,14.1,13,14.1z"/>
	<path fill="#FFFFFF" d="M26,16.1h-2c0,4.4-3.6,8-8,8s-8-3.6-8-8H6c0,5.2,4,9.4,9,9.9v3.1h-3v2h3h2h3v-2h-3V26
		C22,25.5,26,21.3,26,16.1z"/>
</g>
</svg>
