<?xml version="1.0" encoding="utf-8"?>
<!-- Generator: Adobe Illustrator 17.1.0, SVG Export Plug-In . SVG Version: 6.00 Build 0)  -->
<!DOCTYPE svg PUBLIC "-//W3C//DTD SVG 1.1//EN" "http://www.w3.org/Graphics/SVG/1.1/DTD/svg11.dtd">
<svg version="1.1" id="Layer_1" xmlns="http://www.w3.org/2000/svg" xmlns:xlink="http://www.w3.org/1999/xlink" x="0px" y="0px"
	 viewBox="0 0 162 162" enable-background="new 0 0 162 162" xml:space="preserve">
<g>
	<g>
		<circle fill="#8CC63F" cx="81" cy="81" r="77.3"/>
	</g>
	<g>
		<rect x="31" y="36" fill="#FFFFFF" width="49" height="49"/>
	</g>
	<path fill="#008A52" d="M83.4,129c-19.4,0-36.2-13.2-40.8-32l5.1-1.2c4,16.5,18.7,28,35.6,28c3.1,0,6.3-0.4,9.3-1.2l1.3,5.1
		C90.6,128.5,87,129,83.4,129z"/>
	<polygon fill="#008A52" points="41.7,108.3 36.9,106.1 44.3,89.9 61.2,97 59.2,101.8 47,96.8 	"/>
	<path fill="#FFFFFF" d="M118.5,76.2c-4.8-15.4-18.9-25.8-35-25.8c-2.5,0-5,0.3-7.4,0.7L75,45.9c2.8-0.6,5.6-0.9,8.5-0.9
		c18.5,0,34.6,11.9,40.1,29.5L118.5,76.2z"/>
	<polygon fill="#FFFFFF" points="122.1,81.5 105.2,74.4 107.3,69.6 119.5,74.6 124.8,63.1 129.6,65.3 	"/>
	<text transform="matrix(1 0 0 1 44.3361 72.9868)" fill="#17AF4B" font-family="'HelvNeueMediumforIBM'" font-size="34.0218">A</text>
	<g>
		<circle fill="#17AF4B" cx="109.7" cy="110.3" r="26.3"/>
	</g>
	<path fill="#FFFFFF" d="M117.4,106.7c-0.1,0.3-0.2,0.7-0.2,1c4.5,1.2,6.5,4.4,6.5,7.8c0,4.9-3.7,8.3-11.7,9.3
		c-0.2-0.8-1-2.3-1.6-3.1c5.6-0.6,9.2-2.5,9.2-6.1c0-1-0.3-3.4-3.7-4.5c-1.4,3.1-3.4,6-5.8,8c0.1,0.4,0.3,0.7,0.4,1.1l-3.2,2
		c-0.2-0.3-0.3-0.6-0.4-1c-1.5,0.9-3.2,1.4-5,1.4c-2.7,0-4.5-1.7-4.5-4.6c0-4.3,3.3-7.6,7.7-9.4c-0.1-1.3-0.1-2.7-0.1-4.1
		c-2.3,0.1-4.8,0.1-6.1,0.1l-0.2-3.6c1.4,0,4,0,6.3,0c0.1-1.3,0.1-2.9,0.2-4.2l4.9,0.4c-0.1,0.3-0.3,0.6-0.8,0.6
		c-0.1,0.9-0.2,2.1-0.2,3.1c3.4-0.2,7.6-0.6,11-1.3l0.3,3.7c-3.4,0.6-7.9,0.9-11.6,1.1c0,1.1-0.1,2.1-0.1,3.2
		c1.3-0.3,3.2-0.5,4.6-0.4c0.1-0.5,0.2-0.9,0.2-1.4L117.4,106.7z M105.9,117.8c-0.3-1.6-0.6-3.6-0.7-5.7c-2.4,1.2-4.1,3.1-4.1,5.2
		c0,1.8,1.3,1.7,1.7,1.7C103.8,119,104.8,118.5,105.9,117.8z M112.2,110.5c-0.4-0.1-2,0.1-3.4,0.4c0.1,1.5,0.2,3,0.4,4.2
		C110.3,113.9,111.4,112.2,112.2,110.5z"/>
</g>
</svg>
