<?xml version="1.0" encoding="utf-8"?>
<!-- Generator: Adobe Illustrator 18.1.1, SVG Export Plug-In . SVG Version: 6.00 Build 0)  -->
<!DOCTYPE svg PUBLIC "-//W3C//DTD SVG 1.1//EN" "http://www.w3.org/Graphics/SVG/1.1/DTD/svg11.dtd">
<svg version="1.1" id="Layer_1" xmlns="http://www.w3.org/2000/svg" xmlns:xlink="http://www.w3.org/1999/xlink" x="0px" y="0px"
	 viewBox="0 0 22 22" enable-background="new 0 0 22 22" xml:space="preserve">
<path fill="#FFFFFF" d="M8,2c3.3,0,6,2.7,6,6s-2.7,6-6,6c-3.3,0-6-2.7-6-6S4.7,2,8,2 M8,0C3.6,0,0,3.6,0,8c0,4.4,3.6,8,8,8
	s8-3.6,8-8C16,3.6,12.4,0,8,0L8,0z"/>
<rect x="15.9" y="14.5" transform="matrix(0.7071 -0.7071 0.7071 0.7071 -7.4558 18)" fill="#FFFFFF" width="4.2" height="7.1"/>
</svg>
