<?xml version="1.0" encoding="UTF-8"?>
<!-- Generator: Adobe Illustrator 18.0.0, SVG Export Plug-In . SVG Version: 6.00 Build 0)  -->
<!DOCTYPE svg PUBLIC "-//W3C//DTD SVG 1.1//EN" "http://www.w3.org/Graphics/SVG/1.1/DTD/svg11.dtd">
<svg version="1.1" id="Layer_1" xmlns="http://www.w3.org/2000/svg" xmlns:xlink="http://www.w3.org/1999/xlink" x="0px" y="0px" viewBox="0 0 160 160" enable-background="new 0 0 160 160" xml:space="preserve">
<g>
	<circle fill="#8CC63F" cx="80.3" cy="80.5" r="77.5"/>
	<g>
		<g>
			<path fill="#008A52" d="M79.8,99.1c0,6.3-2.3,12-5.8,16.7c-3,3.9-13,17.6-21,24.7v-13.9c0,0-0.5,0-0.8,0     c-15.2,0-27.4-12.3-27.4-27.5s12.4-27.5,27.5-27.5S79.8,83.9,79.8,99.1z"/>
		</g>
		<g>
			<circle fill="#FFFFFF" cx="65.1" cy="98.4" r="3.2"/>
			<circle fill="#FFFFFF" cx="52.4" cy="98.4" r="3.2"/>
			<circle fill="#FFFFFF" cx="39.8" cy="98.4" r="3.2"/>
		</g>
	</g>
	<g>
		<polygon fill="#FFFFFF" points="58.2,46.3 54.4,43.2 61,35.1 53,28.4 56.1,24.5 68.1,34.4   "/>
		<path fill="#FFFFFF" d="M27.5,72.7c-0.5-4.4-0.2-8.9,0.8-13.1c2.6-10.7,9.8-19.6,19.8-24.5c3.7-1.8,7.8-3,11.9-3.5l0.7,6    c-3.5,0.4-6.9,1.4-10,2.9C42.4,44.5,36.4,52,34.1,61c-0.9,3.6-1.1,7.3-0.7,11L27.5,72.7z"/>
	</g>
	<g>
		<polygon fill="#FFFFFF" points="140.8,106.7 73.9,106.7 73.9,24.8 123.5,24.8 140.8,42   "/>
		<rect x="84.7" y="47.7" fill="#17AF4B" width="47.2" height="8"/>
		<rect x="84.7" y="65.1" fill="#17AF4B" width="33.9" height="8"/>
		<rect x="84.7" y="81.6" fill="#17AF4B" width="42.1" height="8"/>
		<polygon fill="#008A52" points="140.8,42.2 123.4,42.2 123.4,24.8   "/>
	</g>
</g>
</svg>