<?xml version="1.0" encoding="UTF-8"?>
<!-- Generator: Adobe Illustrator 18.0.0, SVG Export Plug-In . SVG Version: 6.00 Build 0)  -->
<!DOCTYPE svg PUBLIC "-//W3C//DTD SVG 1.1//EN" "http://www.w3.org/Graphics/SVG/1.1/DTD/svg11.dtd">
<svg version="1.1" id="Layer_1" xmlns="http://www.w3.org/2000/svg" xmlns:xlink="http://www.w3.org/1999/xlink" x="0px" y="0px" viewBox="0 0 160 160" enable-background="new 0 0 160 160" xml:space="preserve">
<circle fill="#8CC63F" cx="80.3" cy="79.5" r="77.5"/>
<g>
	<polygon fill="#008A52" points="70.3,86.2 26.5,86.2 26.5,32.5 59,32.5 70.3,43.8  "/>
	<rect x="33" y="49" fill="#FFFFFF" width="31" height="5"/>
	<rect x="33" y="59" fill="#FFFFFF" width="23" height="5"/>
	<rect x="33" y="69" fill="#FFFFFF" width="28" height="5"/>
	<polygon fill="#17AF4B" points="70.3,43.9 59,43.9 59,32.5  "/>
</g>
<g>
	<path fill="#FFFFFF" d="M144.8,81.6c0,9.4-3.3,18-8.6,24.9c-4.5,5.9-20.3,26.3-31.3,37v-20.8c0,0-0.9,0-1.4,0   c-22.7,0-41-18.4-41-41.1s18.4-41.1,41.1-41.1S144.8,59,144.8,81.6z"/>
</g>
<g>
	<circle fill="#008A52" cx="122.8" cy="80.6" r="4.7"/>
	<circle fill="#008A52" cx="103.9" cy="80.6" r="4.7"/>
	<circle fill="#008A52" cx="85.1" cy="80.6" r="4.7"/>
</g>
<g>
	<polygon fill="#FFFFFF" points="68.5,138.6 64.7,135.4 71.5,127.4 63.5,120.6 66.7,116.8 78.5,126.8  "/>
	<path fill="#FFFFFF" d="M68.8,131c-3.4,0-6.8-0.5-10.1-1.4c-10.6-3-19.3-10.5-23.8-20.6c-1.8-4-2.8-8.3-3.1-12.8l6-0.4   c0.2,3.7,1.1,7.3,2.6,10.7c3.8,8.5,11,14.8,19.9,17.3c3.4,1,6.8,1.3,10.4,1.1l0.4,6C70.3,131,69.6,131,68.8,131z"/>
</g>
</svg>